<svg width="88" height="81" viewBox="0 0 88 81" fill="none" xmlns="http://www.w3.org/2000/svg">
<path d="M16.6674 53.3429C16.6536 53.3489 16.6386 53.3519 16.6233 53.3518C16.6079 53.3517 16.5925 53.3485 16.5779 53.3424C16.5634 53.3363 16.5499 53.3274 16.5384 53.3162C16.5268 53.305 16.5173 53.2917 16.5105 53.2771L15.4025 50.8981C15.3957 50.8835 15.3917 50.8679 15.3907 50.8522C15.3897 50.8364 15.3918 50.8208 15.3967 50.8063C15.4017 50.7918 15.4095 50.7786 15.4196 50.7675C15.4298 50.7565 15.4421 50.7477 15.4559 50.7418L15.909 50.5464C15.9369 50.5344 15.969 50.5345 15.9984 50.5468C16.0278 50.5592 16.0521 50.5826 16.0658 50.612L16.8716 52.3423L17.9107 51.8943L17.2382 50.4506C17.2256 50.421 17.2241 50.3885 17.2339 50.3594C17.2438 50.3304 17.2644 50.3071 17.2915 50.2943L17.7447 50.0988C17.7728 50.0879 17.8045 50.0886 17.8336 50.1009C17.8627 50.1131 17.887 50.1359 17.9015 50.1647L18.5739 51.6084L19.9723 51.0055C20.0003 50.9946 20.0321 50.9954 20.0611 51.0076C20.0902 51.0198 20.1145 51.0425 20.129 51.0713L20.3795 51.609C20.3863 51.6236 20.3903 51.6392 20.3913 51.655C20.3923 51.6707 20.3903 51.6863 20.3853 51.7008C20.3804 51.7154 20.3726 51.7286 20.3624 51.7396C20.3523 51.7507 20.34 51.7595 20.3262 51.7654L16.6674 53.3429Z" fill="white"/>
<path d="M14.2173 47.1538C14.0961 46.718 14.1016 46.2643 14.2331 45.8499C14.3647 45.4356 14.6164 45.0792 14.9563 44.826C15.2963 44.5727 15.7093 44.434 16.1431 44.4272C16.5769 44.4205 17.012 44.546 17.3934 44.788C17.7749 45.03 18.0855 45.3775 18.2859 45.7867C18.4864 46.1959 18.5678 46.6483 18.5197 47.0868C18.4717 47.5252 18.2964 47.93 18.0161 48.2499C17.7357 48.5699 17.3629 48.7906 16.9447 48.8842C16.667 48.9469 16.3761 48.9518 16.0886 48.8987C15.8011 48.8456 15.5226 48.7355 15.2692 48.5748C15.0158 48.414 14.7925 48.2058 14.612 47.9619C14.4315 47.7181 14.2973 47.4435 14.2173 47.1538ZM17.6854 46.3885C17.6097 46.1091 17.4561 45.8532 17.2439 45.6533C17.0318 45.4534 16.7707 45.3185 16.4939 45.2657C16.217 45.2128 15.9369 45.2445 15.689 45.3567C15.4411 45.4688 15.2366 45.6564 15.1015 45.8956C14.9664 46.1348 14.9068 46.4148 14.9302 46.7001C14.9536 46.9854 15.059 47.2631 15.233 47.498C15.407 47.7329 15.6417 47.9144 15.9074 48.0195C16.1731 48.1245 16.4578 48.1484 16.7254 48.088C17.0811 48.0071 17.3813 47.7833 17.561 47.4652C17.7407 47.1471 17.7854 46.7602 17.6854 46.3885Z" fill="white"/>
<path d="M13.6497 42.9459C13.6345 42.9462 13.6191 42.9434 13.6045 42.9377C13.5899 42.9319 13.5763 42.9234 13.5646 42.9125C13.5529 42.9016 13.5432 42.8886 13.5361 42.8742C13.529 42.8598 13.5247 42.8444 13.5233 42.8287L13.3684 41.0315C13.3351 40.6708 13.4424 40.3213 13.6667 40.06C13.8911 39.7986 14.2141 39.6467 14.5649 39.6377C14.8389 39.6409 15.1114 39.7294 15.3462 39.8914C15.5811 40.0535 15.7672 40.2815 15.88 40.5452L17.3588 39.656C17.3758 39.644 17.3959 39.6373 17.4171 39.6365C17.4383 39.6358 17.4597 39.641 17.4789 39.6517C17.4982 39.6624 17.5146 39.6781 17.5263 39.6971C17.538 39.7162 17.5446 39.7377 17.5453 39.7595L17.6022 40.4194C17.605 40.4397 17.6022 40.4601 17.594 40.4781C17.5858 40.4961 17.5725 40.511 17.5559 40.521L16.0076 41.3862L16.0677 42.0837L17.6269 42.0553C17.6575 42.0558 17.6875 42.0682 17.711 42.09C17.7344 42.1117 17.7496 42.1412 17.7533 42.1725L17.8032 42.7507C17.8045 42.7664 17.8029 42.782 17.7983 42.7966C17.7937 42.8112 17.7863 42.8245 17.7764 42.8357C17.7666 42.847 17.7545 42.856 17.741 42.8623C17.7274 42.8685 17.7126 42.8719 17.6973 42.8721L13.6497 42.9459ZM15.3247 41.0651C15.3058 40.8984 15.2244 40.7412 15.0979 40.6272C14.9714 40.5131 14.8098 40.4511 14.6475 40.4543C14.4897 40.4613 14.3451 40.5313 14.2444 40.6494C14.1436 40.7676 14.0947 40.9246 14.108 41.0873L14.1962 42.1115L15.413 42.0893L15.3247 41.0651Z" fill="white"/>
<path d="M13.8168 35.4699C13.8017 35.4664 13.7872 35.46 13.7742 35.451C13.7611 35.442 13.7497 35.4305 13.7407 35.4173C13.7316 35.4041 13.7251 35.3893 13.7215 35.3739C13.7178 35.3585 13.7172 35.3427 13.7195 35.3275L14.0952 32.839C14.0999 32.8082 14.1165 32.7814 14.1414 32.7645C14.1662 32.7476 14.1973 32.742 14.2279 32.749L14.7241 32.8623C14.7393 32.8657 14.7538 32.8721 14.7668 32.8811C14.7799 32.8901 14.7913 32.9016 14.8004 32.9148C14.8094 32.928 14.816 32.9428 14.8196 32.9582C14.8233 32.9736 14.8239 32.9894 14.8216 33.0046L14.5482 34.8143L15.5408 35.0407L15.769 33.5306C15.7747 33.5004 15.7915 33.4743 15.8161 33.4576C15.8407 33.4409 15.8712 33.4348 15.9015 33.4406L16.404 33.5552C16.4191 33.5586 16.4336 33.565 16.4467 33.5741C16.4597 33.5831 16.4711 33.5945 16.4802 33.6077C16.4892 33.621 16.4957 33.6357 16.4994 33.6511C16.503 33.6666 16.5037 33.6823 16.5013 33.6976L16.2733 35.2078L17.3325 35.4492L17.6059 33.6395C17.6082 33.6243 17.6134 33.6098 17.6213 33.5971C17.6292 33.5843 17.6396 33.5734 17.6519 33.565C17.6642 33.5567 17.6782 33.551 17.693 33.5484C17.7079 33.5457 17.7233 33.5461 17.7384 33.5495L18.2348 33.6628C18.2499 33.6662 18.2644 33.6726 18.2775 33.6817C18.2905 33.6907 18.3019 33.7021 18.311 33.7153C18.32 33.7286 18.3265 33.7433 18.3302 33.7587C18.3338 33.7741 18.3345 33.7899 18.3321 33.8052L17.9564 36.2936C17.9541 36.3089 17.9488 36.3233 17.9409 36.3361C17.933 36.3489 17.9226 36.3598 17.9103 36.3681C17.8979 36.3765 17.8839 36.3822 17.8691 36.3848C17.8542 36.3874 17.8388 36.387 17.8237 36.3835L13.8168 35.4699Z" fill="white"/>
<path d="M14.7374 31.3839C14.7183 31.3861 14.6986 31.3828 14.6804 31.3746C14.6622 31.3663 14.6462 31.3532 14.634 31.3369C14.6219 31.3205 14.6141 31.3014 14.6114 31.2815C14.6087 31.2616 14.6113 31.2418 14.6189 31.224L14.8127 30.6335C14.8194 30.6125 14.8321 30.5945 14.8492 30.5816C14.8663 30.5687 14.8871 30.5616 14.909 30.5609L17.7699 30.4642L17.7832 30.4236L15.6522 28.2967C15.6358 28.2806 15.624 28.2602 15.6184 28.2381C15.6128 28.216 15.6136 28.1932 15.6207 28.1724L15.8144 27.5817C15.8189 27.5627 15.8284 27.5457 15.842 27.5324C15.8555 27.5192 15.8726 27.5102 15.8914 27.5064C15.9102 27.5026 15.9299 27.5041 15.9487 27.5109C15.9674 27.5176 15.9843 27.5293 15.9977 27.5447L19.315 30.9283C19.3317 30.9443 19.3436 30.9647 19.3493 30.9869C19.3549 31.0091 19.354 31.0321 19.3466 31.0528L19.3275 31.1108C19.3212 31.1319 19.3086 31.1501 19.2914 31.163C19.2743 31.1759 19.2534 31.183 19.2314 31.1832L14.7374 31.3839Z" fill="white"/>
<path d="M16.856 25.9566C16.8287 25.9401 16.8082 25.9136 16.799 25.883C16.7898 25.8524 16.7926 25.8201 16.8069 25.7933L17.9578 23.6284C17.9649 23.6152 17.9745 23.6036 17.9862 23.5945C17.9978 23.5853 18.0113 23.5788 18.0259 23.5752C18.0404 23.5715 18.0557 23.571 18.0708 23.5734C18.086 23.5759 18.1008 23.5814 18.1143 23.5896L18.5578 23.8585C18.5713 23.8667 18.5832 23.8774 18.593 23.8901C18.6028 23.9027 18.6101 23.917 18.6147 23.9322C18.6192 23.9474 18.6209 23.9631 18.6195 23.9785C18.6181 23.9939 18.6138 24.0087 18.6067 24.0219L17.7697 25.5964L18.6566 26.1341L19.3551 24.8203C19.3701 24.7943 19.3946 24.7758 19.4236 24.7686C19.4527 24.7614 19.4841 24.766 19.5116 24.7814L19.9604 25.0536C19.9739 25.0618 19.9859 25.0725 19.9957 25.0852C20.0054 25.0978 20.0128 25.1121 20.0174 25.1273C20.0219 25.1425 20.0235 25.1582 20.0222 25.1736C20.0208 25.189 20.0165 25.2038 20.0094 25.217L19.311 26.5308L20.2574 27.1046L21.0944 25.5302C21.1014 25.5169 21.1111 25.5053 21.1228 25.4962C21.1345 25.4871 21.148 25.4805 21.1625 25.4769C21.177 25.4733 21.1923 25.4728 21.2075 25.4752C21.2227 25.4777 21.2374 25.4832 21.2509 25.4914L21.6943 25.7602C21.7078 25.7684 21.7198 25.7791 21.7296 25.7918C21.7393 25.8044 21.7467 25.8187 21.7513 25.8339C21.7558 25.8491 21.7574 25.8648 21.7561 25.8802C21.7547 25.8956 21.7504 25.9104 21.7433 25.9236L20.5925 28.0884C20.5854 28.1017 20.5758 28.1132 20.5641 28.1223C20.5524 28.1315 20.5389 28.138 20.5244 28.1416C20.5098 28.1452 20.4945 28.1458 20.4794 28.1433C20.4642 28.1408 20.4494 28.1353 20.436 28.1271L16.856 25.9566Z" fill="white"/>
<path d="M19.3479 21.8852C19.3358 21.8749 19.3255 21.8625 19.3178 21.8485C19.3101 21.8345 19.3051 21.8193 19.303 21.8037C19.3009 21.7881 19.3018 21.7725 19.3056 21.7577C19.3095 21.7429 19.3162 21.7293 19.3254 21.7175L20.3801 20.3715C20.59 20.0997 20.9028 19.9322 21.2499 19.9058C21.597 19.8794 21.9498 19.9963 22.231 20.2307C22.4439 20.4209 22.5997 20.6688 22.6779 20.9418C22.7561 21.2147 22.7529 21.4998 22.6688 21.7591L24.4109 22.1601C24.432 22.1635 24.4523 22.1726 24.4694 22.1867C24.4865 22.2007 24.4998 22.219 24.5079 22.2396C24.516 22.2602 24.5186 22.2823 24.5154 22.3034C24.5121 22.3246 24.5032 22.344 24.4895 22.3596L24.1022 22.8539C24.0911 22.8698 24.0755 22.8819 24.0573 22.8886C24.0391 22.8954 24.019 22.8966 23.9994 22.8921L22.2185 22.4269L21.8092 22.9493L23.0509 23.9992C23.0746 24.0205 23.0901 24.0497 23.0943 24.0808C23.0984 24.112 23.091 24.1427 23.0735 24.1669L22.7342 24.5998C22.725 24.6116 22.7135 24.6212 22.7004 24.6282C22.6872 24.6351 22.6727 24.6392 22.6575 24.6403C22.6424 24.6413 22.6271 24.6393 22.6123 24.6343C22.5976 24.6293 22.5837 24.6214 22.5716 24.6111L19.3479 21.8852ZM21.893 21.7367C21.9872 21.6088 22.0262 21.4445 22.0016 21.279C21.977 21.1136 21.8908 20.9599 21.7614 20.8508C21.633 20.7473 21.4738 20.6964 21.3174 20.7088C21.1611 20.7212 21.0199 20.796 20.924 20.9174L20.3228 21.6845L21.2918 22.5039L21.893 21.7367Z" fill="white"/>
<path d="M24.8322 19.1082L22.4301 18.398C22.4097 18.3921 22.3909 18.3805 22.3758 18.3646C22.3607 18.3487 22.35 18.3291 22.3448 18.3081C22.3395 18.287 22.3401 18.2653 22.3463 18.2454C22.3525 18.2254 22.3641 18.208 22.3799 18.1952L22.8308 17.7927C22.8454 17.7806 22.8628 17.7725 22.8816 17.7691C22.9005 17.7656 22.9202 17.7669 22.939 17.7729L24.6065 18.2502L24.3538 16.5103C24.3504 16.4905 24.3516 16.4705 24.3574 16.452C24.3632 16.4335 24.3734 16.417 24.3871 16.4039L24.8424 15.9975C24.857 15.9833 24.8754 15.9738 24.8957 15.9701C24.916 15.9664 24.9373 15.9686 24.9573 15.9766C24.9772 15.9845 24.9949 15.9978 25.0085 16.0151C25.0221 16.0323 25.031 16.0527 25.0342 16.0741L25.4027 18.5904L26.7342 20.1278C26.7543 20.1525 26.765 20.1834 26.7641 20.2144C26.7632 20.2453 26.7509 20.2739 26.7295 20.2943L26.3228 20.6574C26.3118 20.6673 26.2988 20.6747 26.2847 20.6792C26.2705 20.6837 26.2554 20.6852 26.2402 20.6837C26.225 20.6821 26.2101 20.6776 26.1962 20.6702C26.1824 20.6628 26.1699 20.6529 26.1595 20.6408L24.8322 19.1082Z" fill="white"/>
<path d="M28.3099 13.824C28.2943 13.796 28.2898 13.7637 28.2974 13.734C28.3049 13.7043 28.3239 13.6798 28.3501 13.6658L28.8286 13.4096C28.8551 13.3966 28.8861 13.3948 28.9154 13.4046C28.9446 13.4144 28.97 13.4349 28.9863 13.4622L30.7193 16.5734L32.0459 15.8634C32.0589 15.8565 32.0733 15.8523 32.0882 15.8512C32.1032 15.8501 32.1184 15.8521 32.133 15.857C32.1477 15.8618 32.1614 15.8696 32.1735 15.8797C32.1856 15.8899 32.1957 15.9022 32.2034 15.9161L32.4567 16.3708C32.4645 16.3846 32.4696 16.3997 32.4717 16.4151C32.4739 16.4306 32.4731 16.4461 32.4694 16.4608C32.4657 16.4755 32.4591 16.4891 32.45 16.5008C32.441 16.5125 32.4296 16.5221 32.4166 16.5291L30.5126 17.548C30.4996 17.5549 30.4852 17.5591 30.4703 17.5602C30.4554 17.5614 30.4401 17.5594 30.4255 17.5546C30.4109 17.5497 30.3971 17.542 30.385 17.5318C30.3729 17.5217 30.3627 17.5094 30.355 17.4955L28.3099 13.824Z" fill="white"/>
<path d="M31.9638 12.0434C31.9526 12.0143 31.9523 11.9827 31.9628 11.9549C31.9734 11.9271 31.9941 11.9053 32.0208 11.8938L32.5251 11.6977C32.5525 11.6882 32.5832 11.6901 32.6109 11.703C32.6386 11.7159 32.6613 11.7389 32.6743 11.7673L34.2815 15.5874C34.2927 15.6165 34.2931 15.6481 34.2825 15.6759C34.272 15.7037 34.2513 15.7256 34.2247 15.7371L33.7202 15.9331C33.6928 15.9427 33.6621 15.9408 33.6344 15.9279C33.6068 15.915 33.5841 15.892 33.5712 15.8636L31.9638 12.0434Z" fill="white"/>
<path d="M35.4213 11.4657L34.537 11.6872C34.5226 11.6908 34.5074 11.6914 34.4923 11.689C34.4773 11.6866 34.4626 11.6811 34.4492 11.673C34.4358 11.6649 34.4239 11.6543 34.4142 11.6418C34.4044 11.6292 34.3971 11.615 34.3926 11.5999L34.2429 11.1043C34.2384 11.0893 34.2367 11.0736 34.238 11.0583C34.2393 11.043 34.2436 11.0283 34.2505 11.0151C34.2575 11.0019 34.2671 10.9904 34.2787 10.9813C34.2902 10.9722 34.3036 10.9657 34.3181 10.9621L36.8439 10.3296C36.8583 10.3259 36.8735 10.3253 36.8886 10.3277C36.9037 10.3301 36.9183 10.3356 36.9317 10.3437C36.9452 10.3518 36.9571 10.3624 36.9668 10.375C36.9765 10.3875 36.9838 10.4017 36.9884 10.4168L37.1381 10.9123C37.1427 10.9274 37.1443 10.9431 37.143 10.9584C37.1417 10.9737 37.1374 10.9884 37.1305 11.0016C37.1235 11.0148 37.1139 11.0263 37.1023 11.0354C37.0907 11.0445 37.0773 11.0511 37.0629 11.0547L36.1786 11.2761L37.202 14.6659C37.2102 14.6963 37.2069 14.7279 37.1929 14.7544C37.179 14.7808 37.1553 14.8001 37.1268 14.8083L36.5893 14.943C36.5602 14.9492 36.529 14.9436 36.5022 14.9274C36.4754 14.9111 36.4549 14.8855 36.4448 14.8556L35.4213 11.4657Z" fill="white"/>
<path d="M39.4723 10.5964L38.5575 10.6855C38.5426 10.687 38.5273 10.6854 38.5126 10.6808C38.4978 10.6763 38.4839 10.6689 38.4716 10.659C38.4593 10.6491 38.4488 10.637 38.4408 10.6233C38.4328 10.6096 38.4274 10.5946 38.4249 10.5791L38.3435 10.0718C38.341 10.0564 38.3415 10.0408 38.3449 10.026C38.3483 10.0112 38.3546 9.99744 38.3634 9.98551C38.3722 9.97357 38.3834 9.96369 38.3962 9.95645C38.409 9.94921 38.4233 9.94474 38.4382 9.94329L41.0513 9.68855C41.0663 9.68709 41.0815 9.68868 41.0963 9.69324C41.111 9.6978 41.1249 9.70524 41.1372 9.71513C41.1495 9.72502 41.1599 9.73716 41.1679 9.75086C41.1759 9.76457 41.1813 9.77957 41.1838 9.795L41.2653 10.3022C41.2678 10.3177 41.2673 10.3333 41.2639 10.3481C41.2605 10.3629 41.2542 10.3767 41.2454 10.3887C41.2366 10.4006 41.2254 10.4105 41.2126 10.4177C41.1997 10.425 41.1854 10.4294 41.1705 10.4308L40.2557 10.5199L40.8127 13.9901C40.8167 14.0211 40.8091 14.0516 40.7915 14.0754C40.7739 14.0993 40.7476 14.1148 40.7179 14.1187L40.1618 14.173C40.1319 14.1749 40.1015 14.1649 40.0769 14.1451C40.0523 14.1254 40.0354 14.0973 40.0294 14.0665L39.4723 10.5964Z" fill="white"/>
<path d="M42.8951 9.68717C42.8947 9.67173 42.8973 9.65658 42.9027 9.64258C42.9081 9.62857 42.9162 9.616 42.9266 9.60557C42.9369 9.59515 42.9494 9.58707 42.9631 9.58181C42.9769 9.57655 42.9917 9.5742 43.0068 9.57491L43.5613 9.60043C43.5913 9.60287 43.6202 9.61689 43.642 9.63966C43.6638 9.66243 43.6769 9.69226 43.6787 9.72312L43.7658 13.1922L45.3028 13.2629C45.3178 13.2636 45.3328 13.2673 45.3468 13.2739C45.3609 13.2804 45.3737 13.2896 45.3846 13.301C45.3955 13.3124 45.4043 13.3257 45.4104 13.3403C45.4165 13.3548 45.4199 13.3702 45.4202 13.3856L45.4329 13.8927C45.4333 13.9081 45.4308 13.9233 45.4254 13.9373C45.42 13.9512 45.4119 13.9638 45.4015 13.9742C45.3912 13.9847 45.3788 13.9927 45.365 13.998C45.3513 14.0032 45.3364 14.0056 45.3214 14.0049L43.1155 13.9034C43.1004 13.9027 43.0855 13.899 43.0714 13.8924C43.0574 13.8859 43.0445 13.8766 43.0336 13.8652C43.0227 13.8538 43.0139 13.8405 43.0078 13.8259C43.0017 13.8114 42.9983 13.796 42.998 13.7805L42.8951 9.68717Z" fill="white"/>
<path d="M47.1003 9.83695C47.1021 9.82164 47.1069 9.80707 47.1144 9.79407C47.1219 9.78106 47.1319 9.76988 47.1439 9.76117C47.1559 9.75245 47.1696 9.74637 47.1843 9.74328C47.199 9.74018 47.2143 9.74013 47.2295 9.74312L49.6948 10.2292C49.7253 10.2352 49.7531 10.2532 49.7721 10.2793C49.791 10.3054 49.7996 10.3374 49.7959 10.3684L49.735 10.8713C49.7332 10.8866 49.7284 10.9012 49.7209 10.9142C49.7134 10.9272 49.7034 10.9384 49.6914 10.9471C49.6794 10.9558 49.6657 10.9618 49.6511 10.9649C49.6364 10.968 49.6211 10.9681 49.606 10.9651L47.8129 10.6116L47.6913 11.6175L49.1876 11.9125C49.2177 11.9195 49.2448 11.9377 49.2636 11.9635C49.2823 11.9894 49.2913 12.0209 49.2886 12.0516L49.2271 12.5607C49.2253 12.576 49.2205 12.5906 49.213 12.6036C49.2055 12.6166 49.1955 12.6278 49.1835 12.6365C49.1715 12.6452 49.1577 12.6513 49.1431 12.6544C49.1284 12.6575 49.1131 12.6575 49.0979 12.6546L47.6017 12.3597L47.472 13.4329L49.265 13.7863C49.2802 13.7893 49.2948 13.7953 49.308 13.8039C49.3213 13.8125 49.333 13.8236 49.3424 13.8365C49.3517 13.8494 49.3587 13.864 49.3627 13.8792C49.3668 13.8945 49.3679 13.9103 49.366 13.9256L49.3053 14.4285C49.3035 14.4438 49.2987 14.4584 49.2912 14.4714C49.2837 14.4844 49.2737 14.4955 49.2617 14.5042C49.2497 14.5129 49.236 14.519 49.2213 14.5221C49.2067 14.5252 49.1913 14.5253 49.1762 14.5223L46.7108 14.0363C46.6957 14.0333 46.681 14.0274 46.6678 14.0188C46.6545 14.0101 46.6428 13.9991 46.6335 13.9861C46.6241 13.9732 46.6172 13.9587 46.6131 13.9434C46.609 13.9281 46.6079 13.9123 46.6098 13.897L47.1003 9.83695Z" fill="white"/>
<path d="M54.1731 12.271L53.2907 11.8871C53.2763 11.8809 53.2631 11.8718 53.2518 11.8606C53.2404 11.8493 53.2312 11.836 53.2246 11.8215C53.2181 11.8069 53.2143 11.7914 53.2135 11.7757C53.2127 11.7601 53.215 11.7447 53.2201 11.7304L53.3882 11.2597C53.3933 11.2454 53.4011 11.2324 53.4114 11.2216C53.4216 11.2107 53.434 11.2022 53.4478 11.1965C53.4615 11.1908 53.4765 11.188 53.4918 11.1883C53.507 11.1887 53.5223 11.192 53.5367 11.1983L56.0566 12.2944C56.071 12.3007 56.0842 12.3097 56.0956 12.321C56.1069 12.3322 56.1161 12.3455 56.1227 12.3601C56.1292 12.3747 56.133 12.3902 56.1338 12.4058C56.1346 12.4214 56.1324 12.4369 56.1272 12.4512L55.9592 12.9218C55.9541 12.9362 55.9462 12.9491 55.936 12.96C55.9257 12.9708 55.9134 12.9793 55.8996 12.985C55.8858 12.9907 55.8708 12.9935 55.8556 12.9932C55.8403 12.9929 55.8251 12.9895 55.8107 12.9832L54.9285 12.5995L53.7793 15.8199C53.7681 15.8481 53.7465 15.8702 53.719 15.8816C53.6914 15.893 53.6599 15.8929 53.6308 15.8813L53.0946 15.6481C53.0661 15.6347 53.043 15.611 53.0299 15.5819C53.0168 15.5528 53.0146 15.5204 53.0239 15.4914L54.1731 12.271Z" fill="white"/>
<path d="M57.7053 13.1136C57.7211 13.088 57.7462 13.0703 57.7756 13.0639C57.8049 13.0575 57.8364 13.063 57.8635 13.0792L58.3605 13.3983C58.3739 13.4068 58.3856 13.4179 58.3951 13.4308C58.4045 13.4437 58.4116 13.4582 58.4157 13.4735C58.4199 13.4888 58.4211 13.5045 58.4193 13.5199C58.4176 13.5352 58.4128 13.5499 58.4053 13.5629L57.6152 14.9521L59.3574 16.0705L60.1476 14.6815C60.155 14.6683 60.1649 14.657 60.1769 14.6482C60.1889 14.6394 60.2026 14.6332 60.2173 14.63C60.232 14.6268 60.2474 14.6266 60.2626 14.6296C60.2777 14.6325 60.2924 14.6384 60.3057 14.647L60.7974 14.9625C60.8235 14.9805 60.8427 15.0076 60.851 15.0382C60.8593 15.0688 60.8561 15.1007 60.8421 15.1274L58.8685 18.5975C58.8527 18.623 58.8276 18.6408 58.7983 18.6472C58.7689 18.6536 58.7375 18.6481 58.7103 18.6319L58.2186 18.3162C58.1917 18.2989 58.1719 18.2719 58.1634 18.241C58.155 18.2101 58.1587 18.1779 58.1737 18.1515L58.9966 16.7047L57.2545 15.5864L56.4316 17.0331C56.4242 17.0462 56.4142 17.0574 56.4022 17.0663C56.3902 17.0751 56.3765 17.0813 56.3618 17.0845C56.3471 17.0877 56.3317 17.0878 56.3166 17.0849C56.3014 17.082 56.2867 17.0761 56.2734 17.0675L55.7764 16.7485C55.7503 16.7305 55.7311 16.7035 55.7228 16.6729C55.7145 16.6423 55.7176 16.6105 55.7315 16.5837L57.7053 13.1136Z" fill="white"/>
<path d="M62.5701 16.4007C62.5897 16.3779 62.6176 16.3641 62.6481 16.3622C62.6786 16.3604 62.7095 16.3706 62.7345 16.3908L63.1897 16.7819C63.2135 16.8036 63.2289 16.8333 63.2329 16.8648C63.2369 16.8964 63.2291 16.9275 63.2111 16.9518L60.7183 20.0852C60.6987 20.1081 60.6708 20.1219 60.6403 20.1237C60.6098 20.1256 60.5789 20.1155 60.5538 20.0953L60.0987 19.704C60.075 19.6823 60.0595 19.6527 60.0555 19.6211C60.0516 19.5896 60.0594 19.5586 60.0773 19.5343L62.5701 16.4007Z" fill="white"/>
<path d="M64.8716 18.3091C64.894 18.2904 64.9232 18.282 64.9531 18.2855C64.983 18.2891 65.0112 18.3043 65.0317 18.3281L65.138 18.4483L64.9581 22.2263L64.9623 22.2312L66.7827 20.5698C66.8049 20.5496 66.8347 20.5398 66.8655 20.5426C66.8964 20.5454 66.9257 20.5606 66.9471 20.5848L67.3382 21.0272C67.3587 21.0518 67.3697 21.0829 67.3692 21.114C67.3686 21.1452 67.3565 21.1741 67.3353 21.195L64.3688 23.9021C64.3464 23.9207 64.3172 23.9292 64.2873 23.9256C64.2574 23.9221 64.2293 23.9069 64.2087 23.8832L64.1067 23.7677L64.3532 19.9116L64.3488 19.9068L62.4535 21.6364C62.4425 21.6465 62.4295 21.654 62.4153 21.6587C62.4011 21.6634 62.3859 21.6651 62.3706 21.6637C62.3554 21.6623 62.3403 21.6579 62.3263 21.6506C62.3123 21.6434 62.2996 21.6335 62.289 21.6215L61.9023 21.1839C61.8818 21.1593 61.8707 21.1283 61.8712 21.0971C61.8718 21.0659 61.884 21.037 61.9053 21.0162L64.8716 18.3091Z" fill="white"/>
<path d="M69.8277 24.6084C70.1217 25.1048 70.2405 25.6798 70.1627 26.2306C70.1603 26.2466 70.1546 26.2618 70.1462 26.2751C70.1377 26.2884 70.1265 26.2996 70.1134 26.308C70.1002 26.3164 70.0853 26.3219 70.0696 26.3242C70.0539 26.3264 70.0377 26.3253 70.0219 26.3209L69.4812 26.1774C69.4661 26.1744 69.4517 26.168 69.4389 26.1588C69.4261 26.1496 69.4151 26.1378 69.4069 26.1242C69.3987 26.1107 69.3933 26.0956 69.3911 26.0801C69.389 26.0646 69.3901 26.0491 69.3945 26.0346C69.4477 25.6938 69.3747 25.3359 69.1894 25.0294C68.9804 24.7046 68.6613 24.4674 68.2999 24.3684C67.9386 24.2694 67.5637 24.3164 67.255 24.4993C66.9464 24.6823 66.7284 24.9867 66.6475 25.3479C66.5666 25.709 66.6293 26.0982 66.8221 26.4326C66.9608 26.656 67.1393 26.8523 67.3472 27.0104L67.7843 26.7528L67.5177 26.3133C67.509 26.3003 67.5028 26.2857 67.4996 26.2706C67.4964 26.2554 67.4961 26.2399 67.4988 26.2251C67.5016 26.2103 67.5073 26.1964 67.5155 26.1842C67.5238 26.1721 67.5345 26.162 67.547 26.1545L67.9533 25.9149C67.9659 25.9068 67.9803 25.9016 67.9954 25.8996C68.0105 25.8975 68.0261 25.8987 68.0412 25.9031C68.0563 25.9075 68.0706 25.9149 68.0832 25.925C68.0958 25.935 68.1063 25.9475 68.1143 25.9616L68.7542 27.0162C68.7694 27.0436 68.7739 27.0753 68.7669 27.1046C68.7598 27.1338 68.7418 27.1582 68.7164 27.1727L67.3999 27.9489C67.3841 27.9587 67.3659 27.9642 67.3469 27.965C67.328 27.9658 67.3087 27.9618 67.291 27.9535C66.8194 27.6669 66.4196 27.2656 66.1302 26.7884C65.814 26.2648 65.7052 25.6486 65.8277 25.0749C65.9502 24.5012 66.294 24.0169 66.7836 23.7282C67.2732 23.4396 67.8686 23.3701 68.4393 23.5351C69.01 23.7001 69.5093 24.0861 69.8277 24.6084L69.8277 24.6084Z" fill="white"/>
<path d="M19.3789 57.2241C23.8283 63.1874 30.0913 67.4852 37.076 69.3684C44.0606 71.2516 51.3239 70.6007 57.5995 67.5291C63.8751 64.4575 68.7649 59.1601 71.4163 52.5605C74.0678 45.9608 74.3128 38.4776 72.1087 31.4155" stroke="white" stroke-width="0.789352" stroke-miterlimit="10"/>
<path d="M68.247 33.4067C69.9186 39.3651 69.5735 45.6092 67.2693 51.0958C64.9651 56.5823 60.8414 60.979 55.5871 63.5514C50.3328 66.1237 44.2662 66.7159 38.4007 65.229C32.5352 63.7421 27.2261 60.2661 23.3604 55.3818" stroke="white" stroke-width="0.789352" stroke-miterlimit="10"/>
<path d="M38.217 40.6575C38.2495 40.6882 38.313 40.7267 38.3088 40.7476C38.0548 42.0197 38.8572 42.7872 39.6965 43.5515C41.2454 44.9708 43.0906 45.9999 45.0695 46.5479C46.0377 46.8198 46.7154 46.475 46.9883 45.6169C47.2008 44.9489 47.0761 44.7482 46.4036 44.4279C44.8638 43.6944 43.3256 42.9547 41.8089 42.1691C41.1525 41.8291 40.561 41.3506 39.9208 40.9709C39.4628 40.6993 38.9728 40.4875 38.5161 40.2585C38.2096 39.8237 37.8711 39.4126 37.5038 39.0289C35.9171 37.5777 34.9956 35.8801 35.4474 33.7539C35.6434 32.9931 35.9653 32.279 36.3997 31.6412C36.747 31.0891 37.0487 31.1819 37.4154 31.7608C38.3808 33.285 39.8148 34.2847 41.2367 35.2953C41.2906 35.3376 41.3505 35.3708 41.4139 35.3934C41.7477 35.4908 42.2348 35.7652 42.3874 35.6374C42.5727 35.4861 42.695 35.2689 42.7322 35.025C42.7693 34.7811 42.719 34.5264 42.5903 34.3067C41.7023 32.6944 40.2846 31.4351 38.6049 30.7667C38.3887 30.6734 38.1694 30.5883 37.9136 30.484C39.1718 29.3132 41.2836 28.8561 42.8869 29.5498C43.3704 29.7424 43.7878 30.0884 44.0747 30.5346C44.3615 30.9807 44.5018 31.5021 44.474 32.0183C44.4749 32.5756 44.3758 33.1223 44.1815 33.6314C43.8559 34.3611 43.4468 35.0451 42.9624 35.6701C42.6334 36.0952 42.6887 36.295 43.1301 36.5412C44.3695 37.2325 45.5987 37.9445 46.8438 38.6241C47.4292 38.9436 47.6287 38.8045 47.6642 38.1328C47.7177 37.1184 47.7191 36.0943 47.8434 35.0929C47.9605 34.1489 48.6933 33.7619 49.5253 33.623C50.606 33.4427 51.7535 34.8333 51.4765 35.9677C51.3734 36.3242 51.2272 36.6639 51.0412 36.9793C50.8437 37.3467 50.8969 37.5624 51.343 37.6372C51.4957 37.6628 51.6459 37.7102 51.7982 37.7416C54.5172 38.3024 55.6936 41.7676 53.9572 43.9115C53.3482 44.7058 52.4928 45.2638 51.5173 45.5033C50.5418 45.7427 49.4978 45.6509 48.5393 45.2413C47.7552 44.9245 47.4646 44.8757 47.215 45.897C46.7493 47.8024 45.422 48.9036 43.717 49.704C43.0716 50.044 42.3532 50.2331 41.6112 50.2583C40.8692 50.2835 40.121 50.1443 39.4179 49.8501C38.4176 49.4699 37.5595 48.7501 36.994 47.8169C36.4285 46.8837 36.1916 45.7965 36.3249 44.7459C36.491 43.2826 37.0588 41.9206 37.964 40.8139C38.0025 40.762 38.047 40.715 38.0965 40.6739C38.1253 40.653 38.1756 40.6617 38.217 40.6575ZM49.864 37.0639C49.8397 36.9357 49.7873 36.8131 49.7107 36.7055C49.6342 36.5978 49.5356 36.508 49.4224 36.4429C49.3093 36.3777 49.1845 36.3389 49.0577 36.3295C48.9309 36.3201 48.8054 36.3402 48.6908 36.3884C47.8388 36.7135 47.518 38.8825 48.3093 39.4026C48.8826 39.753 49.5208 39.9652 50.1721 40.0221C50.474 40.0537 50.9197 39.6815 51.0728 39.3678C51.1152 39.1957 51.121 39.0144 51.09 38.8354C51.0591 38.6564 50.9919 38.4839 50.8929 38.3289C50.5842 37.8802 50.2399 37.457 49.864 37.0639Z" fill="white"/>
</svg>
