<svg width="375" height="195" viewBox="0 0 375 195" fill="none" xmlns="http://www.w3.org/2000/svg">
<g clip-path="url(#clip0)">
<path d="M0 0H375V195H0V0Z" fill="#9DBAE5"/>
<path d="M-6.82638 159.262C-15.5474 166.265 -48.7703 150.158 -48.7703 164.865C-51.262 176.07 -32.9894 181.673 -18.0391 184.474C-3.0888 187.275 27.6424 184.124 36.7786 155.76C45.9149 127.397 15.5991 114.441 -1.42766 124.245C-18.4544 134.05 1.89463 152.259 -6.82638 159.262Z" stroke="white" stroke-linecap="round" stroke-linejoin="round"/>
<path d="M54.0437 195.76C35.6064 216.784 24.4953 201.155 15.745 210.991C6.9948 220.827 18.5759 233.605 48.0449 227.082C84.8812 218.929 91.369 195.283 95.9688 175.604C100.569 155.925 90.3515 142.731 77.5778 151.855C64.8042 160.979 72.481 174.735 54.0437 195.76Z" stroke="white" stroke-linecap="round" stroke-linejoin="round"/>
<path d="M332.823 221.713C311.544 237.677 334.619 248.166 358.821 231.457C383.023 214.749 390.506 190.956 377.66 178.26C364.814 165.564 347.456 192.966 335.523 180.187C323.589 167.408 339.021 152.932 325.237 143.51C311.454 134.087 282.671 153.604 274.601 159.439C266.532 165.274 273.196 175.665 289.651 170.181C306.105 164.697 303.273 176.909 300.757 195.308C298.241 213.707 314.509 208.718 332.441 200.869C350.373 193.019 354.102 205.749 332.823 221.713Z" stroke="white" stroke-linecap="round" stroke-linejoin="round"/>
<circle r="22.53" transform="matrix(0.907374 -0.420325 -0.420325 -0.907374 311.577 47.5769)" stroke="white"/>
<path d="M364.308 96.1515C369.966 69.2803 350.442 69.7849 353.012 57.1157C355.582 44.4465 373.084 45.9933 385.988 72.9628C402.118 106.675 386.961 125.717 373.853 140.938C360.745 156.159 343.747 155.928 343.256 140.522C342.766 125.117 358.651 123.023 364.308 96.1515Z" stroke="white" stroke-linecap="round" stroke-linejoin="round"/>
<circle r="22.53" transform="matrix(0.907374 -0.420325 -0.420325 -0.907374 85.5771 9.57695)" stroke="white"/>
<path d="M38.0478 66.0516C54.8475 81.699 67.4151 58.1918 49.9118 40.0538C32.4084 21.9158 6.37101 20.6892 -8.21832 35.3886C-22.8077 50.0881 6.81884 59.4702 -7.8248 73.3572C-22.4684 87.2442 -37.8606 76.5778 -48.8642 91.3623C-59.8677 106.147 -39.4439 127.801 -33.3151 133.787C-27.1864 139.772 -15.4056 131.252 -20.7986 117.538C-26.1917 103.824 -12.7859 103.534 7.48429 101.501C27.7545 99.4676 22.902 85.8071 14.95 71.3024C6.99796 56.7978 21.2482 50.4041 38.0478 66.0516Z" stroke="white" stroke-linecap="round" stroke-linejoin="round"/>
<circle r="22.53" transform="matrix(0.907374 -0.420325 -0.420325 -0.907374 359.577 2.57695)" stroke="white"/>
</g>
<defs>
<clipPath id="clip0">
<rect width="375" height="195" fill="white"/>
</clipPath>
</defs>
</svg>
