<svg version="1.2" baseProfile="tiny-ps" xmlns="http://www.w3.org/2000/svg" viewBox="0 0 375 190" width="768" height="389">
	<title>Sec 1-svg</title>
	<defs>
		<clipPath clipPathUnits="userSpaceOnUse" id="cp1">
			<path d="M0 0L375 0L375 190L0 190L0 0Z" />
		</clipPath>
	</defs>
	<style>
		tspan { white-space:pre }
		.shp0 { fill: #9dbae5 } 
		.shp1 { fill: none;stroke: #ffffff;stroke-width: 1 } 
		.shp2 { fill: none;stroke: #ffffff;stroke-linecap:round;stroke-linejoin:round } 
		.shp3 { fill: #ffffff } 
		.shp4 { fill: none;stroke: #ffffff;stroke-width: 0.789 } 
	</style>
	<path id="Layer" class="shp0" d="M0 0L375 0L375 190L0 190L0 0Z" />
	<g id="Clip-Path" clip-path="url(#cp1)">
		<g id="Layer">
			<g id="Layer" style="opacity: 0.8">
				<path id="Layer" class="shp1" d="M22.44 30.11C44.77 19.77 54.45 -6.64 44.11 -28.96C33.77 -51.29 7.36 -60.98 -14.96 -50.63C-37.29 -40.29 -46.98 -13.89 -36.63 8.44C-26.29 30.77 0.11 40.45 22.44 30.11Z" />
				<path id="Layer" class="shp1" d="M57.44 256.11C79.77 245.77 89.45 219.36 79.11 197.04C68.77 174.71 42.36 165.02 20.04 175.37C-2.29 185.71 -11.98 212.11 -1.63 234.44C8.71 256.77 35.11 266.45 57.44 256.11Z" />
				<path id="Layer" class="shp2" d="M397.4 239.17C366.92 195.02 341.38 223.37 326.88 202.69C312.38 182.02 338.11 159.29 393.68 177.26C463.16 199.72 469.77 246.81 473.72 285.86C477.67 324.9 454.49 348.69 431.99 328.67C409.49 308.65 427.88 283.32 397.4 239.17Z" />
				<path id="Layer" class="shp2" d="M183.85 216.65C134.24 237.07 156.53 268.04 133.25 277.83C109.97 287.61 93.21 257.65 122.56 207.15C159.25 144.02 206.67 147.55 245.67 151.97C284.66 156.39 302.99 184.09 278.65 201.83C254.32 219.57 233.46 196.22 183.85 216.65Z" />
				<path id="Layer" class="shp2" d="M359.32 -7.17C409.12 -22.05 373.91 -56.87 318.25 -42.6C262.59 -28.32 232.8 10.24 247.77 42.19C262.74 74.14 313.07 35.64 326.31 67.13C339.55 98.62 301.48 114.73 320.38 141.32C339.28 167.91 405.23 151.58 423.97 146.34C442.71 141.09 437.51 117.54 403.64 116.47C369.77 115.41 383.21 94.94 400.26 62.91C417.31 30.88 384.11 29.03 345.94 31.3C307.76 33.58 309.53 7.72 359.32 -7.17Z" />
				<path id="Layer" class="shp2" d="M172.84 -44.2C208.86 -85.27 230.57 -54.74 247.66 -73.96C264.76 -93.17 242.13 -118.14 184.56 -105.39C112.59 -89.46 99.91 -43.27 90.93 -4.82C81.94 33.63 101.9 59.41 126.86 41.58C151.81 23.75 136.82 -3.12 172.84 -44.2Z" />
			</g>
			<path id="Layer" class="shp3" d="M22.67 82.34C22.65 82.35 22.64 82.35 22.62 82.35C22.61 82.35 22.59 82.35 22.58 82.34C22.56 82.34 22.55 82.33 22.54 82.32C22.53 82.31 22.52 82.29 22.51 82.28L21.4 79.9C21.4 79.88 21.39 79.87 21.39 79.85C21.39 79.84 21.39 79.82 21.4 79.81C21.4 79.79 21.41 79.78 21.42 79.77C21.43 79.76 21.44 79.75 21.46 79.74L21.91 79.55C21.94 79.53 21.97 79.53 22 79.55C22.03 79.56 22.05 79.58 22.07 79.61L22.87 81.34L23.91 80.89L23.24 79.45C23.23 79.42 23.22 79.39 23.23 79.36C23.24 79.33 23.26 79.31 23.29 79.29L23.74 79.1C23.77 79.09 23.8 79.09 23.83 79.1C23.86 79.11 23.89 79.14 23.9 79.16L24.57 80.61L25.97 80.01C26 79.99 26.03 80 26.06 80.01C26.09 80.02 26.11 80.04 26.13 80.07L26.38 80.61C26.39 80.62 26.39 80.64 26.39 80.66C26.39 80.67 26.39 80.69 26.39 80.7C26.38 80.72 26.37 80.73 26.36 80.74C26.35 80.75 26.34 80.76 26.33 80.77L22.67 82.34Z" />
			<path id="Layer" fill-rule="evenodd" class="shp3" d="M20.22 76.15C20.1 75.72 20.1 75.26 20.23 74.85C20.36 74.44 20.62 74.08 20.96 73.83C21.3 73.57 21.71 73.43 22.14 73.43C22.58 73.42 23.01 73.55 23.39 73.79C23.77 74.03 24.09 74.38 24.29 74.79C24.49 75.2 24.57 75.65 24.52 76.09C24.47 76.53 24.3 76.93 24.02 77.25C23.74 77.57 23.36 77.79 22.94 77.88C22.67 77.95 22.38 77.95 22.09 77.9C21.8 77.85 21.52 77.74 21.27 77.57C21.02 77.41 20.79 77.21 20.61 76.96C20.43 76.72 20.3 76.44 20.22 76.15ZM23.69 75.39C23.61 75.11 23.46 74.85 23.24 74.65C23.03 74.45 22.77 74.32 22.49 74.27C22.22 74.21 21.94 74.24 21.69 74.36C21.44 74.47 21.24 74.66 21.1 74.9C20.97 75.13 20.91 75.41 20.93 75.7C20.95 75.99 21.06 76.26 21.23 76.5C21.41 76.73 21.64 76.91 21.91 77.02C22.17 77.12 22.46 77.15 22.73 77.09C23.08 77.01 23.38 76.78 23.56 76.47C23.74 76.15 23.79 75.76 23.69 75.39Z" />
			<path id="Layer" fill-rule="evenodd" class="shp3" d="M19.65 71.95C19.63 71.95 19.62 71.94 19.6 71.94C19.59 71.93 19.58 71.92 19.56 71.91C19.55 71.9 19.54 71.89 19.54 71.87C19.53 71.86 19.52 71.84 19.52 71.83L19.37 70.03C19.34 69.67 19.44 69.32 19.67 69.06C19.89 68.8 20.21 68.65 20.56 68.64C20.84 68.64 21.11 68.73 21.35 68.89C21.58 69.05 21.77 69.28 21.88 69.55L23.36 68.66C23.38 68.64 23.4 68.64 23.42 68.64C23.44 68.64 23.46 68.64 23.48 68.65C23.5 68.66 23.51 68.68 23.53 68.7C23.54 68.72 23.54 68.74 23.55 68.76L23.6 69.42C23.61 69.44 23.6 69.46 23.59 69.48C23.59 69.5 23.57 69.51 23.56 69.52L22.01 70.39L22.07 71.08L23.63 71.06C23.66 71.06 23.69 71.07 23.71 71.09C23.73 71.11 23.75 71.14 23.75 71.17L23.8 71.75C23.8 71.77 23.8 71.78 23.8 71.8C23.79 71.81 23.79 71.82 23.78 71.84C23.77 71.85 23.75 71.86 23.74 71.86C23.73 71.87 23.71 71.87 23.7 71.87L19.65 71.95ZM21.32 70.07C21.31 69.9 21.22 69.74 21.1 69.63C20.97 69.51 20.81 69.45 20.65 69.45C20.49 69.46 20.35 69.53 20.24 69.65C20.14 69.77 20.09 69.92 20.11 70.09L20.2 71.11L21.41 71.09L21.32 70.07Z" />
			<path id="Layer" class="shp3" d="M19.82 64.47C19.8 64.47 19.79 64.46 19.77 64.45C19.76 64.44 19.75 64.43 19.74 64.42C19.73 64.4 19.73 64.39 19.72 64.37C19.72 64.36 19.72 64.34 19.72 64.33L20.1 61.84C20.1 61.81 20.12 61.78 20.14 61.76C20.17 61.75 20.2 61.74 20.23 61.75L20.72 61.86C20.74 61.87 20.75 61.87 20.77 61.88C20.78 61.89 20.79 61.9 20.8 61.91C20.81 61.93 20.82 61.94 20.82 61.96C20.82 61.97 20.82 61.99 20.82 62L20.55 63.81L21.54 64.04L21.77 62.53C21.77 62.5 21.79 62.47 21.82 62.46C21.84 62.44 21.87 62.43 21.9 62.44L22.4 62.56C22.42 62.56 22.43 62.56 22.45 62.57C22.46 62.58 22.47 62.59 22.48 62.61C22.49 62.62 22.5 62.64 22.5 62.65C22.5 62.67 22.5 62.68 22.5 62.7L22.27 64.21L23.33 64.45L23.61 62.64C23.61 62.62 23.61 62.61 23.62 62.6C23.63 62.58 23.64 62.57 23.65 62.56C23.66 62.56 23.68 62.55 23.69 62.55C23.71 62.55 23.72 62.55 23.74 62.55L24.23 62.66C24.25 62.67 24.26 62.67 24.28 62.68C24.29 62.69 24.3 62.7 24.31 62.72C24.32 62.73 24.33 62.74 24.33 62.76C24.33 62.77 24.33 62.79 24.33 62.81L23.96 65.29C23.95 65.31 23.95 65.32 23.94 65.34C23.93 65.35 23.92 65.36 23.91 65.37C23.9 65.38 23.88 65.38 23.87 65.38C23.85 65.39 23.84 65.39 23.82 65.38L19.82 64.47Z" />
			<path id="Layer" class="shp3" d="M20.74 60.38C20.72 60.39 20.7 60.38 20.68 60.37C20.66 60.37 20.65 60.35 20.63 60.34C20.62 60.32 20.61 60.3 20.61 60.28C20.61 60.26 20.61 60.24 20.62 60.22L20.81 59.63C20.82 59.61 20.83 59.59 20.85 59.58C20.87 59.57 20.89 59.56 20.91 59.56L23.77 59.46L23.78 59.42L21.65 57.3C21.64 57.28 21.62 57.26 21.62 57.24C21.61 57.22 21.61 57.19 21.62 57.17L21.81 56.58C21.82 56.56 21.83 56.55 21.84 56.53C21.86 56.52 21.87 56.51 21.89 56.51C21.91 56.5 21.93 56.5 21.95 56.51C21.97 56.52 21.98 56.53 22 56.54L25.32 59.93C25.33 59.94 25.34 59.96 25.35 59.99C25.35 60.01 25.35 60.03 25.35 60.05L25.33 60.11C25.32 60.13 25.31 60.15 25.29 60.16C25.27 60.18 25.25 60.18 25.23 60.18L20.74 60.38Z" />
			<path id="Layer" class="shp3" d="M22.86 54.96C22.83 54.94 22.81 54.91 22.8 54.88C22.79 54.85 22.79 54.82 22.81 54.79L23.96 52.63C23.96 52.62 23.97 52.6 23.99 52.59C24 52.59 24.01 52.58 24.03 52.58C24.04 52.57 24.06 52.57 24.07 52.57C24.09 52.58 24.1 52.58 24.11 52.59L24.56 52.86C24.57 52.87 24.58 52.88 24.59 52.89C24.6 52.9 24.61 52.92 24.61 52.93C24.62 52.95 24.62 52.96 24.62 52.98C24.62 52.99 24.61 53.01 24.61 53.02L23.77 54.6L24.66 55.13L25.36 53.82C25.37 53.79 25.39 53.78 25.42 53.77C25.45 53.76 25.48 53.77 25.51 53.78L25.96 54.05C25.97 54.06 25.99 54.07 26 54.09C26.01 54.1 26.01 54.11 26.02 54.13C26.02 54.14 26.02 54.16 26.02 54.17C26.02 54.19 26.02 54.2 26.01 54.22L25.31 55.53L26.26 56.1L27.09 54.53C27.1 54.52 27.11 54.51 27.12 54.5C27.13 54.49 27.15 54.48 27.16 54.48C27.18 54.47 27.19 54.47 27.21 54.48C27.22 54.48 27.24 54.48 27.25 54.49L27.69 54.76C27.71 54.77 27.72 54.78 27.73 54.79C27.74 54.8 27.75 54.82 27.75 54.83C27.76 54.85 27.76 54.86 27.76 54.88C27.75 54.9 27.75 54.91 27.74 54.92L26.59 57.09C26.59 57.1 26.58 57.11 26.56 57.12C26.55 57.13 26.54 57.14 26.52 57.14C26.51 57.15 26.49 57.15 26.48 57.14C26.46 57.14 26.45 57.14 26.44 57.13L22.86 54.96Z" />
			<path id="Layer" fill-rule="evenodd" class="shp3" d="M25.35 50.89C25.34 50.87 25.33 50.86 25.32 50.85C25.31 50.83 25.31 50.82 25.3 50.8C25.3 50.79 25.3 50.77 25.31 50.76C25.31 50.74 25.32 50.73 25.33 50.72L26.38 49.37C26.59 49.1 26.9 48.93 27.25 48.91C27.6 48.88 27.95 49 28.23 49.23C28.44 49.42 28.6 49.67 28.68 49.94C28.76 50.21 28.75 50.5 28.67 50.76L30.41 51.16C30.43 51.16 30.45 51.17 30.47 51.19C30.49 51.2 30.5 51.22 30.51 51.24C30.52 51.26 30.52 51.28 30.52 51.3C30.51 51.32 30.5 51.34 30.49 51.36L30.1 51.85C30.09 51.87 30.08 51.88 30.06 51.89C30.04 51.9 30.02 51.9 30 51.89L28.22 51.43L27.81 51.95L29.05 53C29.07 53.02 29.09 53.05 29.09 53.08C29.1 53.11 29.09 53.14 29.07 53.17L28.73 53.6C28.73 53.61 28.71 53.62 28.7 53.63C28.69 53.64 28.67 53.64 28.66 53.64C28.64 53.64 28.63 53.64 28.61 53.63C28.6 53.63 28.58 53.62 28.57 53.61L25.35 50.89ZM27.89 50.74C27.99 50.61 28.03 50.44 28 50.28C27.98 50.11 27.89 49.96 27.76 49.85C27.63 49.75 27.47 49.7 27.32 49.71C27.16 49.72 27.02 49.8 26.92 49.92L26.32 50.68L27.29 51.5L27.89 50.74Z" />
			<path id="Layer" class="shp3" d="M30.83 48.11L28.43 47.4C28.41 47.39 28.39 47.38 28.38 47.36C28.36 47.35 28.35 47.33 28.34 47.31C28.34 47.29 28.34 47.27 28.35 47.25C28.35 47.23 28.36 47.21 28.38 47.2L28.83 46.79C28.85 46.78 28.86 46.77 28.88 46.77C28.9 46.77 28.92 46.77 28.94 46.77L30.61 47.25L30.35 45.51C30.35 45.49 30.35 45.47 30.36 45.45C30.36 45.43 30.37 45.42 30.39 45.4L30.84 45C30.86 44.98 30.88 44.97 30.9 44.97C30.92 44.97 30.94 44.97 30.96 44.98C30.98 44.98 30.99 45 31.01 45.02C31.02 45.03 31.03 45.05 31.03 45.07L31.4 47.59L32.73 49.13C32.75 49.15 32.77 49.18 32.76 49.21C32.76 49.25 32.75 49.27 32.73 49.29L32.32 49.66C32.31 49.67 32.3 49.67 32.28 49.68C32.27 49.68 32.26 49.69 32.24 49.68C32.23 49.68 32.21 49.68 32.2 49.67C32.18 49.66 32.17 49.65 32.16 49.64L30.83 48.11Z" />
			<path id="Layer" class="shp3" d="M34.31 42.82C34.29 42.8 34.29 42.76 34.3 42.73C34.3 42.7 34.32 42.68 34.35 42.67L34.83 42.41C34.86 42.4 34.89 42.39 34.92 42.4C34.94 42.41 34.97 42.43 34.99 42.46L36.72 45.57L38.05 44.86C38.06 44.86 38.07 44.85 38.09 44.85C38.1 44.85 38.12 44.85 38.13 44.86C38.15 44.86 38.16 44.87 38.17 44.88C38.19 44.89 38.2 44.9 38.2 44.92L38.46 45.37C38.46 45.38 38.47 45.4 38.47 45.42C38.47 45.43 38.47 45.45 38.47 45.46C38.47 45.48 38.46 45.49 38.45 45.5C38.44 45.51 38.43 45.52 38.42 45.53L36.51 46.55C36.5 46.55 36.49 46.56 36.47 46.56C36.46 46.56 36.44 46.56 36.43 46.55C36.41 46.55 36.4 46.54 36.38 46.53C36.37 46.52 36.36 46.51 36.35 46.5L34.31 42.82Z" />
			<path id="Layer" class="shp3" d="M37.96 41.04C37.95 41.01 37.95 40.98 37.96 40.95C37.97 40.93 37.99 40.91 38.02 40.89L38.53 40.7C38.55 40.69 38.58 40.69 38.61 40.7C38.64 40.72 38.66 40.74 38.67 40.77L40.28 44.59C40.29 44.62 40.29 44.65 40.28 44.68C40.27 44.7 40.25 44.73 40.22 44.74L39.72 44.93C39.69 44.94 39.66 44.94 39.63 44.93C39.61 44.91 39.58 44.89 39.57 44.86L37.96 41.04Z" />
			<path id="Layer" class="shp3" d="M41.42 40.47L40.54 40.69C40.52 40.69 40.51 40.69 40.49 40.69C40.48 40.69 40.46 40.68 40.45 40.67C40.44 40.66 40.42 40.65 40.41 40.64C40.4 40.63 40.4 40.62 40.39 40.6L40.24 40.1C40.24 40.09 40.24 40.07 40.24 40.06C40.24 40.04 40.24 40.03 40.25 40.02C40.26 40 40.27 39.99 40.28 39.98C40.29 39.97 40.3 39.97 40.32 39.96L42.84 39.33C42.86 39.33 42.87 39.33 42.89 39.33C42.9 39.33 42.92 39.34 42.93 39.34C42.95 39.35 42.96 39.36 42.97 39.38C42.98 39.39 42.98 39.4 42.99 39.42L43.14 39.91C43.14 39.93 43.14 39.94 43.14 39.96C43.14 39.97 43.14 39.99 43.13 40C43.12 40.01 43.11 40.03 43.1 40.04C43.09 40.04 43.08 40.05 43.06 40.05L42.18 40.28L43.2 43.67C43.21 43.7 43.21 43.73 43.19 43.75C43.18 43.78 43.16 43.8 43.13 43.81L42.59 43.94C42.56 43.95 42.53 43.94 42.5 43.93C42.48 43.91 42.45 43.89 42.44 43.86L41.42 40.47Z" />
			<path id="Layer" class="shp3" d="M45.47 39.6L44.56 39.69C44.54 39.69 44.53 39.69 44.51 39.68C44.5 39.68 44.48 39.67 44.47 39.66C44.46 39.65 44.45 39.64 44.44 39.62C44.43 39.61 44.43 39.59 44.42 39.58L44.34 39.07C44.34 39.06 44.34 39.04 44.34 39.03C44.35 39.01 44.35 39 44.36 38.99C44.37 38.97 44.38 38.96 44.4 38.96C44.41 38.95 44.42 38.94 44.44 38.94L47.05 38.69C47.07 38.69 47.08 38.69 47.1 38.69C47.11 38.7 47.12 38.71 47.14 38.72C47.15 38.73 47.16 38.74 47.17 38.75C47.18 38.76 47.18 38.78 47.18 38.8L47.27 39.3C47.27 39.32 47.27 39.33 47.26 39.35C47.26 39.36 47.25 39.38 47.25 39.39C47.24 39.4 47.23 39.41 47.21 39.42C47.2 39.42 47.19 39.43 47.17 39.43L46.26 39.52L46.81 42.99C46.82 43.02 46.81 43.05 46.79 43.08C46.77 43.1 46.75 43.11 46.72 43.12L46.16 43.17C46.13 43.17 46.1 43.16 46.08 43.15C46.05 43.13 46.04 43.1 46.03 43.07L45.47 39.6Z" />
			<path id="Layer" class="shp3" d="M48.9 38.69C48.89 38.67 48.9 38.66 48.9 38.64C48.91 38.63 48.92 38.62 48.93 38.61C48.94 38.6 48.95 38.59 48.96 38.58C48.98 38.58 48.99 38.57 49.01 38.57L49.56 38.6C49.59 38.6 49.62 38.62 49.64 38.64C49.66 38.66 49.68 38.69 49.68 38.72L49.77 42.19L51.3 42.26C51.32 42.26 51.33 42.27 51.35 42.27C51.36 42.28 51.37 42.29 51.38 42.3C51.4 42.31 51.4 42.33 51.41 42.34C51.42 42.35 51.42 42.37 51.42 42.39L51.43 42.89C51.43 42.91 51.43 42.92 51.43 42.94C51.42 42.95 51.41 42.96 51.4 42.97C51.39 42.98 51.38 42.99 51.37 43C51.35 43 51.34 43.01 51.32 43L49.12 42.9C49.1 42.9 49.09 42.9 49.07 42.89C49.06 42.89 49.04 42.88 49.03 42.87C49.02 42.85 49.01 42.84 49.01 42.83C49 42.81 49 42.8 49 42.78L48.9 38.69Z" />
			<path id="Layer" class="shp3" d="M53.1 38.84C53.1 38.82 53.11 38.81 53.11 38.79C53.12 38.78 53.13 38.77 53.14 38.76C53.16 38.75 53.17 38.75 53.18 38.74C53.2 38.74 53.21 38.74 53.23 38.74L55.69 39.23C55.73 39.24 55.75 39.25 55.77 39.28C55.79 39.31 55.8 39.34 55.8 39.37L55.73 39.87C55.73 39.89 55.73 39.9 55.72 39.91C55.71 39.93 55.7 39.94 55.69 39.95C55.68 39.96 55.67 39.96 55.65 39.96C55.64 39.97 55.62 39.97 55.61 39.97L53.81 39.61L53.69 40.62L55.19 40.91C55.22 40.92 55.24 40.94 55.26 40.96C55.28 40.99 55.29 41.02 55.29 41.05L55.23 41.56C55.23 41.58 55.22 41.59 55.21 41.6C55.21 41.62 55.2 41.63 55.18 41.64C55.17 41.65 55.16 41.65 55.14 41.65C55.13 41.66 55.11 41.66 55.1 41.65L53.6 41.36L53.47 42.43L55.27 42.79C55.28 42.79 55.29 42.8 55.31 42.8C55.32 42.81 55.33 42.82 55.34 42.84C55.35 42.85 55.36 42.86 55.36 42.88C55.37 42.89 55.37 42.91 55.37 42.93L55.31 43.43C55.3 43.44 55.3 43.46 55.29 43.47C55.28 43.48 55.27 43.5 55.26 43.5C55.25 43.51 55.24 43.52 55.22 43.52C55.21 43.53 55.19 43.53 55.18 43.52L52.71 43.04C52.7 43.03 52.68 43.03 52.67 43.02C52.65 43.01 52.64 43 52.63 42.99C52.62 42.97 52.62 42.96 52.61 42.94C52.61 42.93 52.61 42.91 52.61 42.9L53.1 38.84Z" />
			<path id="Layer" class="shp3" d="M60.17 41.27L59.29 40.89C59.28 40.88 59.26 40.87 59.25 40.86C59.24 40.85 59.23 40.84 59.22 40.82C59.22 40.81 59.21 40.79 59.21 40.78C59.21 40.76 59.22 40.74 59.22 40.73L59.39 40.26C59.39 40.25 59.4 40.23 59.41 40.22C59.42 40.21 59.43 40.2 59.45 40.2C59.46 40.19 59.48 40.19 59.49 40.19C59.51 40.19 59.52 40.19 59.54 40.2L62.06 41.29C62.07 41.3 62.08 41.31 62.1 41.32C62.11 41.33 62.12 41.35 62.12 41.36C62.13 41.37 62.13 41.39 62.13 41.41C62.13 41.42 62.13 41.44 62.13 41.45L61.96 41.92C61.95 41.94 61.95 41.95 61.94 41.96C61.93 41.97 61.91 41.98 61.9 41.98C61.89 41.99 61.87 41.99 61.86 41.99C61.84 41.99 61.83 41.99 61.81 41.98L60.93 41.6L59.78 44.82C59.77 44.85 59.75 44.87 59.72 44.88C59.69 44.89 59.66 44.89 59.63 44.88L59.09 44.65C59.07 44.63 59.04 44.61 59.03 44.58C59.02 44.55 59.01 44.52 59.02 44.49L60.17 41.27Z" />
			<path id="Layer" class="shp3" d="M63.71 42.11C63.72 42.09 63.75 42.07 63.78 42.06C63.8 42.06 63.84 42.06 63.86 42.08L64.36 42.4C64.37 42.41 64.39 42.42 64.4 42.43C64.4 42.44 64.41 42.46 64.42 42.47C64.42 42.49 64.42 42.5 64.42 42.52C64.42 42.54 64.41 42.55 64.41 42.56L63.62 43.95L65.36 45.07L66.15 43.68C66.16 43.67 66.16 43.66 66.18 43.65C66.19 43.64 66.2 43.63 66.22 43.63C66.23 43.63 66.25 43.63 66.26 43.63C66.28 43.63 66.29 43.64 66.31 43.65L66.8 43.96C66.82 43.98 66.84 44.01 66.85 44.04C66.86 44.07 66.86 44.1 66.84 44.13L64.87 47.6C64.85 47.62 64.83 47.64 64.8 47.65C64.77 47.65 64.74 47.65 64.71 47.63L64.22 47.32C64.19 47.3 64.17 47.27 64.16 47.24C64.16 47.21 64.16 47.18 64.17 47.15L65 45.7L63.25 44.59L62.43 46.03C62.42 46.05 62.41 46.06 62.4 46.07C62.39 46.08 62.38 46.08 62.36 46.08C62.35 46.09 62.33 46.09 62.32 46.08C62.3 46.08 62.29 46.08 62.27 46.07L61.78 45.75C61.75 45.73 61.73 45.7 61.72 45.67C61.71 45.64 61.72 45.61 61.73 45.58L63.71 42.11Z" />
			<path id="Layer" class="shp3" d="M68.57 45.4C68.59 45.38 68.62 45.36 68.65 45.36C68.68 45.36 68.71 45.37 68.73 45.39L69.19 45.78C69.21 45.8 69.23 45.83 69.23 45.86C69.24 45.9 69.23 45.93 69.21 45.95L66.72 49.09C66.7 49.11 66.67 49.12 66.64 49.12C66.61 49.13 66.58 49.12 66.55 49.1L66.1 48.7C66.08 48.68 66.06 48.65 66.06 48.62C66.05 48.59 66.06 48.56 66.08 48.53L68.57 45.4Z" />
			<path id="Layer" class="shp3" d="M70.87 47.31C70.89 47.29 70.92 47.28 70.95 47.29C70.98 47.29 71.01 47.3 71.03 47.33L71.14 47.45L70.96 51.23L70.96 51.23L72.78 49.57C72.8 49.55 72.83 49.54 72.87 49.54C72.9 49.55 72.93 49.56 72.95 49.58L73.34 50.03C73.36 50.05 73.37 50.08 73.37 50.11C73.37 50.15 73.36 50.17 73.34 50.2L70.37 52.9C70.35 52.92 70.32 52.93 70.29 52.93C70.26 52.92 70.23 52.91 70.21 52.88L70.11 52.77L70.35 48.91L70.35 48.91L68.45 50.64C68.44 50.65 68.43 50.65 68.42 50.66C68.4 50.66 68.39 50.67 68.37 50.66C68.36 50.66 68.34 50.66 68.33 50.65C68.31 50.64 68.3 50.63 68.29 50.62L67.9 50.18C67.88 50.16 67.87 50.13 67.87 50.1C67.87 50.07 67.88 50.04 67.91 50.02L70.87 47.31Z" />
			<path id="Layer" class="shp3" d="M75.83 53.61C76.12 54.1 76.24 54.68 76.16 55.23C76.16 55.25 76.15 55.26 76.15 55.28C76.14 55.29 76.13 55.3 76.11 55.31C76.1 55.32 76.09 55.32 76.07 55.32C76.05 55.33 76.04 55.33 76.02 55.32L75.48 55.18C75.47 55.17 75.45 55.17 75.44 55.16C75.43 55.15 75.42 55.14 75.41 55.12C75.4 55.11 75.39 55.1 75.39 55.08C75.39 55.06 75.39 55.05 75.39 55.03C75.45 54.69 75.37 54.34 75.19 54.03C74.98 53.7 74.66 53.47 74.3 53.37C73.94 53.27 73.56 53.32 73.25 53.5C72.95 53.68 72.73 53.99 72.65 54.35C72.57 54.71 72.63 55.1 72.82 55.43C72.96 55.66 73.14 55.85 73.35 56.01L73.78 55.75L73.52 55.31C73.51 55.3 73.5 55.29 73.5 55.27C73.5 55.26 73.5 55.24 73.5 55.23C73.5 55.21 73.51 55.2 73.52 55.18C73.52 55.17 73.53 55.16 73.55 55.15L73.95 54.91C73.97 54.91 73.98 54.9 74 54.9C74.01 54.9 74.03 54.9 74.04 54.9C74.06 54.91 74.07 54.91 74.08 54.92C74.1 54.94 74.11 54.95 74.11 54.96L74.75 56.02C74.77 56.04 74.77 56.08 74.77 56.1C74.76 56.13 74.74 56.16 74.72 56.17L73.4 56.95C73.38 56.96 73.37 56.96 73.35 56.97C73.33 56.97 73.31 56.96 73.29 56.95C72.82 56.67 72.42 56.27 72.13 55.79C71.81 55.26 71.71 54.65 71.83 54.07C71.95 53.5 72.29 53.02 72.78 52.73C73.27 52.44 73.87 52.37 74.44 52.54C75.01 52.7 75.51 53.09 75.83 53.61L75.83 53.61Z" />
			<path id="Layer" class="shp4" d="M25.38 86.22C29.83 92.19 36.09 96.49 43.08 98.37C50.06 100.25 57.32 99.6 63.6 96.53C69.88 93.46 74.76 88.16 77.42 81.56C80.07 74.96 80.31 67.48 78.11 60.42" />
			<path id="Layer" class="shp4" d="M74.25 62.41C75.92 68.37 75.57 74.61 73.27 80.1C70.97 85.58 66.84 89.98 61.59 92.55C56.33 95.12 50.27 95.72 44.4 94.23C38.54 92.74 33.23 89.27 29.36 84.38" />
			<path id="Layer" fill-rule="evenodd" class="shp3" d="M44.22 69.66C44.25 69.69 44.31 69.73 44.31 69.75C44.05 71.02 44.86 71.79 45.7 72.55C47.25 73.97 49.09 75 51.07 75.55C52.04 75.82 52.72 75.47 52.99 74.62C53.2 73.95 53.08 73.75 52.4 73.43C50.86 72.69 49.33 71.95 47.81 71.17C47.15 70.83 46.56 70.35 45.92 69.97C45.46 69.7 44.97 69.49 44.52 69.26C44.21 68.82 43.87 68.41 43.5 68.03C41.92 66.58 41 64.88 41.45 62.75C41.64 61.99 41.97 61.28 42.4 60.64C42.75 60.09 43.05 60.18 43.42 60.76C44.38 62.28 45.81 63.28 47.24 64.3C47.29 64.34 47.35 64.37 47.41 64.39C47.75 64.49 48.23 64.77 48.39 64.64C48.57 64.49 48.7 64.27 48.73 64.03C48.77 63.78 48.72 63.53 48.59 63.31C47.7 61.69 46.28 60.44 44.6 59.77C44.39 59.67 44.17 59.59 43.91 59.48C45.17 58.31 47.28 57.86 48.89 58.55C49.37 58.74 49.79 59.09 50.07 59.53C50.36 59.98 50.5 60.5 50.47 61.02C50.47 61.58 50.38 62.12 50.18 62.63C49.86 63.36 49.45 64.05 48.96 64.67C48.63 65.1 48.69 65.3 49.13 65.54C50.37 66.23 51.6 66.94 52.84 67.62C53.43 67.94 53.63 67.8 53.66 67.13C53.72 66.12 53.72 65.09 53.84 64.09C53.96 63.15 54.69 62.76 55.53 62.62C56.61 62.44 57.75 63.83 57.48 64.97C57.37 65.32 57.23 65.66 57.04 65.98C56.84 66.35 56.9 66.56 57.34 66.64C57.5 66.66 57.65 66.71 57.8 66.74C60.52 67.3 61.69 70.77 59.96 72.91C59.35 73.71 58.49 74.26 57.52 74.5C56.54 74.74 55.5 74.65 54.54 74.24C53.76 73.92 53.46 73.88 53.22 74.9C52.75 76.8 51.42 77.9 49.72 78.7C49.07 79.04 48.35 79.23 47.61 79.26C46.87 79.28 46.12 79.14 45.42 78.85C44.42 78.47 43.56 77.75 42.99 76.82C42.43 75.88 42.19 74.8 42.32 73.75C42.49 72.28 43.06 70.92 43.96 69.81C44 69.76 44.05 69.72 44.1 69.67C44.13 69.65 44.18 69.66 44.22 69.66ZM55.86 66.06C55.84 65.94 55.79 65.81 55.71 65.71C55.63 65.6 55.54 65.51 55.42 65.44C55.31 65.38 55.18 65.34 55.06 65.33C54.93 65.32 54.81 65.34 54.69 65.39C53.84 65.71 53.52 67.88 54.31 68.4C54.88 68.75 55.52 68.97 56.17 69.02C56.47 69.05 56.92 68.68 57.07 68.37C57.12 68.2 57.12 68.01 57.09 67.84C57.06 67.66 56.99 67.48 56.89 67.33C56.58 66.88 56.24 66.46 55.86 66.06Z" />
		</g>
	</g>
</svg>