<svg xmlns="http://www.w3.org/2000/svg" width="199.9" height="199.9" viewBox="0 0 199.9 199.9">
  <g id="Grupo_2" data-name="Grupo 2" transform="translate(-810.999 -80.066)">
    <path id="Trazado_112" data-name="Trazado 112" d="M196.45,28a98.45,98.45,0,1,0,98.45,98.45A98.563,98.563,0,0,0,196.45,28Zm-90.879,98.45A90.985,90.985,0,0,1,196.45,35.571c.261,0,.514.017.774.02l6.936,21.43,36.112,111.568-97.087,31.42a90.8,90.8,0,0,1-37.611-73.56Zm90.879,90.875a90.316,90.316,0,0,1-49.327-14.612l96.114-31.1a1.894,1.894,0,0,0,1.219-2.384L201.236,35.7a90.876,90.876,0,0,1-4.786,181.625Z" transform="translate(714.499 53.566)" fill="#fff" stroke="#96bae9" stroke-width="3"/>
    <path id="Trazado_153" data-name="Trazado 153" d="M912.5,86.983l43.857,136.2-102.45,33.1L851,253.574" transform="translate(0.691)" fill="none" stroke="#fff" stroke-width="3"/>
  </g>
</svg>
