<svg id="Grupo_1" data-name="Grupo 1" xmlns="http://www.w3.org/2000/svg" width="163.225" height="192.933" viewBox="0 0 163.225 192.933">
  <path id="Trazado_1" data-name="Trazado 1" d="M303.151,188.253c-.311-.2-31-20.795-30.378-52.726.7-36.514,28.12-41.779,29.288-41.989a1.462,1.462,0,0,0,1.15-1.841l-7.519-26.3a1.461,1.461,0,0,0-1.405-1.059c-41.609,0-48.131-26.335-48.391-27.458a1.461,1.461,0,0,0-1.423-1.135H199.916a1.463,1.463,0,0,0-1.425,1.14c-.064.275-6.657,27.454-48.391,27.454A1.463,1.463,0,0,0,148.7,65.4l-7.519,26.3a1.461,1.461,0,0,0,1.155,1.842c.285.049,28.586,5.382,29.285,41.989.618,31.935-30.066,52.524-30.378,52.726a1.46,1.46,0,0,0-.341,2.123l19.22,24.3a1.46,1.46,0,0,0,2.027.259c.1-.076,10.214-7.584,26.967-7.584a58.741,58.741,0,0,1,6.754.4c14.384,1.68,24.954,20,25.059,20.19a1.461,1.461,0,0,0,2.54,0c.1-.185,10.651-18.508,25.061-20.19a58.706,58.706,0,0,1,6.753-.4c16.692,0,26.868,7.51,26.968,7.586a1.467,1.467,0,0,0,2.026-.261l19.22-24.3a1.46,1.46,0,0,0-.34-2.124ZM282.826,211.8c-3.252-2.073-12.98-7.37-27.548-7.37a61.569,61.569,0,0,0-7.094.416c-12.96,1.514-22.633,14.466-25.989,19.6-3.357-5.129-13.03-18.082-25.989-19.6a61.526,61.526,0,0,0-7.094-.416c-14.566,0-24.294,5.3-27.548,7.37l-17.423-22.03c6.03-4.442,30.97-24.64,30.4-54.3-.649-33.839-23.827-42.654-30.138-44.425l6.8-23.786c38.138-.431,48-23.184,49.8-28.587h42.389c1.8,5.4,11.663,28.156,49.8,28.587l6.8,23.786c-6.313,1.772-29.487,10.59-30.133,44.425-.577,29.661,24.363,49.86,30.394,54.3Z" transform="translate(-140.583 -35.748)" fill="#fff"/>
  <path id="Trazado_2" data-name="Trazado 2" d="M199.347,452.966s0,0,0,0a.111.111,0,0,0-.029,0c-.9.326-1.747.662-2.549.994l-1.68-2.123s0-.006,0-.009a.677.677,0,0,0-.618-.226.691.691,0,0,0-.405.114c-.046.036-.044.1-.079.14a.674.674,0,0,0-.191.36.739.739,0,0,0,.15.527l2.023,2.56a.725.725,0,0,0,.859.22q1.393-.6,2.991-1.184a.077.077,0,0,0,.014-.009h.038c.044-.02.065-.061.1-.087a.756.756,0,0,0,.129-.109.721.721,0,0,0,.225-.5.429.429,0,0,0-.044-.24.72.72,0,0,0-.932-.436Z" transform="translate(-173.119 -290.058)" fill="#fff"/>
  <path id="Trazado_3" data-name="Trazado 3" d="M229.1,447.1h-.021a61.5,61.5,0,0,0-6.2,1.24.739.739,0,0,0-.566.693c0,.065.021.132.021.2a.743.743,0,0,0,.718.543.491.491,0,0,0,.174-.021c1.98-.5,4.024-.914,6.091-1.218a.711.711,0,0,0,.631-.718v-.109a.743.743,0,0,0-.848-.605Z" transform="translate(-190.566 -287.302)" fill="#fff"/>
  <path id="Trazado_4" data-name="Trazado 4" d="M261.406,445.286c-2.284-.086-4.329-.065-6.373.044a.715.715,0,0,0-.674.718v.044a.719.719,0,0,0,.718.7h.044a.081.081,0,0,0,.065-.021c2.2-.109,4.285-.109,6.156-.021h.021a.758.758,0,0,0,.739-.718V446a.72.72,0,0,0-.7-.718Z" transform="translate(-210.161 -286.162)" fill="#fff"/>
  <path id="Trazado_5" data-name="Trazado 5" d="M293.731,448.241a34.175,34.175,0,0,0-6.243-1.545.75.75,0,0,0-.827.631v.109a.722.722,0,0,0,.587.718h.108a30.616,30.616,0,0,1,5.9,1.481.754.754,0,0,0,.217.021.716.716,0,0,0,.7-.478.545.545,0,0,0,.044-.261.725.725,0,0,0-.478-.677Z" transform="translate(-229.915 -287.054)" fill="#fff"/>
  <path id="Trazado_6" data-name="Trazado 6" d="M318.253,457.408a.168.168,0,0,0-.087-.044.022.022,0,0,0-.021-.024.767.767,0,0,0-.979.307.9.9,0,0,0-.086.347.755.755,0,0,0,.37.631,45.806,45.806,0,0,1,5.178,3.393.66.66,0,0,0,.435.152.773.773,0,0,0,.587-.282.748.748,0,0,0-.131-1.024,49.43,49.43,0,0,0-5.267-3.455Z" transform="translate(-248.517 -293.521)" fill="#fff"/>
  <path id="Trazado_7" data-name="Trazado 7" d="M183.4,428.35s0,0,0-.006a.965.965,0,0,0-1.024-.012v-.011s0,.011-.006.015c-.809.783-1.6,1.52-2.358,2.208a.728.728,0,0,0-.082.994l2.023,2.56a.729.729,0,1,0,1.144-.9l-1.6-2.027c.613-.563,1.246-1.158,1.891-1.781a.73.73,0,0,0,.015-1.035s0,0,0,0Z" transform="translate(-164.55 -275.725)" fill="#fff"/>
  <path id="Trazado_8" data-name="Trazado 8" d="M250.268,287.77a.739.739,0,0,0-.718-.718h-.044a.739.739,0,0,0-.7.739v.021c.021.393.021.783.021,1.174v.174c.021.348.021.677.021,1.024,0,1.284-.044,2.545-.109,3.742v.044a.682.682,0,0,0,.653.718.075.075,0,0,0,.065.024.755.755,0,0,0,.739-.7c.065-1.284.109-2.568.109-3.829v-1.22l-.021-.2C250.289,288.442,250.289,288.1,250.268,287.77Z" transform="translate(-206.726 -189.429)" fill="#fff"/>
  <path id="Trazado_9" data-name="Trazado 9" d="M223.034,204.136l.021.021a.753.753,0,0,0,.609.326.718.718,0,0,0,.37-.086.808.808,0,0,0,.37-.631.887.887,0,0,0-.109-.391,54.249,54.249,0,0,0-3.523-5.177.749.749,0,0,0-1.023-.131.763.763,0,0,0-.282.587.672.672,0,0,0,.152.435,50.512,50.512,0,0,1,3.393,5,.066.066,0,0,1,.023.044Z" transform="translate(-188.823 -134.922)" fill="#fff"/>
  <path id="Trazado_10" data-name="Trazado 10" d="M199,176.264c-.282-.217-.543-.435-.827-.652a.749.749,0,0,0-1.023.131.661.661,0,0,0-.152.436.628.628,0,0,0,.282.587l.152.13.653.522a49.4,49.4,0,0,1,3.763,3.372.759.759,0,0,0,.522.217.8.8,0,0,0,.522-.217.741.741,0,0,0,.2-.522.69.69,0,0,0-.2-.5,48.353,48.353,0,0,0-3.892-3.5Z" transform="translate(-175.084 -121.19)" fill="#fff"/>
  <path id="Trazado_11" data-name="Trazado 11" d="M246.977,263.053h.086a.714.714,0,0,0,.631-.739v-.087c-.24-2.088-.566-4.155-.979-6.156a.756.756,0,0,0-.869-.566.722.722,0,0,0-.566.718v.152c.413,1.98.739,4.024.979,6.047a.712.712,0,0,0,.718.631Z" transform="translate(-204.609 -170.128)" fill="#fff"/>
  <path id="Trazado_12" data-name="Trazado 12" d="M239.281,231.738a.754.754,0,0,0-.021-.217,55.059,55.059,0,0,0-2.2-5.851.74.74,0,0,0-.979-.37.721.721,0,0,0-.436.674.66.66,0,0,0,.065.282,59.133,59.133,0,0,1,2.153,5.7.724.724,0,0,0,.7.522.9.9,0,0,0,.217-.044.7.7,0,0,0,.5-.695Z" transform="translate(-198.719 -151.625)" fill="#fff"/>
  <path id="Trazado_13" data-name="Trazado 13" d="M221.542,379.02a.727.727,0,0,0-.37-.608.737.737,0,0,0-1,.261c-1,1.719-2.088,3.458-3.262,5.177a.723.723,0,0,0-.13.413.759.759,0,0,0,.305.607.924.924,0,0,0,.413.132.787.787,0,0,0,.608-.326c1.2-1.762,2.328-3.546,3.328-5.264a.877.877,0,0,0,.109-.391Z" transform="translate(-187.179 -245.24)" fill="#fff"/>
  <path id="Trazado_14" data-name="Trazado 14" d="M236.055,349.58a.732.732,0,0,0-.935.393v.044a.083.083,0,0,0-.021.065c-.7,1.85-1.48,3.719-2.349,5.569a.73.73,0,0,0,.347.959.5.5,0,0,0,.3.087.79.79,0,0,0,.674-.413v-.021c.892-1.892,1.7-3.829,2.414-5.743a1.116,1.116,0,0,0,.044-.261A.705.705,0,0,0,236.055,349.58Z" transform="translate(-196.906 -227.636)" fill="#fff"/>
  <path id="Trazado_15" data-name="Trazado 15" d="M201.126,404.808c-1.24,1.589-2.589,3.155-3.98,4.677a.833.833,0,0,0-.2.543.726.726,0,0,0,.24.5.79.79,0,0,0,.5.2.773.773,0,0,0,.543-.24v-.021c1.414-1.566,2.763-3.155,4.024-4.742a.709.709,0,0,0,.174-.458.73.73,0,0,0-.282-.566.775.775,0,0,0-1.024.111Z" transform="translate(-175.053 -261.285)" fill="#fff"/>
  <path id="Trazado_16" data-name="Trazado 16" d="M245.784,318.8a.743.743,0,0,0-.848.608,58.6,58.6,0,0,1-1.261,5.982.437.437,0,0,0-.021.174.678.678,0,0,0,.522.693.574.574,0,0,0,.2.046.771.771,0,0,0,.718-.543c.522-2.023.958-4.068,1.3-6.115v-.109a.751.751,0,0,0-.61-.736Z" transform="translate(-203.613 -208.836)" fill="#fff"/>
  <path id="Trazado_17" data-name="Trazado 17" d="M180.244,159.217c-.009,0-.009-.017-.017-.021q-1.211-.706-2.369-1.3l.724-2.534c0-.009.011-.011.015-.02a.755.755,0,0,0-.5-.914c-.015,0-.029.006-.044,0a.722.722,0,0,0-.487.055c-.017.009-.033.014-.05.024a.724.724,0,0,0-.317.4c0,.009-.014.011-.017.021a.024.024,0,0,1,0,.011l-.9,3.135a.732.732,0,0,0,.376.854c.912.457,1.857.964,2.826,1.531a.1.1,0,0,1,.02,0,.064.064,0,0,1,.021.011l.021.021a.717.717,0,0,0,.37.086.731.731,0,0,0,.631-.347.747.747,0,0,0,.086-.391.72.72,0,0,0-.348-.609c-.014-.02-.029-.017-.045-.02Z" transform="translate(-162.399 -108.315)" fill="#fff"/>
  <path id="Trazado_18" data-name="Trazado 18" d="M186,136.313h0V136.3c-.015,0-.03.014-.045.017q-1.552.173-3.175.3a.73.73,0,0,0-.646.527l-.9,3.137a.731.731,0,0,0,.5.9.711.711,0,0,0,.2.029.732.732,0,0,0,.7-.531l.757-2.652q1.409-.114,2.768-.27a.728.728,0,1,0-.161-1.448Z" transform="translate(-165.424 -97.241)" fill="#fff"/>
  <path id="Trazado_19" data-name="Trazado 19" d="M287.16,89.7a.779.779,0,0,0,.522-.2v-.021a46.794,46.794,0,0,0,3.959-4.373.738.738,0,0,0,.152-.478.727.727,0,0,0-.261-.543.754.754,0,0,0-1.044.109,50.5,50.5,0,0,1-3.829,4.264.676.676,0,0,0-.217.522.691.691,0,0,0,.2.5.712.712,0,0,0,.522.215Z" transform="translate(-229.781 -65.207)" fill="#fff"/>
  <path id="Trazado_20" data-name="Trazado 20" d="M267.848,105.111a53.955,53.955,0,0,1-4.742,3.262.728.728,0,1,0,.763,1.24,50.77,50.77,0,0,0,4.873-3.351.8.8,0,0,0,.282-.587.7.7,0,0,0-.152-.436.752.752,0,0,0-1.024-.129Z" transform="translate(-215.297 -78.077)" fill="#fff"/>
  <path id="Trazado_21" data-name="Trazado 21" d="M241.518,120.676a55.917,55.917,0,0,1-5.329,2.2.732.732,0,0,0-.434.936.746.746,0,0,0,.7.5.9.9,0,0,0,.24-.044c1.871-.7,3.719-1.458,5.439-2.284a.714.714,0,0,0,.436-.652.5.5,0,0,0-.087-.305.71.71,0,0,0-.961-.349Z" transform="translate(-198.757 -87.641)" fill="#fff"/>
  <path id="Trazado_22" data-name="Trazado 22" d="M207.462,133.561h.152c1.98-.37,3.915-.8,5.743-1.305a.683.683,0,0,0,.522-.7.616.616,0,0,0-.021-.2.727.727,0,0,0-.848-.522h-.044a.081.081,0,0,1-.065.021c-1.85.5-3.719.914-5.569,1.261a.644.644,0,0,0-.457.3.784.784,0,0,0-.131.543.722.722,0,0,0,.718.589Z" transform="translate(-181.039 -93.89)" fill="#fff"/>
  <path id="Trazado_23" data-name="Trazado 23" d="M310.69,65.731s0,0,.009,0a.693.693,0,0,0,.633-.477c.036-.086.106-.156.106-.256v0a.669.669,0,0,0-.129-.305.684.684,0,0,0-.6-.42h-3.263a.727.727,0,0,0-.646.391c-.457.873-.974,1.8-1.557,2.748,0,.021-.021.044-.044.065a.713.713,0,0,0-.109.369.732.732,0,0,0,.348.631.887.887,0,0,0,.391.109.7.7,0,0,0,.609-.326.021.021,0,0,1,.021-.021.078.078,0,0,1,.011-.033c.523-.853,1-1.68,1.416-2.473Z" transform="translate(-241.183 -53.192)" fill="#fff"/>
  <path id="Trazado_24" data-name="Trazado 24" d="M347.2,64.289h-8.049a.728.728,0,1,0,0,1.457H347.2a.728.728,0,1,0,0-1.457Z" transform="translate(-261.56 -53.202)" fill="#fff"/>
  <path id="Trazado_25" data-name="Trazado 25" d="M386.125,68.141c.026-.05.085-.082.1-.135a.717.717,0,0,0-.087-.552c-.593-.967-1.118-1.9-1.58-2.785a.734.734,0,0,0-.648-.391h-3.262a.728.728,0,1,0,0,1.457h2.824c.425.8.9,1.627,1.42,2.483h0a.713.713,0,0,0,.316.267.739.739,0,0,0,.31.08h.008a.733.733,0,0,0,.355-.1.093.093,0,0,0,.02,0,.693.693,0,0,0,.226-.316Z" transform="translate(-286.943 -53.195)" fill="#fff"/>
  <path id="Trazado_26" data-name="Trazado 26" d="M427.935,109.656a.72.72,0,0,0,.608-.348.575.575,0,0,0,.109-.37.731.731,0,0,0-.348-.631,50.618,50.618,0,0,1-4.675-3.241c-.024,0-.024-.021-.046-.021a.021.021,0,0,0-.021-.021.748.748,0,0,0-1,.152.591.591,0,0,0-.152.436.766.766,0,0,0,.282.587,53.071,53.071,0,0,0,4.851,3.35.893.893,0,0,0,.39.108Z" transform="translate(-312.931 -78.034)" fill="#fff"/>
  <path id="Trazado_27" data-name="Trazado 27" d="M448.365,121.951c1.719.8,3.546,1.566,5.46,2.262a.793.793,0,0,0,.24.044.7.7,0,0,0,.674-.478.53.53,0,0,0,.046-.261.725.725,0,0,0-.478-.674c-1.83-.674-3.612-1.414-5.308-2.219a.738.738,0,0,0-.979.348.686.686,0,0,0-.064.3.731.731,0,0,0,.392.652c.018,0,.018,0,.018.02Z" transform="translate(-328.552 -87.61)" fill="#fff"/>
  <path id="Trazado_28" data-name="Trazado 28" d="M402.368,84.124a.751.751,0,0,0-1.023-.13.783.783,0,0,0-.282.5.828.828,0,0,0,.15.543,54.739,54.739,0,0,0,3.959,4.394.778.778,0,0,0,.522.2.708.708,0,0,0,.522-.217.741.741,0,0,0,.2-.522.655.655,0,0,0-.22-.5,54.4,54.4,0,0,1-3.824-4.264Z" transform="translate(-299.872 -65.163)" fill="#fff"/>
  <path id="Trazado_29" data-name="Trazado 29" d="M476.657,132.256c1.827.5,3.763.913,5.745,1.284a.282.282,0,0,0,.131.021.743.743,0,0,0,.718-.609.282.282,0,0,0,.021-.131.765.765,0,0,0-.607-.718c-1.938-.347-3.832-.783-5.636-1.261a.752.752,0,0,0-.889.522.387.387,0,0,0-.024.174.722.722,0,0,0,.542.716Z" transform="translate(-345.772 -93.891)" fill="#fff"/>
  <path id="Trazado_30" data-name="Trazado 30" d="M505.757,137.37a.694.694,0,0,0,.446.354c.02,0,.033.026.05.029h.036c.006,0,.011,0,.017,0,.907.1,1.83.194,2.768.272l.743,2.6c0,.011,0,.024,0,.035a.82.82,0,0,0,.206.294.692.692,0,0,0,.4.212c.039.006.07.036.111.036.065,0,.13-.021.2-.021.015,0,.017-.02.033-.026a.729.729,0,0,0,.472-.888l-.9-3.137a.731.731,0,0,0-.648-.527c-1.09-.085-2.153-.185-3.2-.3-.009,0-.015-.011-.024-.014h-.044a.744.744,0,0,0-.8.653v.065c0,.061.046.1.059.161A.667.667,0,0,0,505.757,137.37Z" transform="translate(-363.817 -97.233)" fill="#fff"/>
  <path id="Trazado_31" data-name="Trazado 31" d="M515.943,155.323l.733,2.558c-.768.393-1.555.824-2.354,1.293-.006,0-.015,0-.021,0a.743.743,0,0,0-.261,1l0,0s0,0,0,0a.735.735,0,0,0,.624.363c.033,0,.059-.021.09-.026a.7.7,0,0,0,.282-.076c.968-.566,1.915-1.074,2.828-1.531a.73.73,0,0,0,.376-.854l-.9-3.137a.731.731,0,0,0-1.407.4Z" transform="translate(-368.906 -108.303)" fill="#fff"/>
  <path id="Trazado_32" data-name="Trazado 32" d="M461.8,356.528a.613.613,0,0,0,.326-.086.733.733,0,0,0,.411-.652.691.691,0,0,0-.065-.305c-.868-1.851-1.675-3.744-2.372-5.658a.719.719,0,0,0-.935-.411.678.678,0,0,0-.478.674.546.546,0,0,0,.044.261c.718,1.958,1.524,3.894,2.414,5.743a.718.718,0,0,0,.654.436Z" transform="translate(-335.115 -227.533)" fill="#fff"/>
  <path id="Trazado_33" data-name="Trazado 33" d="M457.816,231.785a59.541,59.541,0,0,1,2.153-5.7.638.638,0,0,0,.065-.282.686.686,0,0,0-.436-.674.712.712,0,0,0-.954.37,57.6,57.6,0,0,0-2.222,5.851.729.729,0,0,0-.02.217.708.708,0,0,0,.5.7.975.975,0,0,0,.22.044.728.728,0,0,0,.7-.524Z" transform="translate(-333.718 -151.52)" fill="#fff"/>
  <path id="Trazado_34" data-name="Trazado 34" d="M494.913,410.576a.755.755,0,0,0,.5-.2.7.7,0,0,0,.24-.522.678.678,0,0,0-.2-.5c-1.37-1.5-2.719-3.091-3.98-4.677a.726.726,0,0,0-1.023-.109.676.676,0,0,0-.282.543.891.891,0,0,0,.15.478.021.021,0,0,1,.021.021c1.261,1.569,2.61,3.176,4.027,4.721a.791.791,0,0,0,.545.238Z" transform="translate(-354.367 -261.199)" fill="#fff"/>
  <path id="Trazado_35" data-name="Trazado 35" d="M452.037,319.237a.729.729,0,0,0-.848-.608.743.743,0,0,0-.609.718.288.288,0,0,0,.021.132v.021c.326,2.046.762,4.089,1.284,6.091a.769.769,0,0,0,.718.543c.065,0,.132-.021.2-.021a.723.723,0,0,0,.522-.718.437.437,0,0,0-.021-.174c-.524-2-.936-4-1.263-5.983Z" transform="translate(-330.157 -208.734)" fill="#fff"/>
  <path id="Trazado_36" data-name="Trazado 36" d="M473.6,378.5a.739.739,0,0,0-1-.261.69.69,0,0,0-.347.608.858.858,0,0,0,.086.393c1.023,1.762,2.152,3.546,3.326,5.264a.783.783,0,0,0,.608.325.72.72,0,0,0,.413-.131.688.688,0,0,0,.3-.608.9.9,0,0,0-.109-.413c-1.193-1.716-2.281-3.46-3.282-5.177Z" transform="translate(-343.409 -245.133)" fill="#fff"/>
  <path id="Trazado_37" data-name="Trazado 37" d="M488.77,180.152a.7.7,0,0,0,.217.522.759.759,0,0,0,.522.217.735.735,0,0,0,.5-.217,49.29,49.29,0,0,1,3.719-3.328c.282-.24.566-.457.869-.7a.746.746,0,0,0,.13-1.023.72.72,0,0,0-1-.131H493.7c-.305.24-.587.457-.892.718-1.325,1.065-2.61,2.218-3.828,3.416a.808.808,0,0,0-.214.522Z" transform="translate(-353.511 -121.12)" fill="#fff"/>
  <path id="Trazado_38" data-name="Trazado 38" d="M449.431,294.519h.021a.733.733,0,0,0,.674-.718v-.042c-.064-1.261-.109-2.5-.109-3.674,0-.393,0-.763.024-1.153v-.046c0-.411.021-.827.021-1.238V287.6a.723.723,0,0,0-.7-.718h-.021a.729.729,0,0,0-.739.718c0,.413-.024.827-.024,1.261-.021.391-.021.8-.021,1.22,0,1.284.046,2.545.109,3.762a.741.741,0,0,0,.742.677h.018Z" transform="translate(-328.922 -189.326)" fill="#fff"/>
  <path id="Trazado_39" data-name="Trazado 39" d="M469.65,204.258a.718.718,0,0,0,.37.087.731.731,0,0,0,.631-.347,51.326,51.326,0,0,1,3.416-5.047.57.57,0,0,0,.15-.413.734.734,0,0,0-.282-.587.718.718,0,0,0-1,.109h-.021a49.485,49.485,0,0,0-3.523,5.2.737.737,0,0,0-.109.37.7.7,0,0,0,.369.63Z" transform="translate(-341.593 -134.846)" fill="#fff"/>
  <path id="Trazado_40" data-name="Trazado 40" d="M450.856,255.9v.021c-.413,2-.763,4.068-1,6.156v.065a.748.748,0,0,0,.653.739h.086a.728.728,0,0,0,.718-.652,59.507,59.507,0,0,1,.979-6.026v-.152a.727.727,0,0,0-.568-.718.716.716,0,0,0-.868.566Z" transform="translate(-329.714 -170.024)" fill="#fff"/>
  <path id="Trazado_41" data-name="Trazado 41" d="M512.842,428.222c-.009-.006-.02,0-.026-.011s-.014-.026-.026-.026a.744.744,0,0,0-1.023,0,.7.7,0,0,0,0,1.023l.021.021a.071.071,0,0,0,.021.044c.009.006.02,0,.029.011q.963.931,1.88,1.769l-1.6,2.027a.73.73,0,0,0,.111,1.024c.03.021.061.014.091.03a.674.674,0,0,0,.946-.149l2.026-2.56a.733.733,0,0,0-.082-.994c-.76-.687-1.552-1.428-2.364-2.211Z" transform="translate(-367.441 -275.612)" fill="#fff"/>
  <path id="Trazado_42" data-name="Trazado 42" d="M496.03,451.78l-1.677,2.123c-.788-.326-1.627-.656-2.507-.977a.3.3,0,0,1-.036-.024h-.021c-.006,0-.015,0-.021,0a.721.721,0,0,0-.524.029s-.006,0-.009.006a.721.721,0,0,0-.34.357c-.009.02-.033.024-.041.044s.009.036,0,.055a.732.732,0,0,0,.026.5c0,.006.006.015.011.021a.718.718,0,0,0,.407.372q1.6.585,2.994,1.184a.7.7,0,0,0,.287.059.728.728,0,0,0,.574-.279l2.026-2.56a.733.733,0,0,0-1.152-.906Z" transform="translate(-354.769 -289.995)" fill="#fff"/>
  <path id="Trazado_43" data-name="Trazado 43" d="M402.08,446.7a33.716,33.716,0,0,0-6.243,1.545.707.707,0,0,0-.478.677.808.808,0,0,0,.021.237.746.746,0,0,0,.7.5.849.849,0,0,0,.24-.046,30.757,30.757,0,0,1,5.961-1.458.762.762,0,0,0,.628-.718v-.109a.744.744,0,0,0-.825-.628Z" transform="translate(-296.388 -287.052)" fill="#fff"/>
  <path id="Trazado_44" data-name="Trazado 44" d="M372.721,457.326a44.6,44.6,0,0,0-5.287,3.437c-.021.024-.045.046-.065.065a.021.021,0,0,0-.021.021.7.7,0,0,0-.261.566.787.787,0,0,0,.13.435.8.8,0,0,0,.59.282.679.679,0,0,0,.436-.15,44.846,44.846,0,0,1,5.132-3.351c.024,0,.046-.021.065-.046a.732.732,0,0,0,.347-.631.64.64,0,0,0-.086-.347.746.746,0,0,0-.98-.282Z" transform="translate(-279.098 -293.505)" fill="#fff"/>
  <path id="Trazado_45" data-name="Trazado 45" d="M434.214,445.319c-2.023-.109-4.264-.13-6.266-.065H427.9a.071.071,0,0,0-.065.024.714.714,0,0,0-.674.716v.024a.729.729,0,0,0,.739.718h.021c2.153-.086,4.218-.065,6.2.044h.065a.72.72,0,0,0,.718-.7v-.044a.718.718,0,0,0-.7-.721Z" transform="translate(-315.838 -286.153)" fill="#fff"/>
  <path id="Trazado_46" data-name="Trazado 46" d="M347.72,476.832a.021.021,0,0,1-.021.021c-.015.015-.021.04-.036.055q-.9.872-1.745,1.745c-.572-.593-1.169-1.194-1.786-1.786v-.014a.706.706,0,0,0-.7-.111.7.7,0,0,0-.331.144s0,0,0,0-.006,0-.009,0a.746.746,0,0,0,.021,1.024s.014,0,.017.006c.792.762,1.545,1.527,2.261,2.287a.73.73,0,0,0,1.065,0c.716-.759,1.469-1.526,2.263-2.288,0,0,.009,0,.01,0l.021-.024a.755.755,0,0,0,.217-.521.682.682,0,0,0-.2-.5A.774.774,0,0,0,347.72,476.832Z" transform="translate(-264.302 -305.374)" fill="#fff"/>
  <path id="Trazado_47" data-name="Trazado 47" d="M466.567,448.35l-.021-.021c-2.046-.5-4.112-.914-6.222-1.24H460.3a.731.731,0,0,0-.827.609v.109a.707.707,0,0,0,.587.718l.024.021h.064c2.067.3,4.092.718,6.029,1.2a.619.619,0,0,0,.2.021.72.72,0,0,0,.7-.543.686.686,0,0,0-.087-.543.708.708,0,0,0-.419-.326Z" transform="translate(-335.597 -287.292)" fill="#fff"/>
</svg>
