<svg xmlns="http://www.w3.org/2000/svg" xmlns:xlink="http://www.w3.org/1999/xlink" width="227.723" height="228.082" viewBox="0 0 227.723 228.082">
  <defs>
    <clipPath id="clip-path">
      <rect id="Rectángulo_7" data-name="Rectángulo 7" width="227.723" height="228.029" fill="none"/>
    </clipPath>
  </defs>
  <g id="Grupo_33" data-name="Grupo 33" transform="translate(-216 -49.755)">
    <circle id="Elipse_1" data-name="Elipse 1" cx="90.108" cy="90.108" r="90.108" transform="translate(238.548 73.657)" fill="#fff"/>
    <path id="Trazado_1" data-name="Trazado 1" d="M248.83,137.295c-.207-.136-20.638-13.847-20.227-35.108.465-24.313,18.724-27.819,19.5-27.959A.973.973,0,0,0,248.871,73l-5.006-17.509a.973.973,0,0,0-.936-.705c-27.705,0-32.048-17.536-32.222-18.283a.973.973,0,0,0-.948-.756H180.091a.974.974,0,0,0-.949.759c-.042.183-4.433,18.28-32.222,18.28a.974.974,0,0,0-.936.705L140.978,73a.973.973,0,0,0,.769,1.227c.19.032,19.034,3.584,19.5,27.959.411,21.264-20.02,34.974-20.227,35.108a.972.972,0,0,0-.227,1.414l12.8,16.182a.972.972,0,0,0,1.35.173c.067-.05,6.8-5.05,17.956-5.05a39.113,39.113,0,0,1,4.5.265c9.578,1.118,16.616,13.32,16.686,13.444a.973.973,0,0,0,1.691,0c.07-.123,7.092-12.324,16.687-13.444a39.088,39.088,0,0,1,4.5-.265c11.115,0,17.89,5,17.957,5.051a.977.977,0,0,0,1.349-.174l12.8-16.182a.972.972,0,0,0-.226-1.415ZM235.3,152.974a34.607,34.607,0,0,0-18.343-4.908,41,41,0,0,0-4.724.277c-8.63,1.008-15.07,9.632-17.305,13.049-2.235-3.415-8.676-12.04-17.305-13.049a40.966,40.966,0,0,0-4.724-.277,34.614,34.614,0,0,0-18.343,4.908l-11.6-14.669c4.015-2.958,20.621-16.407,20.24-36.159-.432-22.532-15.865-28.4-20.068-29.581l4.528-15.838c25.395-.287,31.96-15.437,33.161-19.035h28.225c1.2,3.6,7.766,18.748,33.158,19.035l4.528,15.838c-4.2,1.18-19.634,7.052-20.065,29.581-.384,19.75,16.222,33.2,20.238,36.159Z" transform="translate(133.991 63.815)" fill="#96bae9" stroke="#96bae9" stroke-width="2"/>
    <path id="Trazado_2" data-name="Trazado 2" d="M197.489,452.511h0a.075.075,0,0,0-.019,0c-.6.217-1.163.441-1.7.662l-1.119-1.414s0,0,0-.006a.451.451,0,0,0-.411-.151.46.46,0,0,0-.27.076c-.03.024-.029.064-.053.093a.449.449,0,0,0-.127.239.492.492,0,0,0,.1.351l1.347,1.7a.484.484,0,0,0,.381.186.489.489,0,0,0,.191-.039q.928-.4,1.991-.788a.048.048,0,0,0,.009-.006h.025c.029-.013.043-.04.07-.058a.5.5,0,0,0,.086-.073.48.48,0,0,0,.15-.331.286.286,0,0,0-.029-.16.479.479,0,0,0-.62-.29Z" transform="translate(94.549 -244.474)" fill="#96bae9" stroke="#96bae9" stroke-width="2"/>
    <path id="Trazado_3" data-name="Trazado 3" d="M226.837,447.1h-.014a40.906,40.906,0,0,0-4.128.826.492.492,0,0,0-.377.462c0,.043.014.088.014.13a.5.5,0,0,0,.478.362.326.326,0,0,0,.116-.014c1.319-.331,2.68-.608,4.056-.811a.473.473,0,0,0,.42-.478V447.5a.5.5,0,0,0-.565-.4Z" transform="translate(73.398 -241.133)" fill="#96bae9" stroke="#96bae9" stroke-width="2"/>
    <path id="Trazado_4" data-name="Trazado 4" d="M259.052,445.268c-1.521-.058-2.883-.043-4.244.029a.476.476,0,0,0-.449.478v.029a.479.479,0,0,0,.478.464h.029a.054.054,0,0,0,.043-.014c1.463-.073,2.853-.073,4.1-.014h.014a.5.5,0,0,0,.492-.478v-.016a.48.48,0,0,0-.464-.478Z" transform="translate(49.644 -239.751)" fill="#96bae9" stroke="#96bae9" stroke-width="2"/>
    <path id="Trazado_5" data-name="Trazado 5" d="M291.368,447.723a22.759,22.759,0,0,0-4.157-1.029.5.5,0,0,0-.551.42v.073a.481.481,0,0,0,.391.478h.072a20.387,20.387,0,0,1,3.926.986.5.5,0,0,0,.144.014.476.476,0,0,0,.464-.318.363.363,0,0,0,.029-.174.483.483,0,0,0-.318-.451Z" transform="translate(25.698 -240.832)" fill="#96bae9" stroke="#96bae9" stroke-width="2"/>
    <path id="Trazado_6" data-name="Trazado 6" d="M317.862,457.361a.112.112,0,0,0-.058-.029.015.015,0,0,0-.014-.016.511.511,0,0,0-.652.2.6.6,0,0,0-.057.231.5.5,0,0,0,.247.42,30.5,30.5,0,0,1,3.448,2.259.44.44,0,0,0,.29.1.515.515,0,0,0,.391-.188.5.5,0,0,0-.087-.682,32.908,32.908,0,0,0-3.507-2.3Z" transform="translate(3.147 -248.672)" fill="#96bae9" stroke="#96bae9" stroke-width="2"/>
    <path id="Trazado_7" data-name="Trazado 7" d="M182.192,428.288s0,0,0,0a.642.642,0,0,0-.682-.008v-.007s0,.007,0,.01c-.539.521-1.065,1.012-1.57,1.47a.485.485,0,0,0-.055.662l1.347,1.7a.486.486,0,1,0,.762-.6l-1.066-1.35c.408-.375.83-.771,1.259-1.186a.486.486,0,0,0,.01-.689s0,0,0,0Z" transform="translate(104.937 -227.098)" fill="#96bae9" stroke="#96bae9" stroke-width="2"/>
    <path id="Trazado_8" data-name="Trazado 8" d="M249.758,287.53a.492.492,0,0,0-.478-.478h-.029a.492.492,0,0,0-.464.492v.014c.014.262.014.521.014.782v.116c.014.231.014.451.014.682,0,.855-.029,1.694-.073,2.492v.029a.454.454,0,0,0,.435.478.05.05,0,0,0,.043.016.5.5,0,0,0,.492-.464c.043-.855.073-1.71.073-2.549v-.812l-.014-.13C249.772,287.978,249.772,287.747,249.758,287.53Z" transform="translate(53.809 -122.486)" fill="#96bae9" stroke="#96bae9" stroke-width="2"/>
    <path id="Trazado_9" data-name="Trazado 9" d="M221.842,202.059l.014.014a.5.5,0,0,0,.405.217.478.478,0,0,0,.246-.058.538.538,0,0,0,.247-.42.591.591,0,0,0-.073-.261,36.126,36.126,0,0,0-2.346-3.447.5.5,0,0,0-.681-.087.508.508,0,0,0-.188.391.447.447,0,0,0,.1.29,33.64,33.64,0,0,1,2.259,3.331.044.044,0,0,1,.015.029Z" transform="translate(75.512 -56.409)" fill="#96bae9" stroke="#96bae9" stroke-width="2"/>
    <path id="Trazado_10" data-name="Trazado 10" d="M198.335,176c-.188-.144-.362-.29-.551-.434a.5.5,0,0,0-.681.087.44.44,0,0,0-.1.29.418.418,0,0,0,.188.391l.1.087.435.348a32.9,32.9,0,0,1,2.506,2.245.505.505,0,0,0,.348.144.533.533,0,0,0,.348-.144.493.493,0,0,0,.13-.348.46.46,0,0,0-.13-.333A32.2,32.2,0,0,0,198.335,176Z" transform="translate(92.166 -39.763)" fill="#96bae9" stroke="#96bae9" stroke-width="2"/>
    <path id="Trazado_11" data-name="Trazado 11" d="M246.41,260.526h.058a.476.476,0,0,0,.42-.492v-.058c-.16-1.39-.377-2.766-.652-4.1a.5.5,0,0,0-.579-.377.481.481,0,0,0-.377.478v.1c.275,1.319.492,2.679.652,4.026a.474.474,0,0,0,.478.42Z" transform="translate(56.375 -99.087)" fill="#96bae9" stroke="#96bae9" stroke-width="2"/>
    <path id="Trazado_12" data-name="Trazado 12" d="M238.067,229.565a.5.5,0,0,0-.014-.145,36.663,36.663,0,0,0-1.463-3.9.493.493,0,0,0-.652-.247.48.48,0,0,0-.29.449.439.439,0,0,0,.043.188,39.385,39.385,0,0,1,1.434,3.8.482.482,0,0,0,.464.348.6.6,0,0,0,.144-.029.469.469,0,0,0,.333-.463Z" transform="translate(63.515 -76.657)" fill="#96bae9" stroke="#96bae9" stroke-width="2"/>
    <path id="Trazado_13" data-name="Trazado 13" d="M219.95,378.784a.484.484,0,0,0-.247-.405.491.491,0,0,0-.666.174c-.666,1.145-1.39,2.3-2.172,3.447a.481.481,0,0,0-.087.275.506.506,0,0,0,.2.4.616.616,0,0,0,.275.088.524.524,0,0,0,.405-.217c.8-1.173,1.55-2.361,2.216-3.505a.584.584,0,0,0,.073-.261Z" transform="translate(77.504 -190.142)" fill="#96bae9" stroke="#96bae9" stroke-width="2"/>
    <path id="Trazado_14" data-name="Trazado 14" d="M234.928,349.562a.488.488,0,0,0-.622.262v.029a.055.055,0,0,0-.014.043c-.464,1.232-.985,2.477-1.564,3.708a.486.486,0,0,0,.231.639.332.332,0,0,0,.2.058.526.526,0,0,0,.449-.275v-.014c.594-1.26,1.13-2.549,1.608-3.824a.743.743,0,0,0,.029-.174A.47.47,0,0,0,234.928,349.562Z" transform="translate(65.713 -168.802)" fill="#96bae9" stroke="#96bae9" stroke-width="2"/>
    <path id="Trazado_15" data-name="Trazado 15" d="M199.731,404.723c-.826,1.058-1.724,2.1-2.65,3.114a.555.555,0,0,0-.13.362.483.483,0,0,0,.16.333.526.526,0,0,0,.333.13.515.515,0,0,0,.362-.16v-.014c.942-1.043,1.84-2.1,2.68-3.158a.472.472,0,0,0,.116-.305.486.486,0,0,0-.188-.377.516.516,0,0,0-.682.074Z" transform="translate(92.204 -209.593)" fill="#96bae9" stroke="#96bae9" stroke-width="2"/>
    <path id="Trazado_16" data-name="Trazado 16" d="M245.072,318.792a.5.5,0,0,0-.565.405,39.021,39.021,0,0,1-.84,3.983.291.291,0,0,0-.014.116.452.452,0,0,0,.348.462.383.383,0,0,0,.13.03.513.513,0,0,0,.478-.362c.348-1.347.638-2.709.869-4.072v-.073a.5.5,0,0,0-.406-.49Z" transform="translate(57.582 -146.011)" fill="#96bae9" stroke="#96bae9" stroke-width="2"/>
    <path id="Trazado_17" data-name="Trazado 17" d="M178.911,157.611c-.006,0-.006-.011-.011-.014q-.806-.47-1.577-.866l.482-1.687c0-.006.007-.007.01-.013a.5.5,0,0,0-.333-.608c-.01,0-.019,0-.029,0a.481.481,0,0,0-.324.036c-.011.006-.022.009-.033.016a.482.482,0,0,0-.211.265c0,.006-.009.007-.011.014a.016.016,0,0,1,0,.007l-.6,2.087a.487.487,0,0,0,.251.569c.607.3,1.237.642,1.881,1.019a.064.064,0,0,1,.013,0,.043.043,0,0,1,.014.007l.014.014a.478.478,0,0,0,.247.058.487.487,0,0,0,.42-.231.5.5,0,0,0,.058-.261.479.479,0,0,0-.231-.405c-.009-.013-.019-.011-.03-.013Z" transform="translate(107.545 -24.155)" fill="#96bae9" stroke="#96bae9" stroke-width="2"/>
    <path id="Trazado_18" data-name="Trazado 18" d="M184.4,136.31h0V136.3c-.01,0-.02.009-.03.011q-1.034.115-2.114.2a.486.486,0,0,0-.43.351l-.6,2.088a.487.487,0,0,0,.333.6.473.473,0,0,0,.133.019.487.487,0,0,0,.468-.354l.5-1.766q.938-.076,1.843-.18a.485.485,0,1,0-.107-.964Z" transform="translate(103.877 -10.73)" fill="#96bae9" stroke="#96bae9" stroke-width="2"/>
    <path id="Trazado_19" data-name="Trazado 19" d="M286.92,87.766a.519.519,0,0,0,.348-.13v-.014a31.157,31.157,0,0,0,2.636-2.912.492.492,0,0,0,.1-.318.484.484,0,0,0-.174-.362.5.5,0,0,0-.7.073,33.619,33.619,0,0,1-2.549,2.839.45.45,0,0,0-.144.348.46.46,0,0,0,.13.333.474.474,0,0,0,.348.143Z" transform="translate(25.86 28.103)" fill="#96bae9" stroke="#96bae9" stroke-width="2"/>
    <path id="Trazado_20" data-name="Trazado 20" d="M266.147,105.062a35.925,35.925,0,0,1-3.157,2.172.485.485,0,1,0,.508.826,33.806,33.806,0,0,0,3.244-2.231.531.531,0,0,0,.188-.391.469.469,0,0,0-.1-.29.5.5,0,0,0-.682-.086Z" transform="translate(43.418 12.502)" fill="#96bae9" stroke="#96bae9" stroke-width="2"/>
    <path id="Trazado_21" data-name="Trazado 21" d="M239.577,120.652a37.231,37.231,0,0,1-3.549,1.463.487.487,0,0,0-.289.623.5.5,0,0,0,.464.333.6.6,0,0,0,.16-.029c1.246-.464,2.476-.971,3.621-1.521a.475.475,0,0,0,.29-.434.334.334,0,0,0-.058-.2.473.473,0,0,0-.64-.232Z" transform="translate(63.469 0.908)" fill="#96bae9" stroke="#96bae9" stroke-width="2"/>
    <path id="Trazado_22" data-name="Trazado 22" d="M207.22,132.647h.1c1.319-.247,2.607-.535,3.824-.869a.455.455,0,0,0,.348-.464.411.411,0,0,0-.014-.13.484.484,0,0,0-.565-.348h-.029a.054.054,0,0,1-.043.014c-1.232.333-2.477.608-3.708.84a.429.429,0,0,0-.3.2.522.522,0,0,0-.087.362.481.481,0,0,0,.478.392Z" transform="translate(84.947 -6.668)" fill="#96bae9" stroke="#96bae9" stroke-width="2"/>
    <path id="Trazado_23" data-name="Trazado 23" d="M308.819,65.244s0,0,.006,0a.461.461,0,0,0,.421-.317c.024-.058.071-.1.071-.171v0a.446.446,0,0,0-.086-.2.456.456,0,0,0-.4-.28h-2.172a.484.484,0,0,0-.43.261c-.3.581-.649,1.2-1.037,1.83,0,.014-.014.029-.029.043a.475.475,0,0,0-.073.246.487.487,0,0,0,.231.42.591.591,0,0,0,.261.073.466.466,0,0,0,.405-.217.014.014,0,0,1,.014-.014.052.052,0,0,1,.007-.022c.349-.568.664-1.119.943-1.647Z" transform="translate(12.037 42.668)" fill="#96bae9" stroke="#96bae9" stroke-width="2"/>
    <path id="Trazado_24" data-name="Trazado 24" d="M344.26,64.289H338.9a.485.485,0,1,0,0,.97h5.359a.485.485,0,1,0,0-.97Z" transform="translate(-12.665 42.657)" fill="#96bae9" stroke="#96bae9" stroke-width="2"/>
    <path id="Trazado_25" data-name="Trazado 25" d="M384.05,66.85c.017-.033.057-.055.066-.09a.477.477,0,0,0-.058-.368c-.395-.644-.745-1.265-1.052-1.854a.489.489,0,0,0-.431-.261H380.4a.485.485,0,1,0,0,.97h1.88c.283.53.6,1.083.946,1.653h0a.475.475,0,0,0,.21.178.492.492,0,0,0,.206.054h.005a.488.488,0,0,0,.236-.07.061.061,0,0,0,.013,0,.462.462,0,0,0,.151-.21Z" transform="translate(-43.435 42.665)" fill="#96bae9" stroke="#96bae9" stroke-width="2"/>
    <path id="Trazado_26" data-name="Trazado 26" d="M426.089,108.065a.479.479,0,0,0,.405-.231.383.383,0,0,0,.073-.247.487.487,0,0,0-.231-.42,33.7,33.7,0,0,1-3.113-2.158c-.016,0-.016-.014-.03-.014a.014.014,0,0,0-.014-.014.5.5,0,0,0-.666.1.393.393,0,0,0-.1.29.51.51,0,0,0,.188.391,35.328,35.328,0,0,0,3.23,2.231.6.6,0,0,0,.26.072Z" transform="translate(-74.939 12.554)" fill="#96bae9" stroke="#96bae9" stroke-width="2"/>
    <path id="Trazado_27" data-name="Trazado 27" d="M448.228,121.485c1.145.535,2.361,1.043,3.636,1.506a.528.528,0,0,0,.16.029.469.469,0,0,0,.449-.318.354.354,0,0,0,.03-.174.483.483,0,0,0-.318-.449c-1.219-.449-2.4-.942-3.534-1.477a.491.491,0,0,0-.652.231.457.457,0,0,0-.042.2.487.487,0,0,0,.261.434c.012,0,.012,0,.012.013Z" transform="translate(-93.876 0.945)" fill="#96bae9" stroke="#96bae9" stroke-width="2"/>
    <path id="Trazado_28" data-name="Trazado 28" d="M401.93,84.032a.5.5,0,0,0-.681-.087.521.521,0,0,0-.188.333.551.551,0,0,0,.1.362,36.454,36.454,0,0,0,2.636,2.926.518.518,0,0,0,.348.13.471.471,0,0,0,.348-.145.493.493,0,0,0,.13-.348.436.436,0,0,0-.147-.333,36.228,36.228,0,0,1-2.546-2.839Z" transform="translate(-59.109 28.157)" fill="#96bae9" stroke="#96bae9" stroke-width="2"/>
    <path id="Trazado_29" data-name="Trazado 29" d="M476.476,131.778c1.216.333,2.506.608,3.825.855a.187.187,0,0,0,.087.014.5.5,0,0,0,.478-.405.187.187,0,0,0,.014-.087.51.51,0,0,0-.4-.478c-1.29-.231-2.551-.521-3.753-.84a.5.5,0,0,0-.592.348.257.257,0,0,0-.016.116.48.48,0,0,0,.361.477Z" transform="translate(-114.751 -6.669)" fill="#96bae9" stroke="#96bae9" stroke-width="2"/>
    <path id="Trazado_30" data-name="Trazado 30" d="M505.712,137.009a.462.462,0,0,0,.3.235c.013,0,.022.017.033.019h.024s.007,0,.011,0c.6.068,1.219.129,1.843.181l.5,1.734c0,.007,0,.016,0,.023a.546.546,0,0,0,.137.2.46.46,0,0,0,.268.141c.026,0,.047.024.074.024.043,0,.087-.014.13-.014.01,0,.011-.013.022-.017a.485.485,0,0,0,.314-.591l-.6-2.089a.487.487,0,0,0-.431-.351c-.725-.057-1.434-.123-2.131-.2-.006,0-.01-.007-.016-.009h-.029a.5.5,0,0,0-.536.434v.043c0,.04.03.068.039.107A.444.444,0,0,0,505.712,137.009Z" transform="translate(-136.626 -10.72)" fill="#96bae9" stroke="#96bae9" stroke-width="2"/>
    <path id="Trazado_31" data-name="Trazado 31" d="M515.275,155.012l.488,1.7c-.511.262-1.036.549-1.567.861,0,0-.01,0-.014,0a.5.5,0,0,0-.174.666l0,0h0a.489.489,0,0,0,.415.241c.022,0,.039-.014.06-.017a.464.464,0,0,0,.188-.05c.645-.377,1.275-.715,1.883-1.02a.486.486,0,0,0,.251-.569l-.6-2.088a.487.487,0,0,0-.937.268Z" transform="translate(-142.795 -24.14)" fill="#96bae9" stroke="#96bae9" stroke-width="2"/>
    <path id="Trazado_32" data-name="Trazado 32" d="M460.761,354.133a.408.408,0,0,0,.217-.058.488.488,0,0,0,.274-.434.46.46,0,0,0-.043-.2c-.578-1.233-1.115-2.493-1.579-3.768a.478.478,0,0,0-.622-.274.451.451,0,0,0-.318.449.364.364,0,0,0,.029.174c.478,1.3,1.014,2.593,1.608,3.824a.478.478,0,0,0,.435.29Z" transform="translate(-101.832 -168.677)" fill="#96bae9" stroke="#96bae9" stroke-width="2"/>
    <path id="Trazado_33" data-name="Trazado 33" d="M457.344,229.539a39.664,39.664,0,0,1,1.434-3.8.425.425,0,0,0,.044-.188.457.457,0,0,0-.29-.449.474.474,0,0,0-.636.247,38.382,38.382,0,0,0-1.479,3.9.486.486,0,0,0-.013.144.471.471,0,0,0,.331.464.647.647,0,0,0,.146.029.485.485,0,0,0,.463-.349Z" transform="translate(-100.138 -76.53)" fill="#96bae9" stroke="#96bae9" stroke-width="2"/>
    <path id="Trazado_34" data-name="Trazado 34" d="M493.328,408.517a.5.5,0,0,0,.331-.13.466.466,0,0,0,.16-.348.452.452,0,0,0-.13-.331c-.912-1-1.811-2.058-2.65-3.114a.483.483,0,0,0-.681-.073.45.45,0,0,0-.188.362.594.594,0,0,0,.1.318.014.014,0,0,1,.014.014c.84,1.045,1.738,2.115,2.682,3.143a.527.527,0,0,0,.363.159Z" transform="translate(-125.17 -209.489)" fill="#96bae9" stroke="#96bae9" stroke-width="2"/>
    <path id="Trazado_35" data-name="Trazado 35" d="M451.55,319.031a.485.485,0,0,0-.565-.405.5.5,0,0,0-.405.478.191.191,0,0,0,.014.088v.014c.217,1.362.507,2.723.855,4.056a.512.512,0,0,0,.478.362c.043,0,.088-.014.13-.014a.481.481,0,0,0,.348-.478.29.29,0,0,0-.014-.116c-.349-1.333-.623-2.666-.841-3.984Z" transform="translate(-95.821 -145.888)" fill="#96bae9" stroke="#96bae9" stroke-width="2"/>
    <path id="Trazado_36" data-name="Trazado 36" d="M473.148,378.378a.492.492,0,0,0-.666-.174.459.459,0,0,0-.231.405.571.571,0,0,0,.058.262c.681,1.173,1.433,2.361,2.215,3.505a.521.521,0,0,0,.405.216.479.479,0,0,0,.275-.087.458.458,0,0,0,.2-.405.6.6,0,0,0-.073-.275c-.794-1.143-1.519-2.3-2.185-3.447Z" transform="translate(-111.887 -190.013)" fill="#96bae9" stroke="#96bae9" stroke-width="2"/>
    <path id="Trazado_37" data-name="Trazado 37" d="M488.77,178.548a.467.467,0,0,0,.145.348.506.506,0,0,0,.348.145.49.49,0,0,0,.331-.145,32.815,32.815,0,0,1,2.477-2.216c.188-.16.377-.3.579-.464a.5.5,0,0,0,.087-.681.48.48,0,0,0-.666-.087h-.014c-.2.16-.391.3-.594.478-.882.709-1.738,1.477-2.549,2.274a.538.538,0,0,0-.143.348Z" transform="translate(-124.133 -39.678)" fill="#96bae9" stroke="#96bae9" stroke-width="2"/>
    <path id="Trazado_38" data-name="Trazado 38" d="M449.141,291.968h.014a.488.488,0,0,0,.449-.478v-.028c-.042-.84-.073-1.664-.073-2.446,0-.262,0-.508.016-.768v-.03c0-.274.014-.551.014-.824v-.031a.481.481,0,0,0-.464-.478h-.014a.486.486,0,0,0-.492.478c0,.275-.016.551-.016.84-.014.261-.014.535-.014.812,0,.855.03,1.694.073,2.5a.493.493,0,0,0,.494.451h.012Z" transform="translate(-94.325 -122.361)" fill="#96bae9" stroke="#96bae9" stroke-width="2"/>
    <path id="Trazado_39" data-name="Trazado 39" d="M469.526,202.1a.478.478,0,0,0,.247.058.487.487,0,0,0,.42-.231,34.179,34.179,0,0,1,2.274-3.361.38.38,0,0,0,.1-.275.489.489,0,0,0-.188-.391.478.478,0,0,0-.666.073H471.7a32.947,32.947,0,0,0-2.346,3.462.49.49,0,0,0-.073.247.466.466,0,0,0,.246.419Z" transform="translate(-109.685 -56.317)" fill="#96bae9" stroke="#96bae9" stroke-width="2"/>
    <path id="Trazado_40" data-name="Trazado 40" d="M450.522,255.708v.014c-.275,1.333-.508,2.709-.666,4.1v.043a.5.5,0,0,0,.435.492h.058a.485.485,0,0,0,.478-.434,39.6,39.6,0,0,1,.652-4.012v-.1a.484.484,0,0,0-.378-.478.477.477,0,0,0-.578.377Z" transform="translate(-95.284 -98.962)" fill="#96bae9" stroke="#96bae9" stroke-width="2"/>
    <path id="Trazado_41" data-name="Trazado 41" d="M512.41,428.142c-.006,0-.013,0-.017-.007s-.009-.017-.017-.017a.5.5,0,0,0-.681,0,.469.469,0,0,0,0,.681l.014.014a.047.047,0,0,0,.014.029c.006,0,.013,0,.019.007q.641.62,1.252,1.178l-1.068,1.35a.486.486,0,0,0,.074.682c.02.014.04.009.061.02a.448.448,0,0,0,.63-.1l1.349-1.7a.488.488,0,0,0-.055-.662c-.506-.458-1.034-.951-1.574-1.472Z" transform="translate(-141.019 -226.962)" fill="#96bae9" stroke="#96bae9" stroke-width="2"/>
    <path id="Trazado_42" data-name="Trazado 42" d="M494.291,451.687l-1.117,1.414c-.524-.217-1.083-.436-1.669-.651a.208.208,0,0,1-.024-.016h-.014s-.01,0-.014,0a.48.48,0,0,0-.349.019s0,0-.006,0a.479.479,0,0,0-.226.237c-.006.013-.022.016-.027.029s.006.024,0,.036a.487.487,0,0,0,.017.33s0,.01.007.014a.478.478,0,0,0,.271.248q1.064.39,1.994.788a.464.464,0,0,0,.191.039.485.485,0,0,0,.382-.186l1.349-1.7a.488.488,0,0,0-.767-.6Z" transform="translate(-125.658 -244.397)" fill="#96bae9" stroke="#96bae9" stroke-width="2"/>
    <path id="Trazado_43" data-name="Trazado 43" d="M399.835,446.693a22.449,22.449,0,0,0-4.157,1.029.471.471,0,0,0-.318.451.537.537,0,0,0,.014.158.5.5,0,0,0,.464.333.566.566,0,0,0,.16-.03,20.477,20.477,0,0,1,3.969-.971.507.507,0,0,0,.418-.478v-.073a.5.5,0,0,0-.55-.418Z" transform="translate(-54.884 -240.829)" fill="#96bae9" stroke="#96bae9" stroke-width="2"/>
    <path id="Trazado_44" data-name="Trazado 44" d="M370.838,457.3a29.69,29.69,0,0,0-3.52,2.289c-.014.016-.03.03-.043.043a.014.014,0,0,0-.014.014.467.467,0,0,0-.174.377.524.524,0,0,0,.087.29.533.533,0,0,0,.393.188.452.452,0,0,0,.29-.1,29.864,29.864,0,0,1,3.417-2.231c.016,0,.03-.014.043-.03a.487.487,0,0,0,.231-.42.426.426,0,0,0-.058-.231.5.5,0,0,0-.653-.188Z" transform="translate(-33.925 -248.653)" fill="#96bae9" stroke="#96bae9" stroke-width="2"/>
    <path id="Trazado_45" data-name="Trazado 45" d="M431.859,445.285c-1.347-.073-2.839-.087-4.172-.043h-.029a.047.047,0,0,0-.043.016.475.475,0,0,0-.449.477v.016a.485.485,0,0,0,.492.478h.014c1.434-.058,2.809-.043,4.129.029h.043a.479.479,0,0,0,.478-.464v-.029a.478.478,0,0,0-.463-.48Z" transform="translate(-78.463 -239.739)" fill="#96bae9" stroke="#96bae9" stroke-width="2"/>
    <path id="Trazado_46" data-name="Trazado 46" d="M346.107,476.77a.014.014,0,0,1-.014.014c-.01.01-.014.026-.024.036q-.6.581-1.162,1.162c-.381-.4-.778-.8-1.189-1.189v-.009a.64.64,0,0,0-.688.022s0,0,0,0l-.006,0a.5.5,0,0,0,.014.682s.009,0,.011,0c.527.507,1.029,1.017,1.506,1.523a.486.486,0,0,0,.709,0c.477-.505.978-1.016,1.507-1.524,0,0,.006,0,.007,0l.014-.016a.5.5,0,0,0,.144-.347.454.454,0,0,0-.13-.333A.515.515,0,0,0,346.107,476.77Z" transform="translate(-15.989 -263.04)" fill="#96bae9" stroke="#96bae9" stroke-width="2"/>
    <path id="Trazado_47" data-name="Trazado 47" d="M464.2,447.926l-.014-.014c-1.362-.333-2.738-.608-4.143-.826h-.014a.487.487,0,0,0-.551.405v.073a.471.471,0,0,0,.391.478l.016.014h.042c1.376.2,2.725.478,4.014.8a.412.412,0,0,0,.13.014.479.479,0,0,0,.464-.362.457.457,0,0,0-.058-.362.471.471,0,0,0-.279-.217Z" transform="translate(-102.416 -241.12)" fill="#96bae9" stroke="#96bae9" stroke-width="2"/>
    <g id="Grupo_23" data-name="Grupo 23" transform="translate(216 49.755)">
      <g id="Grupo_14" data-name="Grupo 14" transform="translate(0 0.053)">
        <g id="Grupo_13" data-name="Grupo 13" clip-path="url(#clip-path)">
          <text id="P" transform="translate(15.856 106.827) rotate(-81.835)" fill="#fff" font-size="20" font-family="BrandonGrotesque-Regular, Brandon Grotesque"><tspan x="0" y="0">P</tspan></text>
          <text id="R" transform="translate(16.773 93.281) rotate(-73.487)" fill="#fff" font-size="19" font-family="BrandonGrotesque-Regular, Brandon Grotesque"><tspan x="0" y="0">R</tspan></text>
        </g>
      </g>
      <text id="E" transform="translate(22.014 79.447) rotate(-65.313)" fill="#fff" font-size="20" font-family="BrandonGrotesque-Regular, Brandon Grotesque"><tspan x="0" y="0">E</tspan></text>
      <text id="M" transform="translate(27.375 67.265) rotate(-55.991)" fill="#fff" font-size="20" font-family="BrandonGrotesque-Regular, Brandon Grotesque"><tspan x="0" y="0">M</tspan></text>
      <text id="I" transform="matrix(0.661, -0.751, 0.751, 0.661, 37.725, 50.914)" fill="#fff" font-size="19" font-family="BrandonGrotesque-Regular, Brandon Grotesque"><tspan x="0" y="0">I</tspan></text>
      <text id="U" transform="translate(42.603 46.508) rotate(-42.15)" fill="#fff" font-size="20" font-family="BrandonGrotesque-Regular, Brandon Grotesque"><tspan x="0" y="0">U</tspan></text>
      <text id="M-2" data-name="M" transform="matrix(0.849, -0.528, 0.528, 0.849, 54.391, 35.667)" fill="#fff" font-size="20" font-family="BrandonGrotesque-Regular, Brandon Grotesque"><tspan x="0" y="0">M</tspan></text>
      <text id="_" data-name=" " transform="translate(68.905 21.343) rotate(-24.613)" fill="#fff" font-size="15" font-family="BrandonGrotesque-Regular, Brandon Grotesque"><tspan x="0" y="0"> </tspan></text>
      <text id="L" transform="matrix(0.939, -0.344, 0.344, 0.939, 75.675, 23.657)" fill="#fff" font-size="20" font-family="BrandonGrotesque-Regular, Brandon Grotesque"><tspan x="0" y="0">L</tspan></text>
      <g id="Grupo_16" data-name="Grupo 16" transform="translate(0 0.053)">
        <g id="Grupo_15" data-name="Grupo 15" clip-path="url(#clip-path)">
          <text id="E-2" data-name="E" transform="translate(86.123 19.768) rotate(-12.384)" fill="#fff" font-size="20" font-family="BrandonGrotesque-Regular, Brandon Grotesque"><tspan x="0" y="0">E</tspan></text>
          <text id="A" transform="matrix(0.997, -0.071, 0.071, 0.997, 99.022, 15.888)" fill="#fff" font-size="19" font-family="BrandonGrotesque-Regular, Brandon Grotesque"><tspan x="0" y="0">A</tspan></text>
          <text id="T" transform="matrix(0.999, 0.051, -0.051, 0.999, 113.125, 14.985)" fill="#fff" font-size="19" font-family="BrandonGrotesque-Regular, Brandon Grotesque"><tspan x="0" y="0">T</tspan></text>
          <text id="H" transform="matrix(0.982, 0.19, -0.19, 0.982, 123.899, 16.338)" fill="#fff" font-size="20" font-family="BrandonGrotesque-Regular, Brandon Grotesque"><tspan x="0" y="0">H</tspan></text>
        </g>
      </g>
      <text id="E-3" data-name="E" transform="translate(140.586 19.783) rotate(19.602)" fill="#fff" font-size="20" font-family="BrandonGrotesque-Regular, Brandon Grotesque"><tspan x="0" y="0">E</tspan></text>
      <text id="R-2" data-name="R" transform="matrix(0.886, 0.465, -0.465, 0.886, 153.607, 23.333)" fill="#fff" font-size="19" font-family="BrandonGrotesque-Regular, Brandon Grotesque"><tspan x="0" y="0">R</tspan></text>
      <text id="_2" data-name=" " transform="matrix(0.834, 0.552, -0.552, 0.834, 168.952, 27.192)" fill="#fff" font-size="15" font-family="BrandonGrotesque-Regular, Brandon Grotesque"><tspan x="0" y="0"> </tspan></text>
      <text id="F" transform="translate(170.613 34.095) rotate(38.805)" fill="#fff" font-size="20" font-family="BrandonGrotesque-Regular, Brandon Grotesque"><tspan x="0" y="0">F</tspan></text>
      <text id="A-2" data-name="A" transform="matrix(0.685, 0.728, -0.728, 0.685, 181.01, 41.075)" fill="#fff" font-size="19" font-family="BrandonGrotesque-Regular, Brandon Grotesque"><tspan x="0" y="0">A</tspan></text>
      <text id="B" transform="matrix(0.568, 0.823, -0.823, 0.568, 190.428, 52.622)" fill="#fff" font-size="20" font-family="BrandonGrotesque-Regular, Brandon Grotesque"><tspan x="0" y="0">B</tspan></text>
      <text id="R-3" data-name="R" transform="translate(199.283 63.712) rotate(63.959)" fill="#fff" font-size="19" font-family="BrandonGrotesque-Regular, Brandon Grotesque"><tspan x="0" y="0">R</tspan></text>
      <text id="I-2" data-name="I" transform="translate(205.626 77.268) rotate(70.214)" fill="#fff" font-size="19" font-family="BrandonGrotesque-Regular, Brandon Grotesque"><tspan x="0" y="0">I</tspan></text>
      <g id="Grupo_18" data-name="Grupo 18" transform="translate(0 0.053)">
        <g id="Grupo_17" data-name="Grupo 17" clip-path="url(#clip-path)">
          <text id="C" transform="translate(207.114 83.58) rotate(76.65)" fill="#fff" font-size="20" font-family="BrandonGrotesque-Regular, Brandon Grotesque"><tspan x="0" y="0">C</tspan></text>
          <text id="_3" data-name=" " transform="translate(215.447 98.455) rotate(82.692)" fill="#fff" font-size="15" font-family="BrandonGrotesque-Regular, Brandon Grotesque"><tspan x="0" y="0"> </tspan></text>
          <text id="_4" data-name=" " transform="translate(216.13 103.918) rotate(85.691)" fill="#fff" font-size="15" font-family="BrandonGrotesque-Regular, Brandon Grotesque"><tspan x="0" y="0"> </tspan></text>
          <text id="_5" data-name=" " transform="translate(216.527 109.407) rotate(88.691)" fill="#fff" font-size="15" font-family="BrandonGrotesque-Regular, Brandon Grotesque"><tspan x="0" y="0"> </tspan></text>
          <text id="_6" data-name=" " transform="translate(216.638 114.943) rotate(91.714)" fill="#fff" font-size="15" font-family="BrandonGrotesque-Regular, Brandon Grotesque"><tspan x="0" y="0"> </tspan></text>
          <text id="P-2" data-name="P" transform="translate(211.663 119.996) rotate(97.074)" fill="#fff" font-size="20" font-family="BrandonGrotesque-Regular, Brandon Grotesque"><tspan x="0" y="0">P</tspan></text>
          <text id="R-4" data-name="R" transform="translate(211.005 133.586) rotate(105.321)" fill="#fff" font-size="19" font-family="BrandonGrotesque-Regular, Brandon Grotesque"><tspan x="0" y="0">R</tspan></text>
        </g>
      </g>
      <text id="E-4" data-name="E" transform="translate(206.069 147.604) rotate(113.65)" fill="#fff" font-size="20" font-family="BrandonGrotesque-Regular, Brandon Grotesque"><tspan x="0" y="0">E</tspan></text>
      <text id="M-3" data-name="M" transform="matrix(-0.55, 0.835, -0.835, -0.55, 200.936, 159.89)" fill="#fff" font-size="20" font-family="BrandonGrotesque-Regular, Brandon Grotesque"><tspan x="0" y="0">M</tspan></text>
      <text id="I-3" data-name="I" transform="translate(190.724 176.363) rotate(131.048)" fill="#fff" font-size="19" font-family="BrandonGrotesque-Regular, Brandon Grotesque"><tspan x="0" y="0">I</tspan></text>
      <text id="U-2" data-name="U" transform="matrix(-0.739, 0.674, -0.674, -0.739, 185.883, 180.789)" fill="#fff" font-size="20" font-family="BrandonGrotesque-Regular, Brandon Grotesque"><tspan x="0" y="0">U</tspan></text>
      <text id="M-4" data-name="M" transform="translate(174.124 191.658) rotate(147.808)" fill="#fff" font-size="20" font-family="BrandonGrotesque-Regular, Brandon Grotesque"><tspan x="0" y="0">M</tspan></text>
      <text id="_7" data-name=" " transform="translate(159.757 206.041) rotate(154.799)" fill="#fff" font-size="15" font-family="BrandonGrotesque-Regular, Brandon Grotesque"><tspan x="0" y="0"> </tspan></text>
      <text id="L-2" data-name="L" transform="matrix(-0.937, 0.35, -0.35, -0.937, 152.937, 203.842)" fill="#fff" font-size="20" font-family="BrandonGrotesque-Regular, Brandon Grotesque"><tspan x="0" y="0">L</tspan></text>
      <g id="Grupo_20" data-name="Grupo 20" transform="translate(0 0.053)">
        <g id="Grupo_19" data-name="Grupo 19" clip-path="url(#clip-path)">
          <text id="E-5" data-name="E" transform="translate(142.542 207.73) rotate(166.52)" fill="#fff" font-size="20" font-family="BrandonGrotesque-Regular, Brandon Grotesque"><tspan x="0" y="0">E</tspan></text>
          <text id="A-3" data-name="A" transform="matrix(-0.996, 0.092, -0.092, -0.996, 129.713, 211.862)" fill="#fff" font-size="19" font-family="BrandonGrotesque-Regular, Brandon Grotesque"><tspan x="0" y="0">A</tspan></text>
          <text id="T-2" data-name="T" transform="matrix(-1, -0.031, 0.031, -1, 115.642, 213.071)" fill="#fff" font-size="19" font-family="BrandonGrotesque-Regular, Brandon Grotesque"><tspan x="0" y="0">T</tspan></text>
          <text id="H-2" data-name="H" transform="translate(104.821 211.941) rotate(-169.883)" fill="#fff" font-size="20" font-family="BrandonGrotesque-Regular, Brandon Grotesque"><tspan x="0" y="0">H</tspan></text>
          <text id="E-6" data-name="E" transform="translate(88.076 208.778) rotate(-160.796)" fill="#fff" font-size="20" font-family="BrandonGrotesque-Regular, Brandon Grotesque"><tspan x="0" y="0">E</tspan></text>
        </g>
      </g>
      <text id="R-5" data-name="R" transform="matrix(-0.887, -0.461, 0.461, -0.887, 75.041, 205.371)" fill="#fff" font-size="19" font-family="BrandonGrotesque-Regular, Brandon Grotesque"><tspan x="0" y="0">R</tspan></text>
      <text id="_8" data-name=" " transform="translate(59.694 201.575) rotate(-146.717)" fill="#fff" font-size="15" font-family="BrandonGrotesque-Regular, Brandon Grotesque"><tspan x="0" y="0"> </tspan></text>
      <text id="F-2" data-name="F" transform="translate(58.003 194.674) rotate(-141.549)" fill="#fff" font-size="20" font-family="BrandonGrotesque-Regular, Brandon Grotesque"><tspan x="0" y="0">F</tspan></text>
      <text id="A-4" data-name="A" transform="translate(47.579 187.764) rotate(-133.926)" fill="#fff" font-size="19" font-family="BrandonGrotesque-Regular, Brandon Grotesque"><tspan x="0" y="0">A</tspan></text>
      <text id="B-2" data-name="B" transform="matrix(-0.583, -0.813, 0.813, -0.583, 38.041, 176.352)" fill="#fff" font-size="20" font-family="BrandonGrotesque-Regular, Brandon Grotesque"><tspan x="0" y="0">B</tspan></text>
      <text id="R-6" data-name="R" transform="translate(28.951 165.399) rotate(-117.252)" fill="#fff" font-size="19" font-family="BrandonGrotesque-Regular, Brandon Grotesque"><tspan x="0" y="0">R</tspan></text>
      <text id="I-4" data-name="I" transform="translate(22.333 152.001) rotate(-110.924)" fill="#fff" font-size="19" font-family="BrandonGrotesque-Regular, Brandon Grotesque"><tspan x="0" y="0">I</tspan></text>
      <g id="Grupo_22" data-name="Grupo 22" transform="translate(0 0.053)">
        <g id="Grupo_21" data-name="Grupo 21" clip-path="url(#clip-path)">
          <text id="C-2" data-name="C" transform="translate(20.707 145.589) rotate(-104.248)" fill="#fff" font-size="20" font-family="BrandonGrotesque-Regular, Brandon Grotesque"><tspan x="0" y="0">C</tspan></text>
        </g>
      </g>
    </g>
  </g>
</svg>
