<svg width="179" height="179" viewBox="0 0 179 179" fill="none" xmlns="http://www.w3.org/2000/svg">
<path d="M29.4961 124.311C37.7476 138.367 50.6801 149.084 66.0389 154.593C81.3978 160.103 98.2086 160.055 113.541 154.459C128.873 148.863 141.753 138.074 149.937 123.972C158.12 109.87 161.087 93.3497 158.321 77.2918" stroke="#344E62" stroke-width="0.801749" stroke-miterlimit="10"/>
<path d="M148.723 80.7894C150.626 94.2936 147.83 108.043 140.802 119.74C133.773 131.438 122.937 140.375 110.105 145.059C97.2725 149.742 83.2206 149.889 70.2968 145.474C57.373 141.059 46.36 132.349 39.0977 120.801" stroke="#344E62" stroke-width="0.801749" stroke-miterlimit="10"/>
<path d="M76.7347 89.5996C76.8 89.675 76.9343 89.774 76.9178 89.8201C75.914 92.6322 77.5199 94.5145 79.2123 96.3966C82.3324 99.8901 86.2659 102.563 90.666 104.18C92.8177 104.98 94.4986 104.336 95.4108 102.459C96.121 100.998 95.898 100.522 94.4465 99.6708C91.1231 97.7219 87.8053 95.7592 84.5524 93.6976C83.1446 92.8053 81.9323 91.6141 80.5751 90.6357C79.604 89.9358 78.5394 89.3641 77.5573 88.7603C76.9903 87.7229 76.3414 86.7323 75.6168 85.7978C72.4195 82.2254 70.8421 78.228 72.5828 73.5332C73.285 71.86 74.2634 70.3162 75.4773 68.966C76.4613 67.7915 77.1292 68.0589 77.7884 69.4323C79.5241 73.0482 82.5157 75.5755 85.4758 78.1248C85.5865 78.2305 85.7143 78.3167 85.8538 78.38C86.5942 78.6639 87.6318 79.3757 88.0267 79.118C88.505 78.8136 88.8589 78.3488 89.0247 77.8074C89.1905 77.2659 89.1573 76.6832 88.9312 76.1642C87.4035 72.3651 84.5344 69.257 80.8662 67.4272C80.3964 67.1754 79.9166 66.9415 79.3589 66.6572C82.6532 64.268 87.6895 63.6501 91.1727 65.5219C92.2287 66.049 93.0815 66.9085 93.5994 67.9677C94.1174 69.0269 94.2716 70.227 94.0385 71.3827C93.8583 72.6364 93.4502 73.8468 92.8342 74.9542C91.8421 76.5323 90.6719 77.9914 89.3465 79.3031C88.4462 80.1954 88.5089 80.6555 89.4499 81.2951C92.0919 83.0909 94.7036 84.9311 97.3625 86.7015C98.6128 87.534 99.12 87.2598 99.4216 85.7558C99.8771 83.4846 100.215 81.1814 100.83 78.953C101.41 76.8523 103.232 76.1241 105.203 75.9734C107.763 75.7778 109.963 79.1285 108.952 81.6265C108.596 82.4083 108.147 83.144 107.613 83.8172C107.036 84.6054 107.089 85.1008 108.097 85.3557C108.442 85.443 108.774 85.5788 109.116 85.679C115.225 87.4685 116.814 95.4914 112.095 99.9766C110.426 101.645 108.264 102.734 105.928 103.083C103.593 103.432 101.207 103.023 99.1227 101.915C97.4117 101.051 96.7552 100.884 95.8437 103.133C94.1432 107.328 90.7117 109.548 86.5044 111.017C84.8997 111.656 83.1757 111.942 81.4503 111.854C79.725 111.767 78.0392 111.309 76.5082 110.51C74.3177 109.461 72.5674 107.675 71.5639 105.466C70.5604 103.257 70.3677 100.766 71.0196 98.4283C71.8824 95.1692 73.6416 92.2159 76.0981 89.9024C76.2042 89.793 76.3225 89.696 76.4505 89.6132C76.5241 89.5718 76.6377 89.6011 76.7347 89.5996ZM104.862 83.7788C104.847 83.4857 104.766 83.1998 104.624 82.9428C104.482 82.6859 104.283 82.4647 104.043 82.2962C103.802 82.1277 103.526 82.0162 103.236 81.9704C102.946 81.9245 102.649 81.9454 102.368 82.0316C100.29 82.5974 98.8382 87.4139 100.499 88.7374C101.711 89.6369 103.119 90.2383 104.608 90.4927C105.296 90.6224 106.449 89.8718 106.906 89.1959C107.06 88.8172 107.133 88.4103 107.12 88.0018C107.106 87.5932 107.007 87.192 106.829 86.8241C106.261 85.755 105.603 84.7361 104.862 83.7788Z" fill="#344E62"/>
<path d="M22.0211 111.016C21.9873 111.024 21.9521 111.026 21.9176 111.021C21.8831 111.016 21.85 111.004 21.8201 110.986C21.7903 110.968 21.7642 110.944 21.7436 110.916C21.7229 110.888 21.7079 110.856 21.6996 110.822L20.334 105.303C20.3257 105.27 20.324 105.234 20.3293 105.2C20.3345 105.166 20.3464 105.132 20.3644 105.103C20.3824 105.073 20.4061 105.047 20.4342 105.026C20.4622 105.005 20.4941 104.991 20.5279 104.982L21.6395 104.707C21.7079 104.69 21.7801 104.701 21.8404 104.738C21.9007 104.774 21.9442 104.833 21.9612 104.901L22.9541 108.915L25.5032 108.284L24.6744 104.935C24.6599 104.867 24.6718 104.796 24.7078 104.736C24.7438 104.676 24.8012 104.633 24.8683 104.614L25.9809 104.338C26.0489 104.324 26.1199 104.336 26.1794 104.372C26.2389 104.408 26.2825 104.465 26.3014 104.532L27.1309 107.881L30.5608 107.033C30.6289 107.018 30.7 107.03 30.7597 107.066C30.8194 107.102 30.8632 107.159 30.8822 107.226L31.1909 108.474C31.1993 108.508 31.2009 108.543 31.1957 108.578C31.1905 108.612 31.1786 108.645 31.1606 108.675C31.1425 108.705 31.1188 108.731 31.0908 108.751C31.0627 108.772 31.0309 108.787 30.997 108.795L22.0211 111.016Z" fill="#344E62"/>
<path d="M19.1448 97.253C19.0606 96.2625 19.272 95.2693 19.7522 94.399C20.2324 93.5287 20.96 92.8203 21.8428 92.3635C22.7256 91.9066 23.7241 91.7218 24.712 91.8324C25.6998 91.9431 26.6327 92.3441 27.3926 92.9849C28.1525 93.6257 28.7054 94.4775 28.9812 95.4325C29.257 96.3875 29.2435 97.4028 28.9423 98.3501C28.6411 99.2974 28.0657 100.134 27.289 100.754C26.5122 101.375 25.569 101.751 24.5785 101.835C23.9207 101.892 23.258 101.819 22.6285 101.619C21.999 101.42 21.4152 101.098 20.9103 100.672C20.4055 100.246 19.9897 99.7253 19.6867 99.1386C19.3838 98.5518 19.1996 97.911 19.1448 97.253ZM27.3539 96.5776C27.3044 95.9433 27.0676 95.338 26.6735 94.8385C26.2794 94.339 25.7458 93.9679 25.1404 93.7721C24.535 93.5764 23.8851 93.565 23.2732 93.7392C22.6613 93.9135 22.115 94.2656 21.7035 94.7509C21.2921 95.2362 21.034 95.8328 20.9622 96.465C20.8904 97.0971 21.008 97.7364 21.3001 98.3016C21.5922 98.8668 22.0457 99.3326 22.6029 99.6396C23.1601 99.9467 23.796 100.081 24.4299 100.026C25.2729 99.9515 26.0524 99.5476 26.5997 98.9021C27.1469 98.2566 27.4179 97.4215 27.3539 96.5776Z" fill="#344E62"/>
<path d="M19.295 88.4231C19.2604 88.4202 19.2266 88.4104 19.1958 88.3943C19.165 88.3782 19.1376 88.3562 19.1153 88.3295C19.0931 88.3028 19.0763 88.272 19.066 88.2388C19.0556 88.2056 19.052 88.1706 19.0552 88.136L19.4157 84.1593C19.483 83.3605 19.8647 82.6212 20.4769 82.1037C21.0891 81.5863 21.8817 81.3331 22.6805 81.3997C23.3003 81.4742 23.8828 81.7353 24.3509 82.1483C24.819 82.5613 25.1506 83.1068 25.3017 83.7125L29.0063 82.1284C29.0494 82.1063 29.0978 82.0965 29.1461 82.1C29.1944 82.1035 29.2408 82.1202 29.2803 82.1484C29.3197 82.1765 29.3506 82.215 29.3697 82.2596C29.3887 82.3041 29.3951 82.353 29.3882 82.401L29.2555 83.8609C29.2539 83.9063 29.2393 83.9502 29.2137 83.9877C29.188 84.0251 29.1521 84.0544 29.1104 84.0722L25.2581 85.587L25.118 87.1303L28.663 87.452C28.7322 87.4605 28.7955 87.495 28.8401 87.5485C28.8848 87.602 28.9074 87.6705 28.9034 87.74L28.7871 89.0193C28.784 89.054 28.774 89.0878 28.7578 89.1187C28.7416 89.1496 28.7195 89.1769 28.6927 89.1993C28.6659 89.2216 28.635 89.2384 28.6017 89.2487C28.5684 89.2591 28.5334 89.2627 28.4987 89.2595L19.295 88.4231ZM23.8376 84.7144C23.8605 84.3444 23.7381 83.9801 23.4965 83.699C23.2548 83.4179 22.9129 83.2423 22.5437 83.2094C22.1833 83.1858 21.8279 83.3036 21.5529 83.5378C21.2779 83.7719 21.1049 84.104 21.0707 84.4636L20.8644 86.7299L23.6313 86.9807L23.8376 84.7144Z" fill="#344E62"/>
<path d="M21.6042 73.3505C21.537 73.3297 21.4808 73.2832 21.4479 73.221C21.4151 73.1588 21.4082 73.0862 21.429 73.019L22.3938 69.8822C22.5124 69.4902 22.7072 69.1255 22.967 68.8088C23.2268 68.4922 23.5465 68.23 23.9078 68.0371C24.2691 67.8442 24.6649 67.7245 25.0725 67.6848C25.4801 67.6451 25.8916 67.6862 26.2833 67.8057C26.675 67.9252 27.0393 68.1209 27.3553 68.3814C27.6713 68.6419 27.9329 68.9622 28.1249 69.3239C28.317 69.6857 28.4358 70.0817 28.4746 70.4894C28.5133 70.8972 28.4713 71.3085 28.3509 71.7L27.8384 73.3684L30.9749 74.3339C31.0406 74.3565 31.0954 74.4033 31.1279 74.4647C31.1605 74.5262 31.1684 74.5977 31.1502 74.6648L30.773 75.8939C30.7522 75.9611 30.7056 76.0172 30.6435 76.0501C30.5813 76.0829 30.5087 76.0898 30.4415 76.0691L21.6042 73.3505ZM26.686 71.3192C26.7417 71.1375 26.761 70.9465 26.7426 70.7574C26.7242 70.5682 26.6685 70.3845 26.5787 70.217C26.489 70.0495 26.367 69.9013 26.2197 69.7812C26.0724 69.6611 25.9028 69.5713 25.7207 69.517C25.5437 69.4679 25.3588 69.4542 25.1765 69.4767C24.9943 69.4993 24.8183 69.5576 24.6587 69.6484C24.499 69.7392 24.3589 69.8606 24.2464 70.0057C24.1338 70.1509 24.0511 70.3168 24.0029 70.494L23.5264 72.0419L26.2094 72.8677L26.686 71.3192Z" fill="#344E62"/>
<path d="M32.3358 69.4453L25.6634 61.5278C25.6295 61.4905 25.6077 61.4438 25.6008 61.3939C25.5939 61.344 25.6023 61.2932 25.6249 61.2481L25.6839 61.1216C25.7025 61.0741 25.736 61.0338 25.7792 61.0068C25.8225 60.9798 25.8733 60.9674 25.9241 60.9714L36.2601 61.0585C36.3045 61.0559 36.3487 61.0655 36.3881 61.086C36.4275 61.1066 36.4607 61.1374 36.484 61.1752C36.5073 61.213 36.52 61.2565 36.5207 61.3009C36.5214 61.3454 36.5101 61.3892 36.4879 61.4277L35.974 62.5284C35.9408 62.611 35.881 62.6803 35.8041 62.7253C35.7272 62.7703 35.6375 62.7885 35.5491 62.7771L33.893 62.7576L32.1232 66.5397L33.1991 67.7989C33.262 67.861 33.3037 67.9413 33.3183 68.0284C33.3329 68.1155 33.3197 68.205 33.2805 68.2842L32.7652 69.3842C32.7499 69.4259 32.7235 69.4627 32.6889 69.4907C32.6543 69.5186 32.6128 69.5367 32.5688 69.543C32.5248 69.5492 32.4799 69.5434 32.4388 69.5263C32.3978 69.5091 32.3622 69.4811 32.3358 69.4453ZM32.1984 62.7202L28.824 62.683L28.806 62.7215L31.0088 65.2626L32.1984 62.7202Z" fill="#344E62"/>
<path d="M29.5821 54.542C29.5532 54.5226 29.5284 54.4976 29.5091 54.4686C29.4898 54.4396 29.4765 54.4071 29.4698 54.3729C29.4631 54.3387 29.4633 54.3035 29.4702 54.2694C29.4772 54.2353 29.4908 54.2028 29.5103 54.174L31.7419 50.8617C32.1857 50.194 32.8765 49.7297 33.6624 49.571C34.4483 49.4123 35.2651 49.5721 35.9333 50.0153C36.4407 50.3791 36.8257 50.8885 37.0371 51.476C37.2485 52.0636 37.2764 52.7015 37.117 53.3052L41.1276 53.7012C41.176 53.7026 41.2232 53.7173 41.2638 53.7436C41.3044 53.77 41.337 53.8071 41.358 53.8508C41.379 53.8945 41.3875 53.9431 41.3827 53.9913C41.3778 54.0396 41.3598 54.0855 41.3306 54.1242L40.5114 55.3406C40.4881 55.3795 40.4541 55.411 40.4135 55.4312C40.3729 55.4514 40.3273 55.4596 40.2822 55.4548L36.1763 54.9269L35.3094 56.2124L38.2621 58.2025C38.3187 58.2433 38.3575 58.3041 38.3709 58.3725C38.3843 58.4409 38.3711 58.5119 38.3342 58.571L37.6164 59.6362C37.5969 59.665 37.572 59.6898 37.543 59.7091C37.514 59.7283 37.4814 59.7416 37.4473 59.7483C37.4131 59.755 37.3779 59.7548 37.3438 59.7479C37.3097 59.741 37.2773 59.7274 37.2484 59.708L29.5821 54.542ZM35.3506 53.4785C35.549 53.1653 35.6174 52.787 35.5411 52.4242C35.4647 52.0613 35.2497 51.7426 34.9419 51.5359C34.6372 51.3414 34.2687 51.2733 33.9146 51.3461C33.5605 51.4188 33.2488 51.6267 33.0454 51.9255L31.7736 53.8128L34.0788 55.3659L35.3506 53.4785Z" fill="#344E62"/>
<path d="M36.0684 45.5715C36.0165 45.524 35.9856 45.4578 35.9825 45.3876C35.9793 45.3174 36.0042 45.2487 36.0516 45.1968L39.8891 41.0069C39.9127 40.9811 39.941 40.9603 39.9726 40.9455C40.0042 40.9307 40.0384 40.9223 40.0733 40.9208C40.1081 40.9193 40.1429 40.9247 40.1757 40.9366C40.2085 40.9486 40.2386 40.9669 40.2642 40.9905L41.1082 41.763C41.1601 41.8106 41.191 41.8768 41.1942 41.9472C41.1973 42.0175 41.1724 42.0863 41.1249 42.1383L38.3335 45.1853L40.0227 46.7315L42.3514 44.1884C42.4002 44.1387 42.466 44.1094 42.5356 44.1063C42.6052 44.1033 42.6734 44.1268 42.7263 44.1721L43.5805 44.9548C43.6324 45.0024 43.6632 45.0686 43.6664 45.139C43.6695 45.2093 43.6447 45.278 43.5973 45.33L41.2684 47.8726L43.0696 49.522L45.8613 46.4749C45.9087 46.4232 45.9747 46.3923 46.0448 46.3892C46.1149 46.3861 46.1834 46.411 46.2352 46.4584L47.0798 47.2312C47.1055 47.2548 47.1263 47.2832 47.141 47.3147C47.1557 47.3463 47.1641 47.3805 47.1656 47.4154C47.1671 47.4502 47.1617 47.485 47.1497 47.5177C47.1377 47.5505 47.1194 47.5805 47.0958 47.6062L43.2589 51.797C43.2353 51.8227 43.2069 51.8435 43.1753 51.8581C43.1437 51.8728 43.1095 51.8812 43.0746 51.8826C43.0398 51.8841 43.005 51.8787 42.9723 51.8667C42.9396 51.8547 42.9095 51.8364 42.8838 51.8128L36.0684 45.5715Z" fill="#344E62"/>
<path d="M42.9503 38.2003C42.9103 38.145 42.8934 38.0764 42.9032 38.0089C42.9129 37.9414 42.9486 37.8803 43.0027 37.8387L43.2766 37.6224L51.66 38.8653L51.6711 38.8566L48.0966 34.3304C48.075 34.3031 48.059 34.2718 48.0495 34.2383C48.04 34.2048 48.0373 34.1698 48.0414 34.1352C48.0455 34.1007 48.0564 34.0673 48.0735 34.0369C48.0905 34.0066 48.1134 33.9799 48.1408 33.9585L49.1485 33.1627C49.2045 33.1212 49.2741 33.1026 49.3433 33.1106C49.4125 33.1186 49.476 33.1527 49.521 33.206L55.3461 40.5803C55.3861 40.6356 55.4029 40.7044 55.393 40.7719C55.3831 40.8394 55.3473 40.9004 55.2932 40.942L55.0307 41.1496L46.4776 39.738L46.4666 39.7461L50.1889 44.4582C50.2324 44.5135 50.2521 44.5837 50.2439 44.6536C50.2356 44.7234 50.2 44.7871 50.1448 44.8307L49.1476 45.6185C49.0915 45.66 49.0218 45.6786 48.9526 45.6704C48.8834 45.6623 48.8198 45.6281 48.775 45.5748L42.9503 38.2003Z" fill="#344E62"/>
<path d="M55.0329 31.4793L53.1756 32.5355C53.1145 32.5701 53.0421 32.5791 52.9743 32.5605C52.9065 32.5418 52.8489 32.4971 52.8141 32.436L52.2477 31.4406C52.2305 31.4103 52.2194 31.3769 52.215 31.3423C52.2107 31.3077 52.2132 31.2726 52.2225 31.239C52.2317 31.2054 52.2475 31.1739 52.269 31.1464C52.2904 31.1189 52.317 31.0959 52.3473 31.0787L57.6508 28.0618C57.7121 28.0271 57.7847 28.0181 57.8526 28.0368C57.9205 28.0555 57.9782 28.1004 58.0131 28.1616L58.5792 29.1565C58.614 29.2177 58.623 29.2902 58.6043 29.358C58.5856 29.4259 58.5408 29.4835 58.4796 29.5184L56.6228 30.575L60.4957 37.3835C60.528 37.4451 60.5358 37.5168 60.5173 37.5839C60.4989 37.6511 60.4556 37.7087 60.3963 37.7452L59.2676 38.3871C59.2059 38.4196 59.1342 38.4274 59.067 38.409C58.9997 38.3906 58.942 38.3473 58.9056 38.2878L55.0329 31.4793Z" fill="#344E62"/>
<path d="M63.3626 34.608L63.4966 33.6159C63.5024 33.5705 63.5179 33.5269 63.5419 33.4878C63.5659 33.4488 63.5979 33.4154 63.6358 33.3897C63.6736 33.364 63.7166 33.3466 63.7617 33.3387C63.8068 33.3309 63.8531 33.3327 63.8974 33.3441C63.9781 33.3559 65.3381 33.6846 66.177 33.338C66.3251 33.2923 66.4626 33.2175 66.5814 33.118C66.7003 33.0185 66.7981 32.8963 66.8692 32.7585C66.9403 32.6208 66.9832 32.4703 66.9954 32.3157C67.0077 32.1612 66.989 32.0058 66.9405 31.8586C66.6678 31.2004 65.9261 30.9781 64.6609 30.9882C63.2452 31.0002 61.712 30.727 61.0823 29.2044C60.6068 28.0557 60.9093 26.3749 62.961 25.526C63.8967 25.1598 64.9221 25.089 65.8992 25.3232C65.9831 25.3451 66.0557 25.3977 66.1026 25.4707C66.1495 25.5436 66.1672 25.6315 66.1522 25.717L65.9666 26.6552C65.96 26.7517 65.9155 26.8418 65.8429 26.9057C65.7702 26.9697 65.6753 27.0024 65.5787 26.9967C64.8896 26.8471 64.1755 26.858 63.4913 27.0285C63.2085 27.1101 62.9695 27.3005 62.8267 27.558C62.684 27.8155 62.6491 28.119 62.7297 28.4022C62.9804 29.0081 63.6286 29.2237 64.8497 29.2169C66.3102 29.2026 68.0646 29.3534 68.7533 31.0183C69.3029 32.3472 68.662 34.0478 66.842 34.8008C65.8164 35.2625 64.6549 35.3223 63.5872 34.9685C63.4234 34.9004 63.3321 34.8623 63.3626 34.608Z" fill="#344E62"/>
<path d="M71.746 30.6147C72.3207 30.4403 73.2256 30.6316 73.6282 31.9554C73.8097 32.5232 73.8456 33.1275 73.7327 33.7128C73.6198 34.2981 73.3617 34.8457 72.9821 35.3053C72.9658 35.334 72.9437 35.359 72.917 35.3786C72.8904 35.3982 72.86 35.412 72.8277 35.419C72.7954 35.4261 72.762 35.4262 72.7296 35.4195C72.6972 35.4128 72.6667 35.3993 72.6399 35.3799L72.3746 35.2268C72.3437 35.2078 72.3174 35.1822 72.2974 35.1519C72.2775 35.1216 72.2644 35.0873 72.259 35.0514C72.2536 35.0156 72.2561 34.9789 72.2663 34.9441C72.2765 34.9093 72.2942 34.8771 72.3181 34.8498C72.5567 34.5272 72.7228 34.1568 72.805 33.764C72.8872 33.3712 72.8836 32.9653 72.7943 32.5741C72.6531 32.6894 72.4918 32.7778 72.3186 32.8348C72.0316 32.9184 71.7232 32.8864 71.4595 32.7456C71.1957 32.6048 70.9975 32.3664 70.9073 32.0814C70.8643 31.93 70.852 31.7716 70.871 31.6154C70.8901 31.4592 70.9402 31.3083 71.0183 31.1717C71.0964 31.0351 71.201 30.9155 71.3259 30.8198C71.4509 30.7242 71.5937 30.6544 71.746 30.6147Z" fill="#344E62"/>
<path d="M78.1727 21.4653C78.1682 21.4308 78.1705 21.3957 78.1795 21.3621C78.1885 21.3285 78.2041 21.297 78.2254 21.2694C78.2466 21.2418 78.2731 21.2187 78.3033 21.2014C78.3335 21.1841 78.3668 21.1729 78.4014 21.1685L81.5711 20.7549C83.2186 20.5401 84.6367 21.482 84.8258 22.9352C84.8527 23.4089 84.7522 23.8813 84.535 24.3031C84.3177 24.7249 83.9914 25.0809 83.5901 25.3341C84.106 25.4118 84.5848 25.6484 84.96 26.0108C85.3353 26.3733 85.5883 26.8436 85.6839 27.3565C85.8856 28.9066 84.7028 30.2014 83.0142 30.4213L79.6639 30.8577C79.6294 30.8622 79.5944 30.8599 79.5608 30.8509C79.5272 30.8419 79.4957 30.8264 79.4681 30.8052C79.4406 30.784 79.4174 30.7576 79.4001 30.7275C79.3827 30.6974 79.3715 30.6641 79.367 30.6296L78.1727 21.4653ZM82.6488 28.8083C82.8143 28.7881 82.974 28.735 83.1185 28.6521C83.2631 28.5692 83.3895 28.4581 83.4903 28.3254C83.5912 28.1928 83.6644 28.0412 83.7056 27.8798C83.7469 27.7183 83.7553 27.5502 83.7304 27.3854C83.6511 27.0459 83.4436 26.7502 83.1512 26.5602C82.8589 26.3702 82.5044 26.3005 82.1619 26.3659L80.6527 26.5623L80.974 29.026L82.6488 28.8083ZM81.9357 24.8467C82.0971 24.8264 82.2526 24.7733 82.3928 24.6908C82.533 24.6084 82.6549 24.4982 82.7511 24.367C82.8473 24.2359 82.9157 24.0865 82.9522 23.928C82.9888 23.7695 82.9926 23.6052 82.9635 23.4452C82.9498 23.2869 82.9031 23.1332 82.8264 22.994C82.7497 22.8548 82.6447 22.7332 82.5182 22.637C82.3917 22.5409 82.2464 22.4723 82.0918 22.4357C81.9371 22.399 81.7765 22.3952 81.6203 22.4244L80.1389 22.617L80.4547 25.0398L81.9357 24.8467Z" fill="#344E62"/>
<path d="M90.2124 25.2796L87.0905 20.5759C87.0638 20.536 87.0487 20.4895 87.0469 20.4416C87.0452 20.3937 87.0569 20.3462 87.0806 20.3045C87.1044 20.2628 87.1392 20.2286 87.1814 20.2056C87.2235 20.1827 87.2712 20.1719 87.3191 20.1746L88.7429 20.1927C88.7874 20.1947 88.8309 20.2073 88.8695 20.2297C88.9082 20.252 88.9408 20.2833 88.9648 20.3209L91.1566 23.5614L93.4314 20.3791C93.4564 20.3422 93.4899 20.3118 93.529 20.2905C93.5682 20.2691 93.6119 20.2575 93.6564 20.2566L95.0944 20.2753C95.1424 20.274 95.1898 20.286 95.2313 20.3101C95.2728 20.3342 95.3068 20.3694 95.3295 20.4117C95.3521 20.4541 95.3625 20.5019 95.3595 20.5498C95.3565 20.5977 95.3402 20.6438 95.3124 20.683L92.0273 25.2894L91.9696 29.7422C91.9662 29.8118 91.9366 29.8775 91.8867 29.9261C91.8368 29.9748 91.7704 30.0027 91.7008 30.0043L90.4166 29.9871C90.3818 29.9867 90.3474 29.9795 90.3154 29.9658C90.2834 29.9521 90.2544 29.9322 90.2301 29.9073C90.2058 29.8824 90.1866 29.8529 90.1738 29.8206C90.1609 29.7883 90.1545 29.7537 90.155 29.7189L90.2124 25.2796Z" fill="#344E62"/>
<path d="M102.413 21.4734C102.42 21.4393 102.434 21.407 102.454 21.3783C102.474 21.3496 102.499 21.3251 102.528 21.3062C102.558 21.2873 102.59 21.2744 102.625 21.2681C102.659 21.2619 102.694 21.2625 102.728 21.2699L105.936 21.9634C106.336 22.0482 106.716 22.2113 107.054 22.4431C107.391 22.675 107.68 22.9711 107.902 23.3145C108.125 23.658 108.278 24.042 108.353 24.4447C108.427 24.8473 108.421 25.2607 108.335 25.661C108.25 26.0614 108.086 26.441 107.853 26.778C107.621 27.115 107.324 27.4029 106.98 27.6251C106.636 27.8473 106.252 27.9995 105.849 28.073C105.447 28.1465 105.033 28.1399 104.633 28.0535L102.927 27.6851L102.233 30.8923C102.217 30.9598 102.175 31.0184 102.116 31.0562C102.058 31.094 101.987 31.1081 101.918 31.0958L100.662 30.8244C100.628 30.817 100.596 30.803 100.568 30.7832C100.539 30.7634 100.515 30.7381 100.496 30.7089C100.477 30.6796 100.464 30.647 100.458 30.6127C100.452 30.5785 100.452 30.5434 100.46 30.5093L102.413 21.4734ZM104.871 26.3625C105.057 26.4025 105.248 26.4052 105.435 26.3707C105.622 26.3361 105.8 26.2649 105.96 26.1611C106.119 26.0574 106.256 25.9231 106.363 25.7661C106.47 25.6092 106.545 25.4325 106.583 25.2464C106.617 25.066 106.615 24.8807 106.577 24.7011C106.539 24.5215 106.466 24.3512 106.362 24.1999C106.258 24.0487 106.125 23.9195 105.971 23.8197C105.817 23.72 105.644 23.6517 105.464 23.6188L103.88 23.2762L103.287 26.0199L104.871 26.3625Z" fill="#344E62"/>
<path d="M107.229 31.8304L114.548 24.5101C114.582 24.4733 114.627 24.4477 114.676 24.4365C114.725 24.4254 114.777 24.4292 114.824 24.4474L114.955 24.496C115.004 24.5106 115.047 24.5404 115.077 24.5811C115.108 24.6218 115.124 24.6713 115.125 24.7222L115.918 35.0263C115.924 35.0703 115.918 35.1152 115.901 35.1562C115.884 35.1972 115.856 35.2329 115.821 35.2593C115.785 35.2858 115.743 35.3022 115.699 35.3067C115.654 35.3112 115.61 35.3036 115.569 35.2848L114.429 34.8652C114.344 34.8392 114.27 34.7856 114.219 34.7128C114.167 34.6401 114.141 34.5523 114.146 34.4634L114.024 32.8121L110.106 31.3708L108.943 32.5503C108.887 32.6181 108.81 32.6664 108.725 32.6883C108.639 32.7103 108.549 32.7047 108.467 32.6725L107.326 32.2535C107.284 32.2416 107.245 32.2183 107.214 32.1861C107.184 32.154 107.162 32.1142 107.152 32.0709C107.142 32.0276 107.144 31.9824 107.158 31.9401C107.171 31.8977 107.196 31.8599 107.229 31.8304ZM113.917 31.1214L113.667 27.7564L113.627 27.7423L111.283 30.1525L113.917 31.1214Z" fill="#344E62"/>
<path d="M121.844 27.8203C121.861 27.7898 121.884 27.7629 121.911 27.7412C121.938 27.7195 121.97 27.7033 122.003 27.6937C122.037 27.6841 122.072 27.6812 122.107 27.6852C122.141 27.6891 122.175 27.6999 122.205 27.7169L125.694 29.6598C126.397 30.0451 126.918 30.6938 127.143 31.4632C127.368 32.2326 127.278 33.0599 126.893 33.7631C126.574 34.2995 126.099 34.7263 125.531 34.9868C124.964 35.2474 124.331 35.3294 123.716 35.2221L123.662 39.2514C123.665 39.2998 123.654 39.348 123.631 39.3907C123.608 39.4334 123.574 39.469 123.532 39.4936C123.491 39.5182 123.443 39.5309 123.394 39.5302C123.346 39.5295 123.299 39.5155 123.258 39.4897L121.976 38.7761C121.936 38.7563 121.901 38.7252 121.878 38.6866C121.854 38.6481 121.842 38.6035 121.843 38.5582L122.02 34.4217L120.666 33.6678L118.933 36.7787C118.898 36.8384 118.841 36.8823 118.774 36.9014C118.707 36.9206 118.635 36.9136 118.573 36.8819L117.45 36.2562C117.42 36.2393 117.393 36.2165 117.371 36.1892C117.35 36.1619 117.334 36.1306 117.324 36.0971C117.315 36.0636 117.312 36.0285 117.316 35.9939C117.32 35.9593 117.331 35.9258 117.348 35.8954L121.844 27.8203ZM123.393 33.4762C123.722 33.6475 124.105 33.6835 124.46 33.5766C124.815 33.4698 125.114 33.2284 125.294 32.9041C125.461 32.5842 125.498 32.2114 125.396 31.8649C125.293 31.5184 125.06 31.2256 124.745 31.0485L122.756 29.942L121.405 32.3692L123.393 33.4762Z" fill="#344E62"/>
<path d="M131.324 33.505C131.345 33.4773 131.371 33.454 131.401 33.4365C131.431 33.419 131.465 33.4077 131.499 33.4031C131.534 33.3985 131.569 33.4007 131.603 33.4097C131.636 33.4187 131.668 33.4342 131.696 33.4554L136.202 36.9181C136.229 36.9394 136.253 36.9659 136.27 36.9961C136.288 37.0263 136.299 37.0596 136.303 37.0942C136.308 37.1288 136.306 37.1639 136.296 37.1976C136.287 37.2313 136.272 37.2628 136.251 37.2905L135.553 38.198C135.532 38.2257 135.505 38.2489 135.475 38.2664C135.445 38.2838 135.412 38.2952 135.377 38.2998C135.343 38.3043 135.308 38.3021 135.274 38.2931C135.241 38.2841 135.209 38.2685 135.181 38.2473L131.904 35.7288L130.509 37.5449L133.243 39.6458C133.297 39.69 133.332 39.7529 133.341 39.8219C133.35 39.8909 133.333 39.9608 133.292 40.0174L132.586 40.9368C132.565 40.9645 132.538 40.9877 132.508 41.0051C132.478 41.0225 132.445 41.0338 132.41 41.0383C132.376 41.0429 132.34 41.0405 132.307 41.0315C132.273 41.0225 132.242 41.0069 132.214 40.9857L129.479 38.8843L127.99 40.8216L131.267 43.3397C131.295 43.3609 131.318 43.3874 131.336 43.4176C131.353 43.4478 131.365 43.4811 131.369 43.5157C131.374 43.5503 131.371 43.5854 131.362 43.6191C131.353 43.6528 131.338 43.6843 131.316 43.712L130.619 44.62C130.598 44.6476 130.571 44.6708 130.541 44.6882C130.511 44.7056 130.477 44.7168 130.443 44.7213C130.408 44.7258 130.373 44.7235 130.34 44.7144C130.306 44.7053 130.274 44.6897 130.247 44.6684L125.741 41.2062C125.713 41.185 125.69 41.1586 125.672 41.1284C125.655 41.0982 125.644 41.0648 125.639 41.0303C125.635 40.9957 125.637 40.9606 125.646 40.9269C125.655 40.8932 125.671 40.8616 125.692 40.834L131.324 33.505Z" fill="#344E62"/>
<path d="M139.26 39.7236C139.312 39.6788 139.379 39.6559 139.447 39.6598C139.515 39.6636 139.579 39.6939 139.625 39.7441L139.864 39.9978L139.353 48.4599L139.363 48.4698L143.562 44.5157C143.613 44.4675 143.681 44.4416 143.752 44.4438C143.822 44.4459 143.889 44.4759 143.937 44.5271L144.818 45.4626C144.864 45.5148 144.888 45.5827 144.886 45.6523C144.884 45.722 144.856 45.7882 144.807 45.8376L137.964 52.2812C137.912 52.3259 137.845 52.3489 137.777 52.345C137.709 52.3412 137.645 52.311 137.599 52.2608L137.369 52.0163L138.034 43.3711L138.024 43.3612L133.652 47.4782C133.627 47.5022 133.597 47.521 133.564 47.5334C133.532 47.5459 133.497 47.5517 133.462 47.5507C133.427 47.5497 133.393 47.5418 133.361 47.5275C133.329 47.5132 133.301 47.4927 133.277 47.4673L132.405 46.5423C132.359 46.4899 132.335 46.422 132.337 46.3523C132.339 46.2826 132.368 46.2163 132.417 46.1667L139.26 39.7236Z" fill="#344E62"/>
<path d="M147 51.1864L145.787 49.4281C145.747 49.3701 145.732 49.2987 145.744 49.2294C145.757 49.1601 145.797 49.0987 145.855 49.0587L146.797 48.4091C146.826 48.3892 146.858 48.3752 146.892 48.3679C146.926 48.3605 146.962 48.36 146.996 48.3663C147.03 48.3726 147.063 48.3856 147.092 48.4046C147.121 48.4235 147.147 48.4481 147.166 48.4768L150.631 53.4993C150.65 53.528 150.664 53.5602 150.672 53.5943C150.679 53.6283 150.679 53.6634 150.673 53.6976C150.667 53.7318 150.654 53.7644 150.635 53.7936C150.616 53.8228 150.591 53.848 150.563 53.8677L149.62 54.5177C149.592 54.5376 149.559 54.5516 149.525 54.559C149.491 54.5663 149.456 54.5668 149.422 54.5605C149.388 54.5542 149.355 54.5413 149.326 54.5223C149.296 54.5033 149.271 54.4787 149.252 54.45L148.039 52.6921L141.591 57.1394C141.533 57.1769 141.462 57.1908 141.394 57.1782C141.325 57.1656 141.264 57.1275 141.223 57.0716L140.485 56.0032C140.447 55.9446 140.433 55.8738 140.446 55.8052C140.458 55.7366 140.497 55.6753 140.553 55.6339L147 51.1864Z" fill="#344E62"/>
<path d="M144.599 59.748L145.599 59.7962C145.645 59.7981 145.69 59.8098 145.731 59.8304C145.772 59.851 145.808 59.8801 145.837 59.9157C145.865 59.9512 145.886 59.9925 145.898 60.0368C145.91 60.0811 145.912 60.1274 145.905 60.1726C145.899 60.254 145.688 61.6375 146.106 62.4432C146.164 62.5868 146.251 62.7174 146.36 62.8272C146.469 62.937 146.599 63.0239 146.743 63.0829C146.886 63.1418 147.04 63.1716 147.195 63.1705C147.35 63.1693 147.503 63.1373 147.645 63.0763C148.278 62.7487 148.435 61.9907 148.317 60.7306C148.184 59.3213 148.324 57.7701 149.787 57.0117C150.891 56.4399 152.592 56.5963 153.614 58.5677C154.059 59.4686 154.218 60.4843 154.068 61.4781C154.054 61.5636 154.007 61.6405 153.939 61.6936C153.87 61.7466 153.784 61.7719 153.698 61.7645L152.747 61.6596C152.65 61.6612 152.556 61.6247 152.487 61.5579C152.417 61.4911 152.376 61.3994 152.373 61.3028C152.463 60.6034 152.39 59.8927 152.161 59.2257C152.056 58.9509 151.846 58.7291 151.577 58.6089C151.309 58.4887 151.003 58.48 150.728 58.5847C150.145 58.8863 149.986 59.5513 150.098 60.7674C150.238 62.2204 150.238 63.9825 148.639 64.8108C147.362 65.473 145.612 64.9797 144.706 63.2319C144.158 62.2496 143.998 61.0973 144.259 60.003C144.313 59.833 144.343 59.7397 144.599 59.748Z" fill="#344E62"/>
</svg>
