<svg width="117" height="117" viewBox="0 0 117 117" fill="none" xmlns="http://www.w3.org/2000/svg">
<path d="M19.0742 81.2227C24.4656 90.4065 32.9155 97.4087 42.9507 101.009C52.9859 104.608 63.9698 104.578 73.9875 100.921C84.0051 97.265 92.4211 90.2153 97.768 81.0012C103.115 71.7871 105.054 60.9932 103.246 50.5012" stroke="#FCFBF8" stroke-width="0.801749" stroke-miterlimit="10"/>
<path d="M96.9749 52.7867C98.2187 61.6102 96.3918 70.5938 91.7993 78.2367C87.2069 85.8796 80.127 91.719 71.7426 94.7792C63.3581 97.8394 54.1769 97.9351 45.7327 95.0504C37.2885 92.1657 30.0928 86.4752 25.3477 78.9297" stroke="#FCFBF8" stroke-width="0.801749" stroke-miterlimit="10"/>
<path d="M49.9393 58.5432C49.982 58.5924 50.0697 58.6571 50.0589 58.6872C49.4031 60.5246 50.4523 61.7545 51.5581 62.9842C53.5967 65.2668 56.1668 67.0134 59.0418 68.0699C60.4476 68.5924 61.546 68.1717 62.142 66.9453C62.606 65.9904 62.4603 65.6797 61.5119 65.1235C59.3404 63.8501 57.1727 62.5677 55.0472 61.2207C54.1274 60.6377 53.3354 59.8594 52.4485 59.2201C51.8141 58.7628 51.1185 58.3893 50.4768 57.9948C50.1063 57.3169 49.6824 56.6697 49.2089 56.0591C47.1198 53.725 46.0891 51.1132 47.2265 48.0457C47.6853 46.9524 48.3246 45.9437 49.1177 45.0615C49.7607 44.2941 50.197 44.4688 50.6278 45.3662C51.7619 47.7287 53.7165 49.38 55.6506 51.0457C55.7229 51.1148 55.8064 51.1711 55.8975 51.2125C56.3813 51.398 57.0593 51.863 57.3173 51.6946C57.6298 51.4957 57.861 51.1921 57.9694 50.8383C58.0777 50.4845 58.056 50.1038 57.9083 49.7647C56.9101 47.2824 55.0355 45.2516 52.6388 44.0561C52.3318 43.8915 52.0183 43.7388 51.6539 43.553C53.8064 41.9919 57.097 41.5882 59.3729 42.8112C60.0629 43.1556 60.62 43.7171 60.9584 44.4092C61.2968 45.1013 61.3976 45.8854 61.2453 46.6406C61.1276 47.4597 60.8609 48.2505 60.4584 48.9741C59.8102 50.0052 59.0456 50.9586 58.1796 51.8156C57.5914 52.3986 57.6323 52.6992 58.2472 53.1172C59.9734 54.2905 61.6799 55.4929 63.4172 56.6496C64.2341 57.1935 64.5655 57.0144 64.7626 56.0317C65.0602 54.5477 65.2811 53.0428 65.6829 51.5869C66.0616 50.2143 67.2522 49.7385 68.5399 49.6401C70.2124 49.5122 71.6503 51.7015 70.9892 53.3337C70.7572 53.8445 70.4636 54.3252 70.1149 54.765C69.7379 55.28 69.7723 55.6037 70.4307 55.7703C70.6561 55.8273 70.8731 55.916 71.0966 55.9815C75.088 57.1507 76.1264 62.3928 73.0431 65.3233C71.9525 66.4134 70.54 67.125 69.0139 67.353C67.4879 67.5811 65.929 67.3136 64.5672 66.59C63.4493 66.025 63.0204 65.9163 62.4248 67.3857C61.3137 70.1268 59.0716 71.5768 56.3227 72.5367C55.2742 72.9545 54.1477 73.1412 53.0204 73.0841C51.8931 73.027 50.7916 72.7274 49.7913 72.2058C48.3601 71.5201 47.2165 70.3534 46.5608 68.9101C45.9051 67.4667 45.7792 65.8389 46.2052 64.3117C46.7689 62.1823 47.9183 60.2526 49.5234 58.741C49.5927 58.6695 49.6699 58.6061 49.7536 58.5521C49.8017 58.525 49.8759 58.5441 49.9393 58.5432ZM68.317 54.74C68.3076 54.5484 68.2545 54.3616 68.1618 54.1938C68.0691 54.0259 67.9392 53.8814 67.782 53.7712C67.6248 53.6611 67.4445 53.5883 67.2548 53.5583C67.0651 53.5284 66.8711 53.5421 66.6874 53.5983C65.3298 53.9681 64.3814 57.1151 65.4668 57.9798C66.2586 58.5675 67.1782 58.9605 68.151 59.1267C68.6006 59.2114 69.354 58.721 69.6525 58.2794C69.7533 58.0319 69.8009 57.7661 69.7923 57.4992C69.7837 57.2322 69.719 56.9701 69.6025 56.7297C69.2315 56.0311 68.8014 55.3655 68.317 54.74Z" fill="#FCFBF8"/>
<path d="M14.1909 72.5365C14.1688 72.5421 14.1458 72.5432 14.1232 72.5398C14.1007 72.5364 14.0791 72.5287 14.0596 72.5169C14.04 72.5052 14.023 72.4897 14.0095 72.4713C13.996 72.453 13.9862 72.4322 13.9808 72.4101L13.0886 68.8042C13.0831 68.782 13.082 68.7591 13.0854 68.7366C13.0888 68.7141 13.0967 68.6924 13.1084 68.6729C13.1202 68.6534 13.1357 68.6365 13.154 68.6229C13.1723 68.6094 13.1931 68.5997 13.2152 68.5942L13.9415 68.4144C13.9862 68.4034 14.0334 68.4106 14.0728 68.4344C14.1122 68.4581 14.1406 68.4966 14.1517 68.5412L14.8005 71.1636L16.466 70.7515L15.9245 68.5635C15.915 68.5189 15.9228 68.4724 15.9463 68.4334C15.9699 68.3944 16.0073 68.3659 16.0512 68.3535L16.7781 68.1735C16.8226 68.1642 16.8689 68.172 16.9078 68.1956C16.9467 68.2191 16.9752 68.2565 16.9875 68.3002L17.5295 70.4885L19.7705 69.9341C19.815 69.9247 19.8615 69.9324 19.9005 69.9559C19.9395 69.9794 19.9681 70.0168 19.9806 70.0606L20.1823 70.8758C20.1878 70.8979 20.1888 70.9208 20.1854 70.9434C20.182 70.9659 20.1742 70.9875 20.1624 71.007C20.1507 71.0265 20.1352 71.0435 20.1168 71.057C20.0985 71.0705 20.0777 71.0803 20.0556 71.0857L14.1909 72.5365Z" fill="#FCFBF8"/>
<path d="M12.3114 63.5437C12.2564 62.8965 12.3945 62.2476 12.7083 61.6789C13.0221 61.1103 13.4974 60.6474 14.0743 60.3489C14.6511 60.0505 15.3035 59.9297 15.9489 60.002C16.5944 60.0743 17.2039 60.3363 17.7004 60.755C18.1969 61.1737 18.5581 61.7302 18.7384 62.3542C18.9186 62.9782 18.9098 63.6416 18.7129 64.2605C18.5161 64.8795 18.1402 65.4262 17.6327 65.8315C17.1252 66.2368 16.5089 66.4825 15.8617 66.5375C15.4319 66.5748 14.9989 66.5269 14.5876 66.3965C14.1763 66.2661 13.7948 66.0559 13.465 65.7777C13.1352 65.4996 12.8635 65.159 12.6655 64.7757C12.4676 64.3923 12.3472 63.9736 12.3114 63.5437ZM17.6751 63.1024C17.6428 62.688 17.4881 62.2925 17.2306 61.9661C16.9731 61.6397 16.6244 61.3972 16.2289 61.2694C15.8333 61.1415 15.4087 61.134 15.0089 61.2478C14.6091 61.3617 14.2521 61.5918 13.9832 61.9089C13.7144 62.2259 13.5458 62.6157 13.4989 63.0288C13.452 63.4419 13.5288 63.8595 13.7197 64.2288C13.9105 64.5982 14.2068 64.9024 14.5709 65.1031C14.935 65.3037 15.3505 65.3917 15.7646 65.3558C16.3154 65.3069 16.8247 65.0429 17.1823 64.6212C17.5399 64.1994 17.717 63.6538 17.6751 63.1024Z" fill="#FCFBF8"/>
<path d="M12.409 57.7749C12.3864 57.7729 12.3643 57.7665 12.3442 57.756C12.3241 57.7455 12.3062 57.7311 12.2916 57.7137C12.2771 57.6962 12.2661 57.6761 12.2594 57.6544C12.2526 57.6327 12.2502 57.6099 12.2524 57.5873L12.4879 54.9889C12.5319 54.467 12.7813 53.984 13.1813 53.6459C13.5813 53.3078 14.0991 53.1423 14.6211 53.1859C15.026 53.2346 15.4066 53.4051 15.7125 53.675C16.0183 53.9449 16.2349 54.3013 16.3337 54.697L18.7542 53.662C18.7824 53.6475 18.814 53.6411 18.8456 53.6434C18.8771 53.6457 18.9075 53.6567 18.9332 53.675C18.959 53.6934 18.9792 53.7186 18.9916 53.7477C19.0041 53.7768 19.0083 53.8088 19.0037 53.8401L18.9171 54.794C18.916 54.8236 18.9065 54.8523 18.8897 54.8768C18.8729 54.9012 18.8495 54.9204 18.8222 54.9321L16.3052 55.9218L16.2137 56.9301L18.5299 57.1403C18.5751 57.1459 18.6165 57.1684 18.6456 57.2034C18.6748 57.2383 18.6896 57.2831 18.687 57.3285L18.611 58.1644C18.6089 58.1871 18.6024 58.2091 18.5919 58.2293C18.5813 58.2495 18.5668 58.2674 18.5493 58.282C18.5318 58.2965 18.5116 58.3075 18.4899 58.3143C18.4681 58.321 18.4452 58.3234 18.4225 58.3213L12.409 57.7749ZM15.3771 55.3516C15.3921 55.1099 15.3121 54.8718 15.1542 54.6882C14.9963 54.5045 14.7729 54.3898 14.5317 54.3683C14.2962 54.3529 14.0639 54.4299 13.8843 54.5828C13.7046 54.7358 13.5916 54.9528 13.5692 55.1878L13.4344 56.6685L15.2423 56.8324L15.3771 55.3516Z" fill="#FCFBF8"/>
<path d="M13.9179 47.9265C13.874 47.913 13.8372 47.8826 13.8158 47.8419C13.7943 47.8013 13.7899 47.7538 13.8034 47.7099L14.4338 45.6604C14.5113 45.4043 14.6386 45.166 14.8083 44.9591C14.9781 44.7522 15.1869 44.5809 15.423 44.4549C15.6591 44.3288 15.9177 44.2506 16.184 44.2247C16.4503 44.1987 16.7192 44.2256 16.9751 44.3037C17.2311 44.3818 17.4691 44.5096 17.6756 44.6798C17.8821 44.85 18.0529 45.0593 18.1784 45.2957C18.3039 45.532 18.3815 45.7908 18.4069 46.0572C18.4322 46.3236 18.4047 46.5924 18.3261 46.8481L17.9912 47.9382L20.0405 48.5691C20.0835 48.5838 20.1192 48.6144 20.1405 48.6546C20.1618 48.6947 20.167 48.7414 20.1551 48.7853L19.9086 49.5884C19.895 49.6322 19.8646 49.6689 19.824 49.6904C19.7834 49.7119 19.7359 49.7164 19.692 49.7029L13.9179 47.9265ZM17.2382 46.5993C17.2747 46.4806 17.2872 46.3558 17.2752 46.2322C17.2632 46.1086 17.2268 45.9886 17.1682 45.8792C17.1095 45.7697 17.0298 45.6729 16.9336 45.5944C16.8373 45.5159 16.7265 45.4573 16.6075 45.4218C16.4919 45.3897 16.3711 45.3807 16.252 45.3955C16.1329 45.4102 16.0179 45.4483 15.9136 45.5077C15.8093 45.567 15.7178 45.6463 15.6442 45.7411C15.5707 45.836 15.5166 45.9444 15.4851 46.0602L15.1738 47.0716L16.9269 47.6111L17.2382 46.5993Z" fill="#FCFBF8"/>
<path d="M20.9294 45.3747L16.5697 40.2016C16.5476 40.1772 16.5333 40.1467 16.5288 40.1141C16.5243 40.0815 16.5298 40.0483 16.5445 40.0188L16.5831 39.9361C16.5953 39.9051 16.6171 39.8788 16.6454 39.8612C16.6736 39.8435 16.7068 39.8354 16.7401 39.8381L23.4934 39.8949C23.5224 39.8933 23.5513 39.8995 23.577 39.9129C23.6028 39.9264 23.6244 39.9465 23.6397 39.9712C23.6549 39.9959 23.6632 40.0243 23.6637 40.0533C23.6641 40.0824 23.6567 40.111 23.6423 40.1362L23.3065 40.8553C23.2847 40.9093 23.2457 40.9546 23.1954 40.984C23.1452 41.0134 23.0866 41.0253 23.0289 41.0178L21.9467 41.0051L20.7904 43.4763L21.4934 44.299C21.5345 44.3396 21.5617 44.392 21.5713 44.4489C21.5808 44.5059 21.5722 44.5643 21.5466 44.6161L21.2099 45.3348C21.1999 45.3621 21.1826 45.3861 21.16 45.4044C21.1374 45.4226 21.1103 45.4344 21.0815 45.4385C21.0528 45.4426 21.0234 45.4389 20.9966 45.4276C20.9699 45.4164 20.9466 45.3981 20.9294 45.3747ZM20.8395 40.9807L18.6347 40.9564L18.623 40.9815L20.0623 42.6418L20.8395 40.9807Z" fill="#FCFBF8"/>
<path d="M19.131 35.6373C19.1121 35.6246 19.0958 35.6083 19.0833 35.5894C19.0707 35.5704 19.0619 35.5491 19.0576 35.5268C19.0532 35.5045 19.0533 35.4815 19.0578 35.4592C19.0624 35.4369 19.0713 35.4157 19.084 35.3968L20.5421 33.2327C20.8321 32.7964 21.2834 32.4931 21.7969 32.3894C22.3104 32.2857 22.8441 32.3901 23.2807 32.6797C23.6123 32.9173 23.8638 33.2502 24.0019 33.6341C24.1401 34.0179 24.1583 34.4347 24.0541 34.8292L26.6746 35.0879C26.7062 35.0888 26.737 35.0984 26.7636 35.1157C26.7901 35.1329 26.8114 35.1571 26.8251 35.1857C26.8388 35.2142 26.8444 35.246 26.8412 35.2775C26.8381 35.309 26.8263 35.339 26.8072 35.3643L26.272 36.1591C26.2567 36.1845 26.2345 36.2051 26.208 36.2183C26.1815 36.2315 26.1517 36.2369 26.1222 36.2337L23.4395 35.8888L22.8731 36.7287L24.8023 38.029C24.8393 38.0557 24.8647 38.0954 24.8734 38.1401C24.8821 38.1848 24.8736 38.2312 24.8494 38.2698L24.3804 38.9658C24.3677 38.9846 24.3514 39.0008 24.3324 39.0134C24.3135 39.026 24.2922 39.0347 24.2699 39.039C24.2476 39.0434 24.2246 39.0433 24.2023 39.0388C24.18 39.0343 24.1588 39.0254 24.14 39.0127L19.131 35.6373ZM22.9 34.9425C23.0296 34.7378 23.0743 34.4906 23.0244 34.2535C22.9746 34.0165 22.8341 33.8082 22.6329 33.6732C22.4338 33.5461 22.1931 33.5016 21.9617 33.5492C21.7304 33.5967 21.5267 33.7325 21.3938 33.9277L20.5628 35.1609L22.069 36.1756L22.9 34.9425Z" fill="#FCFBF8"/>
<path d="M23.3689 29.7761C23.335 29.7451 23.3149 29.7019 23.3128 29.656C23.3107 29.6101 23.327 29.5653 23.3579 29.5313L25.8653 26.7937C25.8807 26.7769 25.8993 26.7632 25.9199 26.7536C25.9405 26.7439 25.9629 26.7385 25.9857 26.7375C26.0084 26.7365 26.0312 26.74 26.0526 26.7478C26.074 26.7556 26.0937 26.7676 26.1104 26.783L26.6618 27.2877C26.6958 27.3188 26.716 27.3621 26.718 27.4081C26.7201 27.454 26.7038 27.499 26.6728 27.5329L24.8489 29.5238L25.9526 30.5341L27.4741 28.8725C27.506 28.84 27.549 28.8208 27.5945 28.8188C27.64 28.8169 27.6845 28.8322 27.7191 28.8618L28.2772 29.3732C28.3111 29.4043 28.3313 29.4476 28.3333 29.4935C28.3354 29.5395 28.3191 29.5844 28.2882 29.6184L26.7665 31.2797L27.9434 32.3573L29.7674 30.3664C29.7984 30.3326 29.8415 30.3125 29.8874 30.3104C29.9332 30.3084 29.9779 30.3247 30.0117 30.3556L30.5636 30.8606C30.5804 30.876 30.594 30.8945 30.6036 30.9152C30.6132 30.9358 30.6187 30.9581 30.6196 30.9809C30.6206 31.0037 30.6171 31.0264 30.6093 31.0478C30.6014 31.0692 30.5895 31.0888 30.5741 31.1056L28.0671 33.8438C28.0517 33.8606 28.0331 33.8741 28.0125 33.8837C27.9918 33.8933 27.9695 33.8988 27.9467 33.8997C27.9239 33.9007 27.9012 33.8971 27.8798 33.8893C27.8584 33.8815 27.8388 33.8695 27.822 33.8541L23.3689 29.7761Z" fill="#FCFBF8"/>
<path d="M27.8655 24.9597C27.8394 24.9236 27.8283 24.8787 27.8347 24.8346C27.8411 24.7905 27.8645 24.7506 27.8998 24.7234L28.0787 24.5821L33.5563 25.3942L33.5635 25.3885L31.228 22.4312C31.2139 22.4133 31.2035 22.3929 31.1973 22.371C31.1911 22.3491 31.1893 22.3262 31.192 22.3036C31.1947 22.2811 31.2018 22.2592 31.2129 22.2394C31.2241 22.2196 31.239 22.2022 31.2569 22.1881L31.9154 21.6682C31.9519 21.6411 31.9974 21.6289 32.0426 21.6342C32.0878 21.6394 32.1293 21.6617 32.1587 21.6965L35.9648 26.5147C35.9909 26.5509 36.0018 26.5958 35.9954 26.6399C35.9889 26.684 35.9655 26.7239 35.9302 26.7511L35.7586 26.8867L30.1702 25.9644L30.163 25.9697L32.5951 29.0485C32.6235 29.0846 32.6364 29.1305 32.631 29.1761C32.6256 29.2218 32.6024 29.2634 32.5663 29.2919L31.9147 29.8066C31.8781 29.8337 31.8326 29.8459 31.7873 29.8406C31.7421 29.8353 31.7006 29.8129 31.6713 29.778L27.8655 24.9597Z" fill="#FCFBF8"/>
<path d="M35.7594 20.5685L34.5458 21.2586C34.5059 21.2813 34.4586 21.2871 34.4143 21.275C34.37 21.2628 34.3324 21.2335 34.3096 21.1937L33.9396 20.5433C33.9283 20.5235 33.9211 20.5016 33.9182 20.479C33.9154 20.4564 33.917 20.4335 33.9231 20.4115C33.9291 20.3896 33.9394 20.369 33.9534 20.3511C33.9674 20.3331 33.9848 20.3181 34.0047 20.3068L37.4699 18.3356C37.5099 18.3129 37.5573 18.3071 37.6017 18.3193C37.6461 18.3315 37.6838 18.3608 37.7066 18.4008L38.0765 19.0508C38.0992 19.0908 38.1051 19.1382 38.0929 19.1825C38.0807 19.2269 38.0514 19.2645 38.0114 19.2873L36.7981 19.9777L39.3286 24.4262C39.3498 24.4665 39.3548 24.5133 39.3428 24.5572C39.3307 24.6011 39.3025 24.6387 39.2637 24.6626L38.5263 25.082C38.486 25.1032 38.4391 25.1083 38.3952 25.0963C38.3512 25.0842 38.3135 25.0559 38.2897 25.0171L35.7594 20.5685Z" fill="#FCFBF8"/>
<path d="M41.202 22.6127L41.2896 21.9645C41.2934 21.9348 41.3035 21.9063 41.3192 21.8808C41.3348 21.8553 41.3558 21.8335 41.3805 21.8167C41.4053 21.7999 41.4333 21.7885 41.4628 21.7834C41.4923 21.7783 41.5225 21.7795 41.5515 21.7869C41.6042 21.7946 42.4928 22.0094 43.0409 21.783C43.1377 21.753 43.2275 21.7042 43.3052 21.6391C43.3828 21.5741 43.4467 21.4943 43.4932 21.4043C43.5396 21.3143 43.5677 21.216 43.5757 21.115C43.5837 21.014 43.5715 20.9125 43.5398 20.8163C43.3616 20.3862 42.877 20.241 42.0503 20.2476C41.1253 20.2554 40.1236 20.0769 39.7122 19.0821C39.4015 18.3316 39.5991 17.2334 40.9397 16.6787C41.551 16.4394 42.221 16.3932 42.8594 16.5462C42.9142 16.5605 42.9617 16.5949 42.9923 16.6425C43.0229 16.6902 43.0345 16.7477 43.0247 16.8035L42.9035 17.4165C42.8991 17.4796 42.8701 17.5384 42.8226 17.5802C42.7752 17.622 42.7131 17.6433 42.65 17.6396C42.1998 17.5419 41.7332 17.549 41.2861 17.6604C41.1013 17.7137 40.9452 17.8381 40.8519 18.0064C40.7586 18.1746 40.7358 18.3729 40.7885 18.5579C40.9523 18.9538 41.3758 19.0947 42.1737 19.0903C43.1279 19.0809 44.2743 19.1795 44.7242 20.2673C45.0833 21.1355 44.6646 22.2467 43.4754 22.7387C42.8053 23.0403 42.0464 23.0794 41.3488 22.8483C41.2418 22.8038 41.1821 22.7789 41.202 22.6127Z" fill="#FCFBF8"/>
<path d="M46.6802 20.0033C47.0557 19.8894 47.6469 20.0144 47.91 20.8793C48.0285 21.2503 48.052 21.6451 47.9783 22.0276C47.9045 22.41 47.7359 22.7678 47.4878 23.0681C47.4772 23.0868 47.4627 23.1032 47.4453 23.116C47.4279 23.1288 47.408 23.1378 47.3869 23.1424C47.3658 23.147 47.344 23.1471 47.3228 23.1427C47.3017 23.1383 47.2817 23.1295 47.2642 23.1168L47.0909 23.0168C47.0707 23.0044 47.0535 22.9876 47.0405 22.9679C47.0274 22.9481 47.0189 22.9257 47.0153 22.9022C47.0118 22.8788 47.0135 22.8548 47.0201 22.8321C47.0268 22.8093 47.0383 22.7883 47.0539 22.7705C47.2099 22.5597 47.3184 22.3177 47.3721 22.061C47.4258 21.8044 47.4234 21.5392 47.3651 21.2835C47.2728 21.3589 47.1675 21.4166 47.0543 21.4539C46.8668 21.5086 46.6653 21.4876 46.493 21.3956C46.3206 21.3036 46.1911 21.1479 46.1322 20.9616C46.1041 20.8627 46.096 20.7592 46.1085 20.6571C46.1209 20.5551 46.1536 20.4565 46.2047 20.3673C46.2557 20.278 46.3241 20.1998 46.4057 20.1373C46.4874 20.0748 46.5807 20.0293 46.6802 20.0033Z" fill="#FCFBF8"/>
<path d="M50.8794 14.0253C50.8764 14.0027 50.8779 13.9798 50.8838 13.9578C50.8897 13.9359 50.8999 13.9153 50.9138 13.8973C50.9277 13.8792 50.945 13.8641 50.9647 13.8528C50.9844 13.8415 51.0062 13.8342 51.0288 13.8313L53.0998 13.5611C54.1763 13.4208 55.1028 14.0362 55.2264 14.9857C55.2439 15.2952 55.1783 15.6038 55.0364 15.8794C54.8944 16.1551 54.6812 16.3877 54.419 16.5531C54.7561 16.6039 55.0689 16.7584 55.3141 16.9952C55.5593 17.2321 55.7246 17.5394 55.787 17.8745C55.9188 18.8873 55.146 19.7333 54.0427 19.877L51.8537 20.1621C51.8312 20.1651 51.8083 20.1636 51.7863 20.1577C51.7644 20.1518 51.7438 20.1417 51.7258 20.1278C51.7078 20.114 51.6927 20.0967 51.6813 20.0771C51.67 20.0574 51.6626 20.0356 51.6597 20.0131L50.8794 14.0253ZM53.804 18.823C53.9121 18.8099 54.0164 18.7752 54.1109 18.721C54.2053 18.6668 54.2879 18.5943 54.3538 18.5076C54.4197 18.4209 54.4675 18.3219 54.4945 18.2164C54.5214 18.1109 54.5269 18.0011 54.5107 17.8934C54.4589 17.6716 54.3233 17.4783 54.1322 17.3542C53.9412 17.23 53.7096 17.1845 53.4858 17.2272L52.4998 17.3555L52.7097 18.9653L53.804 18.823ZM53.3381 16.2346C53.4435 16.2213 53.5451 16.1867 53.6367 16.1328C53.7283 16.0789 53.8079 16.0069 53.8708 15.9212C53.9336 15.8355 53.9784 15.7379 54.0022 15.6344C54.0261 15.5308 54.0286 15.4235 54.0096 15.3189C54.0007 15.2155 53.9701 15.115 53.92 15.0241C53.8699 14.9332 53.8013 14.8537 53.7186 14.7909C53.636 14.728 53.5411 14.6832 53.44 14.6593C53.339 14.6354 53.234 14.6328 53.132 14.6519L52.164 14.7778L52.3704 16.3608L53.3381 16.2346Z" fill="#FCFBF8"/>
<path d="M58.7454 16.5176L56.7056 13.4443C56.6882 13.4183 56.6783 13.3879 56.6772 13.3565C56.676 13.3252 56.6837 13.2942 56.6992 13.267C56.7147 13.2397 56.7375 13.2174 56.765 13.2024C56.7925 13.1874 56.8237 13.1804 56.855 13.1821L57.7853 13.1939C57.8144 13.1952 57.8428 13.2035 57.868 13.2181C57.8933 13.2326 57.9146 13.2531 57.9303 13.2777L59.3624 15.395L60.8487 13.3157C60.865 13.2916 60.8869 13.2717 60.9125 13.2578C60.9381 13.2439 60.9666 13.2363 60.9957 13.2356L61.9353 13.2479C61.9666 13.247 61.9976 13.2549 62.0247 13.2706C62.0518 13.2864 62.0741 13.3094 62.0888 13.337C62.1036 13.3647 62.1104 13.3959 62.1085 13.4272C62.1065 13.4585 62.0958 13.4887 62.0777 13.5143L59.9313 16.524L59.8936 19.4334C59.8913 19.4789 59.872 19.5218 59.8394 19.5536C59.8068 19.5854 59.7634 19.6036 59.7179 19.6047L58.8789 19.5934C58.8561 19.5932 58.8336 19.5884 58.8127 19.5795C58.7918 19.5706 58.7729 19.5576 58.757 19.5413C58.7411 19.525 58.7286 19.5058 58.7202 19.4846C58.7118 19.4635 58.7076 19.4409 58.7079 19.4182L58.7454 16.5176Z" fill="#FCFBF8"/>
<path d="M66.7171 14.0308C66.7218 14.0085 66.7309 13.9874 66.7439 13.9687C66.7568 13.9499 66.7733 13.9339 66.7924 13.9216C66.8115 13.9092 66.8329 13.9007 66.8553 13.8967C66.8777 13.8926 66.9007 13.893 66.923 13.8978L69.0187 14.3509C69.2804 14.4064 69.5286 14.5129 69.7491 14.6644C69.9696 14.8159 70.1581 15.0094 70.3037 15.2338C70.4493 15.4582 70.5493 15.7091 70.5978 15.9722C70.6464 16.2353 70.6425 16.5053 70.5866 16.7669C70.5306 17.0285 70.4236 17.2765 70.2717 17.4967C70.1198 17.7169 69.9259 17.905 69.7013 18.0502C69.4766 18.1954 69.2254 18.2949 68.9623 18.3429C68.6991 18.3909 68.429 18.3866 68.1675 18.3301L67.0531 18.0894L66.5997 20.1849C66.5886 20.2291 66.5612 20.2673 66.523 20.292C66.4848 20.3167 66.4386 20.3259 66.3938 20.3179L65.5732 20.1406C65.551 20.1358 65.5299 20.1266 65.5113 20.1137C65.4926 20.1007 65.4766 20.0842 65.4643 20.0651C65.452 20.046 65.4436 20.0246 65.4395 20.0023C65.4355 19.9799 65.4358 19.9569 65.4406 19.9347L66.7171 14.0308ZM68.3229 17.2253C68.4443 17.2514 68.5697 17.2532 68.6917 17.2306C68.8138 17.208 68.9302 17.1615 69.0343 17.0937C69.1383 17.0259 69.2278 16.9382 69.2978 16.8356C69.3677 16.733 69.4167 16.6176 69.4418 16.496C69.4639 16.3781 69.4625 16.257 69.4377 16.1397C69.4129 16.0224 69.3651 15.9111 69.2971 15.8122C69.2292 15.7134 69.1423 15.629 69.0416 15.5638C68.941 15.4987 68.8284 15.4541 68.7104 15.4326L67.6758 15.2087L67.2884 17.0014L68.3229 17.2253Z" fill="#FCFBF8"/>
<path d="M69.8632 20.7977L74.6452 16.0147C74.6678 15.9907 74.697 15.974 74.7291 15.9667C74.7612 15.9594 74.7948 15.9618 74.8255 15.9738L74.9112 16.0056C74.9431 16.015 74.971 16.0345 74.991 16.0611C75.011 16.0877 75.0219 16.12 75.022 16.1533L75.5402 22.8859C75.5443 22.9146 75.5406 22.9439 75.5294 22.9707C75.5182 22.9975 75.5 23.0208 75.4767 23.0381C75.4534 23.0554 75.4259 23.0661 75.397 23.069C75.3681 23.072 75.3389 23.067 75.3126 23.0548L74.5675 22.7806C74.5119 22.7636 74.4635 22.7286 74.43 22.681C74.3964 22.6335 74.3796 22.5762 74.3823 22.5181L74.3028 21.4391L71.7427 20.4974L70.9831 21.2681C70.9462 21.3124 70.8963 21.3439 70.8404 21.3582C70.7846 21.3726 70.7256 21.369 70.672 21.3479L69.9268 21.0741C69.8989 21.0663 69.8735 21.0511 69.8535 21.0301C69.8334 21.0091 69.8194 20.9831 69.8129 20.9548C69.8064 20.9265 69.8076 20.897 69.8164 20.8693C69.8253 20.8417 69.8415 20.8169 69.8632 20.7977ZM74.2328 20.3344L74.0694 18.1358L74.0436 18.1266L72.5117 19.7014L74.2328 20.3344Z" fill="#FCFBF8"/>
<path d="M79.4127 18.1778C79.4237 18.1579 79.4386 18.1403 79.4564 18.1261C79.4742 18.1119 79.4947 18.1014 79.5166 18.0951C79.5385 18.0888 79.5614 18.0869 79.584 18.0895C79.6067 18.0921 79.6286 18.0992 79.6485 18.1102L81.9281 19.3797C82.3874 19.6315 82.7279 20.0553 82.8749 20.558C83.0218 21.0608 82.9631 21.6013 82.7117 22.0607C82.5029 22.4113 82.1925 22.6901 81.8218 22.8603C81.451 23.0306 81.0373 23.0842 80.6353 23.014L80.6003 25.6467C80.602 25.6784 80.5951 25.7098 80.5801 25.7377C80.5652 25.7657 80.5428 25.7889 80.5156 25.805C80.4883 25.8211 80.4571 25.8293 80.4255 25.8289C80.3938 25.8284 80.3629 25.8193 80.3361 25.8024L79.4989 25.3361C79.4723 25.3232 79.4499 25.3029 79.4345 25.2777C79.419 25.2525 79.4111 25.2234 79.4116 25.1938L79.5276 22.4911L78.6427 21.9985L77.5108 24.0311C77.4875 24.0701 77.4501 24.0988 77.4064 24.1113C77.3627 24.1238 77.3159 24.1193 77.2754 24.0985L76.5418 23.6897C76.5219 23.6787 76.5043 23.6638 76.4902 23.6459C76.4761 23.6281 76.4656 23.6076 76.4593 23.5857C76.4531 23.5638 76.4513 23.5409 76.4539 23.5183C76.4566 23.4957 76.4636 23.4738 76.4747 23.4539L79.4127 18.1778ZM80.4247 21.8733C80.6396 21.9852 80.8896 22.0088 81.1216 21.9389C81.3535 21.8691 81.549 21.7114 81.6664 21.4995C81.7761 21.2905 81.8 21.0469 81.733 20.8205C81.6661 20.5941 81.5135 20.4028 81.3078 20.2871L80.0087 19.5641L79.1254 21.15L80.4247 21.8733Z" fill="#FCFBF8"/>
<path d="M85.6073 21.8921C85.6211 21.874 85.6384 21.8588 85.6581 21.8474C85.6778 21.836 85.6995 21.8286 85.7221 21.8256C85.7447 21.8226 85.7676 21.824 85.7896 21.8299C85.8117 21.8358 85.8323 21.8459 85.8504 21.8598L88.7947 24.1222C88.8127 24.1361 88.8279 24.1534 88.8393 24.1732C88.8507 24.1929 88.858 24.2147 88.861 24.2373C88.8639 24.2599 88.8624 24.2828 88.8565 24.3048C88.8506 24.3268 88.8404 24.3474 88.8265 24.3655L88.3707 24.9585C88.3569 24.9766 88.3396 24.9917 88.3199 25.0032C88.3003 25.0146 88.2785 25.022 88.256 25.025C88.2334 25.028 88.2105 25.0265 88.1885 25.0206C88.1665 25.0147 88.1459 25.0046 88.1279 24.9907L85.9863 23.3452L85.0749 24.5318L86.8615 25.9045C86.8967 25.9333 86.9195 25.9745 86.9255 26.0195C86.9314 26.0646 86.92 26.1103 86.8936 26.1473L86.432 26.748C86.4182 26.7661 86.4009 26.7812 86.3812 26.7926C86.3615 26.804 86.3398 26.8113 86.3172 26.8143C86.2947 26.8173 86.2717 26.8158 86.2498 26.8098C86.2278 26.8039 86.2072 26.7938 86.1892 26.7799L84.4022 25.4069L83.4295 26.6727L85.5706 28.318C85.5887 28.3319 85.6039 28.3491 85.6153 28.3689C85.6267 28.3886 85.6341 28.4104 85.6371 28.433C85.6401 28.4556 85.6385 28.4785 85.6326 28.5005C85.6267 28.5225 85.6165 28.5432 85.6026 28.5612L85.1469 29.1545C85.133 29.1726 85.1157 29.1877 85.096 29.1991C85.0762 29.2104 85.0545 29.2178 85.0319 29.2207C85.0093 29.2237 84.9864 29.2221 84.9644 29.2162C84.9424 29.2102 84.9218 29.2 84.9037 29.1861L81.9596 26.924C81.9415 26.9102 81.9263 26.8929 81.9149 26.8731C81.9035 26.8534 81.8961 26.8316 81.8931 26.809C81.8902 26.7864 81.8917 26.7635 81.8976 26.7415C81.9035 26.7195 81.9137 26.6989 81.9276 26.6808L85.6073 21.8921Z" fill="#FCFBF8"/>
<path d="M90.7921 25.955C90.8257 25.9258 90.8694 25.9108 90.9139 25.9134C90.9584 25.9159 91.0001 25.9357 91.0302 25.9685L91.1865 26.1342L90.8528 31.6632L90.8589 31.6697L93.6026 29.0862C93.6361 29.0547 93.6807 29.0378 93.7267 29.0392C93.7727 29.0406 93.8163 29.0601 93.8478 29.0936L94.4234 29.7048C94.4535 29.739 94.4695 29.7833 94.4681 29.8288C94.4668 29.8743 94.4481 29.9176 94.416 29.9498L89.9449 34.16C89.9112 34.1892 89.8675 34.2042 89.8229 34.2017C89.7784 34.1992 89.7366 34.1795 89.7064 34.1466L89.5565 33.9869L89.9908 28.3383L89.9846 28.3318L87.1277 31.0218C87.1112 31.0375 87.0917 31.0497 87.0704 31.0579C87.0492 31.066 87.0265 31.0698 87.0037 31.0692C86.9809 31.0685 86.9585 31.0633 86.9378 31.054C86.917 31.0446 86.8983 31.0313 86.8827 31.0147L86.3133 30.4103C86.2832 30.3761 86.2673 30.3317 86.2686 30.2861C86.27 30.2406 86.2886 30.1973 86.3207 30.1649L90.7921 25.955Z" fill="#FCFBF8"/>
<path d="M95.8499 33.4448L95.0572 32.2959C95.0311 32.258 95.021 32.2113 95.0293 32.1661C95.0376 32.1208 95.0635 32.0807 95.1014 32.0545L95.7173 31.6301C95.7361 31.6171 95.7571 31.608 95.7794 31.6032C95.8017 31.5984 95.8246 31.598 95.847 31.6021C95.8694 31.6062 95.8908 31.6147 95.9099 31.6271C95.929 31.6395 95.9455 31.6556 95.9584 31.6743L98.2219 34.956C98.2348 34.9747 98.2439 34.9958 98.2486 35.018C98.2534 35.0402 98.2537 35.0631 98.2496 35.0855C98.2455 35.1079 98.237 35.1292 98.2246 35.1482C98.2122 35.1673 98.1962 35.1838 98.1775 35.1966L97.5618 35.6214C97.5431 35.6343 97.522 35.6435 97.4998 35.6483C97.4775 35.6531 97.4545 35.6535 97.4321 35.6493C97.4097 35.6452 97.3884 35.6367 97.3693 35.6243C97.3502 35.6119 97.3337 35.5959 97.3208 35.5771L96.5283 34.4286L92.3158 37.3343C92.2775 37.3588 92.2313 37.3679 92.1866 37.3597C92.1419 37.3514 92.1019 37.3266 92.0748 37.29L91.593 36.592C91.5683 36.5537 91.5591 36.5074 91.5673 36.4626C91.5755 36.4177 91.6005 36.3777 91.6372 36.3506L95.8499 33.4448Z" fill="#FCFBF8"/>
<path d="M94.281 39.0386L94.9344 39.0701C94.9643 39.0714 94.9936 39.079 95.0203 39.0925C95.047 39.1059 95.0706 39.1249 95.0895 39.1481C95.1083 39.1714 95.1221 39.1984 95.1297 39.2273C95.1374 39.2563 95.1388 39.2865 95.1339 39.316C95.1305 39.3692 94.9924 40.2732 95.2654 40.7996C95.3035 40.8934 95.3599 40.9787 95.4314 41.0505C95.5029 41.1222 95.5879 41.179 95.6816 41.2176C95.7752 41.2561 95.8756 41.2755 95.9769 41.2748C96.0782 41.274 96.1783 41.2531 96.2714 41.2132C96.6844 40.9992 96.7874 40.5039 96.71 39.6806C96.6235 38.7598 96.7146 37.7463 97.6707 37.2507C98.3919 36.8771 99.5032 36.9793 100.171 38.2674C100.462 38.8561 100.565 39.5197 100.468 40.169C100.458 40.2249 100.428 40.2751 100.383 40.3098C100.338 40.3444 100.282 40.361 100.226 40.3561L99.6044 40.2876C99.5412 40.2887 99.4801 40.2648 99.4344 40.2212C99.3887 40.1775 99.3621 40.1176 99.3602 40.0545C99.4188 39.5975 99.3715 39.1331 99.222 38.6973C99.1532 38.5178 99.016 38.3729 98.8404 38.2943C98.6649 38.2158 98.4654 38.2101 98.2856 38.2785C97.9047 38.4755 97.8008 38.9101 97.8736 39.7047C97.9651 40.654 97.9654 41.8054 96.9203 42.3465C96.0858 42.7792 94.9426 42.4569 94.3508 41.3149C93.9927 40.6731 93.8885 39.9202 94.0587 39.2052C94.094 39.0942 94.1135 39.0332 94.281 39.0386Z" fill="#FCFBF8"/>
</svg>
