<svg width="116" height="123" viewBox="0 0 116 123" fill="none" xmlns="http://www.w3.org/2000/svg">
<path d="M32.1738 98.5547C40.9336 103.709 51.2307 105.625 61.27 103.967C71.3092 102.31 80.4538 97.1839 87.1094 89.4839C93.765 81.7838 97.5095 71.9979 97.6899 61.8321C97.8703 51.6663 94.4753 41.7656 88.0967 33.8561" stroke="#344E62" stroke-width="0.801749" stroke-miterlimit="10"/>
<path d="M83.9279 38.6738C89.0619 45.4537 91.7096 53.793 91.4289 62.2983C91.1481 70.8037 87.9558 78.96 82.3853 85.4047C76.8148 91.8494 69.2034 96.1922 60.8228 97.7074C52.4423 99.2227 43.8 97.8187 36.3398 93.73" stroke="#344E62" stroke-width="0.801749" stroke-miterlimit="10"/>
<path d="M47.3804 65.3125C47.4389 65.3337 47.542 65.3469 47.5471 65.3771C47.8533 67.2137 49.2992 67.7521 50.7923 68.264C53.552 69.2208 56.506 69.4839 59.3938 69.03C60.8087 68.813 61.5292 67.9522 61.4567 66.6528C61.4003 65.6412 61.1346 65.4498 60.0856 65.4263C57.6836 65.3727 55.2806 65.3099 52.8829 65.1735C51.8452 65.1145 50.8233 64.8332 49.787 64.7119C49.0457 64.6252 48.2922 64.6367 47.574 64.6057C46.9503 64.2125 46.2963 63.8696 45.618 63.5803C42.7923 62.604 40.7202 60.9046 40.2443 57.8187C40.1193 56.6941 40.184 55.5561 40.4358 54.4523C40.6156 53.5138 41.0605 53.4569 41.8364 54.0052C43.879 55.4487 46.2756 55.918 48.6617 56.409C48.7541 56.433 48.8498 56.4412 48.945 56.4334C49.4346 56.3634 50.2158 56.4364 50.3528 56.1762C50.521 55.8653 50.5728 55.5047 50.4989 55.1594C50.4249 54.8141 50.2301 54.5067 49.9495 54.2925C47.9646 52.6861 45.4586 51.8632 42.905 51.9791C42.5726 51.9844 42.2403 52.0025 41.8501 52.0169C42.9201 49.7157 45.4766 47.8512 47.9422 47.8143C48.6774 47.7811 49.4028 47.9907 50.0063 48.4107C50.6098 48.8306 51.0579 49.4376 51.2815 50.1381C51.5636 50.8758 51.7085 51.659 51.7089 52.4493C51.6471 53.61 51.4522 54.76 51.128 55.8767C50.9082 56.6359 51.0819 56.8676 51.7887 56.9306C53.7728 57.1075 55.754 57.3178 57.7398 57.4757C58.6735 57.55 58.8667 57.2467 58.5747 56.3358C58.1338 54.9602 57.6193 53.6028 57.2784 52.2022C56.9569 50.8818 57.7288 49.9322 58.7568 49.2523C60.092 48.3691 62.3076 49.5271 62.5141 51.1949C62.5578 51.7286 62.5362 52.2658 62.4497 52.7945C62.3744 53.399 62.5533 53.6529 63.1797 53.4861C63.3942 53.4289 63.6163 53.4022 63.8331 53.353C67.7041 52.4748 71.0039 56.3637 69.7936 60.2389C69.3903 61.6543 68.5429 62.9034 67.3763 63.8022C66.2096 64.7009 64.7856 65.2016 63.3141 65.2305C62.1196 65.2784 61.7115 65.387 61.8971 66.8888C62.2433 69.6903 61.047 71.9404 59.2005 74.0172C58.5201 74.8524 57.6675 75.5311 56.701 76.0069C55.7345 76.4827 54.6769 76.7443 53.6006 76.7739C52.0888 76.8666 50.5935 76.4247 49.3766 75.5256C48.1598 74.6265 47.299 73.3276 46.9451 71.8564C46.4264 69.819 46.4889 67.6763 47.1255 65.6706C47.1501 65.5788 47.1851 65.4901 47.2297 65.4061C47.2572 65.3613 47.328 65.3427 47.3804 65.3125ZM60.9388 53.6083C60.8421 53.453 60.7111 53.3219 60.5558 53.2249C60.4006 53.128 60.2251 53.0678 60.0429 53.049C59.8607 53.0301 59.6766 53.0531 59.5045 53.1162C59.3324 53.1793 59.1769 53.2808 59.0499 53.413C58.0895 54.3517 58.7599 57.4161 60.0664 57.6333C60.9996 57.7556 61.9489 57.6563 62.8372 57.3433C63.2515 57.2052 63.652 56.4465 63.6958 55.9396C63.665 55.6865 63.5813 55.4427 63.4501 55.2241C63.319 55.0055 63.1434 54.817 62.9346 54.6706C62.3009 54.2604 61.6332 53.905 60.9388 53.6083Z" fill="#344E62"/>
<path d="M24.0679 93.5791C24.052 93.594 24.0334 93.6056 24.013 93.6132C23.9927 93.6209 23.971 93.6245 23.9493 93.6237C23.9275 93.623 23.9062 93.618 23.8864 93.609C23.8666 93.5999 23.8488 93.5871 23.834 93.5712L21.4158 90.9787C21.4009 90.9628 21.3894 90.9441 21.3818 90.9238C21.3742 90.9034 21.3706 90.8817 21.3714 90.86C21.3721 90.8383 21.3772 90.817 21.3862 90.7972C21.3952 90.7774 21.408 90.7596 21.4239 90.7448L21.946 90.2577C21.9782 90.2277 22.0209 90.2118 22.0648 90.2133C22.1087 90.2148 22.1502 90.2337 22.1802 90.2658L23.9387 92.1512L25.1362 91.0343L23.6687 89.4612C23.6401 89.4285 23.6251 89.3861 23.6266 89.3427C23.6281 89.2992 23.6461 89.258 23.6769 89.2274L24.1995 88.7397C24.2322 88.7113 24.2745 88.6963 24.3179 88.6979C24.3612 88.6995 24.4023 88.7174 24.4329 88.7482L25.9009 90.3212L27.5122 88.8184C27.5449 88.7899 27.5872 88.7748 27.6307 88.7762C27.6741 88.7777 27.7153 88.7956 27.746 88.8263L28.2927 89.4124C28.3076 89.4283 28.3191 89.447 28.3267 89.4673C28.3343 89.4877 28.3379 89.5094 28.3371 89.5311C28.3363 89.5528 28.3313 89.5742 28.3223 89.5939C28.3133 89.6137 28.3005 89.6315 28.2846 89.6463L24.0679 93.5791Z" fill="#344E62"/>
<path d="M18.3255 86.9531C17.9791 86.439 17.793 85.8338 17.7906 85.2139C17.7882 84.5941 17.9697 83.9874 18.3121 83.4707C18.6545 82.954 19.1424 82.5504 19.7142 82.311C20.2859 82.0716 20.9159 82.0071 21.5243 82.1257C22.1327 82.2443 22.6923 82.5406 23.1323 82.9772C23.5723 83.4138 23.8729 83.9711 23.9962 84.5786C24.1195 85.1861 24.0598 85.8165 23.8248 86.3901C23.5898 86.9637 23.19 87.4547 22.6759 87.8011C22.3348 88.0318 21.9515 88.1929 21.5481 88.2751C21.1446 88.3574 20.7288 88.3591 20.3246 88.2804C19.9205 88.2016 19.5358 88.0438 19.1927 87.816C18.8497 87.5883 18.5549 87.295 18.3255 86.9531ZM22.5931 84.0948C22.3737 83.7642 22.061 83.5063 21.6948 83.3537C21.3286 83.2011 20.9252 83.1608 20.536 83.2378C20.1468 83.3148 19.7893 83.5057 19.5087 83.7863C19.2282 84.0669 19.0374 84.4245 18.9604 84.8137C18.8835 85.2029 18.9239 85.6062 19.0766 85.9724C19.2292 86.3387 19.4872 86.6513 19.8178 86.8706C20.1485 87.0899 20.5368 87.2061 20.9335 87.2044C21.3303 87.2026 21.7176 87.0831 22.0463 86.8608C22.4828 86.5643 22.785 86.1077 22.8873 85.59C22.9897 85.0723 22.884 84.5351 22.5931 84.0948Z" fill="#344E62"/>
<path d="M15.7285 82.0971C15.7088 82.106 15.6874 82.1109 15.6657 82.1115C15.6441 82.1121 15.6225 82.1084 15.6022 82.1006C15.582 82.0928 15.5635 82.0811 15.5478 82.0662C15.5321 82.0512 15.5195 82.0333 15.5108 82.0134L14.5008 79.7375C14.2951 79.2819 14.2788 78.7633 14.4554 78.2956C14.6319 77.828 14.9869 77.4496 15.4424 77.2435C15.8026 77.0961 16.1992 77.0616 16.5795 77.1446C16.9598 77.2277 17.306 77.4243 17.5721 77.7084L19.1099 75.7215C19.1266 75.6964 19.15 75.6763 19.1774 75.6636C19.2048 75.6509 19.2352 75.6459 19.2652 75.6493C19.2952 75.6526 19.3237 75.6642 19.3476 75.6827C19.3715 75.7012 19.3898 75.7259 19.4006 75.7541L19.7712 76.5898C19.7841 76.615 19.7895 76.6434 19.7869 76.6716C19.7842 76.6997 19.7736 76.7266 19.7563 76.749L18.117 78.7429L18.5089 79.6262L20.5378 78.726C20.5781 78.7097 20.6231 78.7093 20.6636 78.7249C20.7042 78.7405 20.7373 78.771 20.7562 78.8101L21.0809 79.5423C21.0897 79.5622 21.0946 79.5836 21.0951 79.6053C21.0957 79.6271 21.0919 79.6487 21.0841 79.669C21.0763 79.6893 21.0645 79.7078 21.0495 79.7236C21.0345 79.7393 21.0165 79.7519 20.9967 79.7607L15.7285 82.0971ZM17.0783 78.6984C16.9786 78.4899 16.8014 78.3285 16.5844 78.2487C16.3675 78.1689 16.128 78.1769 15.9168 78.271C15.7133 78.3675 15.5554 78.5395 15.4766 78.7505C15.3978 78.9615 15.4043 79.1949 15.4948 79.4012L16.0699 80.6985L17.6535 79.9957L17.0783 78.6984Z" fill="#344E62"/>
<path d="M12.4139 73.1846C12.371 73.1937 12.3262 73.1853 12.2895 73.1614C12.2527 73.1375 12.2269 73.1 12.2178 73.0571L11.7919 71.0554C11.7376 70.8059 11.7331 70.5481 11.7786 70.2968C11.8241 70.0454 11.9187 69.8056 12.057 69.5909C12.1953 69.3762 12.3746 69.1909 12.5847 69.0456C12.7947 68.9003 13.0314 68.7979 13.281 68.7442C13.5307 68.6904 13.7886 68.6865 14.0398 68.7326C14.291 68.7786 14.5306 68.8738 14.745 69.0126C14.9594 69.1514 15.1443 69.3312 15.2891 69.5416C15.4339 69.7519 15.5358 69.9888 15.5889 70.2386L15.8159 71.3031L17.8176 70.8776C17.8603 70.87 17.9043 70.8788 17.9406 70.9024C17.977 70.926 18.0031 70.9626 18.0135 71.0047L18.1809 71.7888C18.1899 71.8317 18.1816 71.8764 18.1577 71.9131C18.1338 71.9499 18.0963 71.9757 18.0534 71.9848L12.4139 73.1846ZM14.5663 70.5362C14.5416 70.4203 14.4941 70.3104 14.4267 70.213C14.3593 70.1155 14.2732 70.0323 14.1735 69.9683C14.0738 69.9042 13.9624 69.8605 13.8457 69.8398C13.729 69.819 13.6094 69.8215 13.4937 69.8472C13.3823 69.8741 13.2775 69.9227 13.185 69.9903C13.0925 70.0579 13.0143 70.1431 12.9549 70.241C12.8955 70.3389 12.856 70.4475 12.8387 70.5607C12.8214 70.6739 12.8267 70.7894 12.8542 70.9006L13.0642 71.8885L14.7765 71.5245L14.5663 70.5362Z" fill="#344E62"/>
<path d="M17.0758 67.8014L11.0386 65.512C11.0088 65.5019 10.9828 65.4831 10.9639 65.458C10.945 65.4329 10.9341 65.4027 10.9328 65.3713L10.9265 65.2844C10.9223 65.2529 10.9283 65.2208 10.9436 65.193C10.959 65.1651 10.9829 65.143 11.0119 65.1298L16.6695 62.0416C16.6929 62.0267 16.7199 62.0185 16.7476 62.0178C16.7754 62.017 16.8027 62.0237 16.8269 62.0373C16.8511 62.0508 16.8712 62.0706 16.8851 62.0946C16.8989 62.1186 16.9061 62.1459 16.9057 62.1736L16.9596 62.9292C16.9666 62.9843 16.955 63.0402 16.9267 63.0881C16.8985 63.1359 16.8552 63.173 16.8036 63.1936L15.8953 63.6854L16.0785 66.2829L17.0467 66.6426C17.0998 66.6573 17.1468 66.6884 17.1812 66.7314C17.2156 66.7744 17.2356 66.8272 17.2382 66.8822L17.2912 67.6379C17.2955 67.6653 17.2923 67.6933 17.2819 67.719C17.2716 67.7448 17.2544 67.7672 17.2323 67.784C17.2103 67.8007 17.184 67.8112 17.1565 67.8143C17.1289 67.8174 17.101 67.8129 17.0758 67.8014ZM14.9607 64.1792L13.111 65.1826L13.1129 65.209L15.0839 65.9252L14.9607 64.1792Z" fill="#344E62"/>
<path d="M11.0546 60.5169C11.0329 60.5151 11.0118 60.509 10.9925 60.4991C10.9732 60.4891 10.9561 60.4755 10.9421 60.4589C10.9281 60.4422 10.9175 60.423 10.9109 60.4023C10.9044 60.3816 10.9019 60.3598 10.9038 60.3382L11.1148 57.8566C11.154 57.3582 11.3895 56.8957 11.7696 56.5708C12.1496 56.2459 12.6431 56.0852 13.1416 56.1239C13.5284 56.1682 13.8927 56.3289 14.1861 56.5849C14.4795 56.8409 14.6882 57.1799 14.7846 57.5572L17.0898 56.5563C17.1166 56.5423 17.1467 56.5361 17.1768 56.5381C17.207 56.5401 17.236 56.5505 17.2607 56.5679C17.2854 56.5853 17.3048 56.6092 17.3168 56.637C17.3287 56.6647 17.3329 56.6952 17.3287 56.7252L17.2514 57.6364C17.2505 57.6647 17.2415 57.6921 17.2255 57.7155C17.2095 57.7388 17.1872 57.7571 17.1612 57.7682L14.764 58.7261L14.6817 59.6895L16.8941 59.878C16.9373 59.8831 16.9769 59.9044 17.005 59.9376C17.033 59.9709 17.0474 60.0135 17.0452 60.0569L16.9772 60.855C16.9754 60.8766 16.9693 60.8977 16.9594 60.917C16.9494 60.9363 16.9357 60.9534 16.9191 60.9674C16.9025 60.9814 16.8833 60.992 16.8627 60.9986C16.842 61.0052 16.8202 61.0076 16.7986 61.0058L11.0546 60.5169ZM13.8747 58.1876C13.8879 57.9567 13.8103 57.7298 13.6587 57.5553C13.507 57.3808 13.2932 57.2724 13.0627 57.2531C12.8377 57.2396 12.6163 57.3143 12.4455 57.4614C12.2747 57.6084 12.1678 57.8162 12.1477 58.0407L12.0273 59.4548L13.7544 59.6016L13.8747 58.1876Z" fill="#344E62"/>
<path d="M11.867 53.6619C11.8244 53.6518 11.7875 53.6251 11.7645 53.5878C11.7415 53.5505 11.7342 53.5056 11.7442 53.4629L12.5639 50.0159C12.5689 49.9948 12.5781 49.9748 12.5908 49.9572C12.6035 49.9395 12.6196 49.9246 12.6382 49.9132C12.6567 49.9018 12.6773 49.8942 12.6988 49.8907C12.7202 49.8873 12.7422 49.8882 12.7633 49.8932L13.4575 50.0581C13.5002 50.0682 13.5372 50.0949 13.5602 50.1323C13.5833 50.1697 13.5905 50.2147 13.5804 50.2575L12.984 52.7644L14.3734 53.0943L14.8706 51.0023C14.8821 50.9605 14.9091 50.9245 14.9461 50.9017C14.9831 50.879 15.0273 50.8711 15.0699 50.8797L15.7728 51.047C15.8155 51.0572 15.8524 51.0839 15.8754 51.1213C15.8984 51.1587 15.9058 51.2036 15.8957 51.2464L15.3982 53.3382L16.88 53.6903L17.4765 51.1833C17.4867 51.1407 17.5133 51.1039 17.5505 51.0809C17.5878 51.058 17.6327 51.0508 17.6752 51.0609L18.3699 51.2257C18.391 51.2307 18.4109 51.2399 18.4286 51.2526C18.4462 51.2654 18.4611 51.2815 18.4724 51.3C18.4838 51.3185 18.4914 51.3391 18.4949 51.3606C18.4983 51.382 18.4974 51.404 18.4923 51.4251L17.6733 54.8724C17.6682 54.8935 17.659 54.9135 17.6463 54.9311C17.6335 54.9487 17.6174 54.9636 17.5988 54.9749C17.5803 54.9863 17.5597 54.9939 17.5382 54.9973C17.5168 55.0007 17.4948 54.9998 17.4737 54.9948L11.867 53.6619Z" fill="#344E62"/>
<path d="M13.3803 47.5576C13.3418 47.5397 13.3117 47.5074 13.2966 47.4676C13.2814 47.4279 13.2824 47.3838 13.2992 47.3447L13.3828 47.1438L18.3273 45.2777L18.3307 45.2696L15.0101 43.888C14.9901 43.8797 14.9719 43.8675 14.9566 43.8521C14.9413 43.8367 14.9291 43.8185 14.9209 43.7984C14.9126 43.7783 14.9084 43.7568 14.9085 43.7351C14.9086 43.7134 14.913 43.6919 14.9214 43.6719L15.2291 42.9327C15.2469 42.8931 15.2792 42.8618 15.3194 42.8452C15.3595 42.8286 15.4044 42.8279 15.4451 42.8433L20.8559 45.0938C20.8945 45.1118 20.9245 45.1442 20.9396 45.184C20.9547 45.2238 20.9537 45.2679 20.9368 45.3069L20.8568 45.4997L15.7686 47.3254L15.765 47.3331L19.2226 48.7711C19.263 48.788 19.2951 48.8203 19.3118 48.8609C19.3285 48.9014 19.3284 48.9469 19.3115 48.9874L19.0072 49.7192C18.9893 49.7588 18.9569 49.7901 18.9168 49.8066C18.8766 49.8232 18.8316 49.8238 18.7909 49.8084L13.3803 47.5576Z" fill="#344E62"/>
<path d="M17.9237 40.2308L17.2322 41.3696C17.2094 41.4071 17.1726 41.4339 17.1301 41.4443C17.0875 41.4548 17.0425 41.4478 17.005 41.4252L16.3945 41.0546C16.3759 41.0434 16.3597 41.0285 16.3469 41.011C16.334 40.9935 16.3247 40.9736 16.3196 40.9525C16.3144 40.9313 16.3135 40.9094 16.3168 40.8879C16.3201 40.8664 16.3277 40.8458 16.339 40.8273L18.3132 37.5746C18.3361 37.5371 18.3729 37.5102 18.4155 37.4998C18.4582 37.4894 18.5033 37.4963 18.5408 37.5191L19.1511 37.8894C19.1886 37.9122 19.2155 37.949 19.2259 37.9916C19.2363 38.0342 19.2294 38.0793 19.2066 38.1168L18.5155 39.2558L22.691 41.7903C22.7274 41.8141 22.7533 41.8507 22.7637 41.8929C22.774 41.9351 22.7679 41.9796 22.7467 42.0175L22.3264 42.7096C22.3027 42.746 22.266 42.7721 22.2238 42.7824C22.1816 42.7928 22.137 42.7867 22.0991 42.7654L17.9237 40.2308Z" fill="#344E62"/>
<path d="M23.411 39.4087L23.183 38.8276C23.1724 38.801 23.1676 38.7726 23.1688 38.7441C23.1701 38.7155 23.1774 38.6876 23.1902 38.6621C23.2031 38.6366 23.2212 38.6141 23.2434 38.5961C23.2656 38.5782 23.2913 38.5651 23.319 38.5579C23.3665 38.5399 24.2072 38.3063 24.5591 37.863C24.6259 37.7932 24.6781 37.7107 24.7127 37.6204C24.7472 37.5302 24.7635 37.4339 24.7604 37.3373C24.7573 37.2407 24.7351 37.1457 24.6949 37.0578C24.6546 36.9699 24.5973 36.8909 24.5262 36.8254C24.178 36.5495 23.7064 36.6534 23.0202 37.0427C22.2525 37.4787 21.3343 37.795 20.5294 37.1564C19.9218 36.6749 19.5767 35.6674 20.437 34.5825C20.8357 34.0991 21.3729 33.7495 21.9763 33.5806C22.0286 33.5671 22.0842 33.5737 22.1318 33.5993C22.1795 33.6248 22.2158 33.6673 22.2336 33.7184L22.4171 34.2859C22.4428 34.3405 22.4459 34.403 22.4257 34.4599C22.4055 34.5168 22.3637 34.5634 22.3093 34.5896C21.8886 34.7172 21.5028 34.9398 21.1817 35.2402C21.0524 35.3705 20.9799 35.5467 20.9803 35.7303C20.9806 35.9139 21.0537 36.0898 21.1835 36.2197C21.5039 36.4737 21.9225 36.3945 22.5857 36.0204C23.3771 35.5695 24.3787 35.1195 25.259 35.8176C25.9615 36.3749 26.1283 37.4959 25.3652 38.4582C24.9464 39.0209 24.3317 39.4059 23.6427 39.537C23.5328 39.5496 23.4715 39.5565 23.411 39.4087Z" fill="#344E62"/>
<path d="M26.7676 34.6895C27.0279 34.4202 27.5789 34.2499 28.1999 34.849C28.471 35.1033 28.6739 35.4216 28.7899 35.7747C28.906 36.1279 28.9315 36.5045 28.8641 36.87C28.864 36.8907 28.8595 36.911 28.8509 36.9298C28.8424 36.9485 28.8299 36.9653 28.8145 36.9789C28.799 36.9925 28.7809 37.0028 28.7612 37.0089C28.7415 37.0151 28.7207 37.017 28.7003 37.0146L28.5093 37.0116C28.4867 37.0106 28.4646 37.0047 28.4445 36.9942C28.4245 36.9838 28.4069 36.9691 28.3931 36.9511C28.3793 36.9332 28.3695 36.9125 28.3645 36.8905C28.3595 36.8684 28.3594 36.8455 28.3641 36.8234C28.3963 36.5752 28.3744 36.323 28.3001 36.0841C28.2257 35.8451 28.1005 35.6251 27.9332 35.439C27.8912 35.5447 27.8302 35.6418 27.7532 35.7254C27.6221 35.858 27.4444 35.9341 27.258 35.9374C27.0716 35.9407 26.8913 35.871 26.7557 35.7431C26.6863 35.6736 26.6315 35.591 26.5945 35.5001C26.5575 35.4093 26.539 35.3119 26.5402 35.2138C26.5413 35.1156 26.562 35.0187 26.601 34.9287C26.6401 34.8387 26.6967 34.7574 26.7676 34.6895Z" fill="#344E62"/>
<path d="M27.4939 27.7551C27.481 27.7377 27.4716 27.7179 27.4663 27.6968C27.461 27.6758 27.46 27.6539 27.4632 27.6324C27.4664 27.6109 27.4738 27.5903 27.485 27.5717C27.4962 27.5531 27.511 27.5369 27.5285 27.524L29.1299 26.3371C29.9624 25.7203 31.0207 25.8032 31.5646 26.5376C31.723 26.7876 31.8115 27.0754 31.8211 27.3711C31.8307 27.6669 31.761 27.9598 31.6191 28.2195C31.9238 28.1053 32.2564 28.0889 32.5708 28.1725C32.8852 28.2562 33.1657 28.4357 33.3734 28.6861C33.9535 29.4695 33.7019 30.5337 32.8487 31.1658L31.1557 32.4199C31.1383 32.4329 31.1185 32.4423 31.0975 32.4475C31.0765 32.4528 31.0546 32.4539 31.0331 32.4507C31.0117 32.4476 30.9911 32.4402 30.9725 32.429C30.9539 32.4179 30.9377 32.4032 30.9248 32.3858L27.4939 27.7551ZM32.1603 30.3978C32.2443 30.3367 32.3152 30.2593 32.3688 30.1703C32.4224 30.0812 32.4575 29.9823 32.4722 29.8795C32.4869 29.7766 32.4809 29.6718 32.4543 29.5713C32.4278 29.4709 32.3814 29.3767 32.3179 29.2945C32.1717 29.1336 31.9689 29.0354 31.752 29.0206C31.535 29.0058 31.3208 29.0754 31.154 29.2149L30.3914 29.7797L31.3138 31.0246L32.1603 30.3978ZM30.5699 28.4558C30.6517 28.3958 30.7203 28.3197 30.7717 28.2322C30.823 28.1448 30.856 28.0477 30.8686 27.9471C30.8812 27.8465 30.8732 27.7443 30.845 27.6469C30.8169 27.5495 30.7691 27.4588 30.7047 27.3804C30.6492 27.2983 30.5772 27.2288 30.4931 27.1762C30.4091 27.1236 30.315 27.0892 30.2169 27.0752C30.1188 27.0612 30.0189 27.0679 29.9235 27.0949C29.8281 27.1218 29.7395 27.1684 29.6632 27.2317L28.9145 27.7861L29.8216 29.0103L30.5699 28.4558Z" fill="#344E62"/>
<path d="M35.2099 26.1809L32.082 24.5653C32.0554 24.5517 32.033 24.5309 32.0175 24.5054C32.0021 24.4798 31.994 24.4504 31.9943 24.4204C31.9946 24.3905 32.0032 24.3613 32.0192 24.336C32.0352 24.3107 32.0579 24.2904 32.0848 24.2773L32.866 23.8553C32.8909 23.8428 32.9184 23.8365 32.9462 23.837C32.9741 23.8374 33.0014 23.8445 33.0258 23.8578L35.203 24.9584L35.477 22.5344C35.4794 22.5068 35.4884 22.48 35.5033 22.4565C35.5182 22.4331 35.5384 22.4135 35.5624 22.3994L36.3516 21.9734C36.3773 21.9581 36.4068 21.9503 36.4367 21.9508C36.4666 21.9514 36.4958 21.9602 36.521 21.9764C36.5462 21.9926 36.5663 22.0155 36.5792 22.0425C36.5921 22.0695 36.5973 22.0996 36.594 22.1294L36.2016 25.6357L37.521 28.0792C37.5403 28.1181 37.5441 28.1629 37.5317 28.2045C37.5193 28.2462 37.4915 28.2815 37.4541 28.3036L36.7492 28.6837C36.7301 28.6941 36.7092 28.7006 36.6876 28.7028C36.666 28.7051 36.6442 28.703 36.6234 28.6968C36.6026 28.6906 36.5832 28.6804 36.5664 28.6667C36.5496 28.653 36.5356 28.6361 36.5253 28.617L35.2099 26.1809Z" fill="#344E62"/>
<path d="M40.7024 20.4055C40.696 20.3847 40.6938 20.3629 40.6959 20.3413C40.6979 20.3196 40.7043 20.2986 40.7145 20.2794C40.7247 20.2603 40.7386 20.2433 40.7554 20.2295C40.7722 20.2157 40.7915 20.2053 40.8123 20.199L42.7703 19.6038C43.0142 19.5285 43.2706 19.5021 43.5248 19.526C43.779 19.55 44.026 19.6238 44.2517 19.7433C44.4773 19.8628 44.6771 20.0256 44.8398 20.2225C45.0024 20.4193 45.1246 20.6463 45.1994 20.8904C45.2742 21.1345 45.3001 21.391 45.2757 21.6451C45.2512 21.8993 45.1769 22.1461 45.057 22.3715C44.937 22.5969 44.7738 22.7965 44.5767 22.9587C44.3795 23.1209 44.1523 23.2427 43.908 23.317L42.867 23.6338L43.4619 25.5916C43.4732 25.6336 43.4681 25.6782 43.4477 25.7165C43.4273 25.7549 43.393 25.784 43.352 25.7981L42.5854 26.0313C42.5646 26.0376 42.5428 26.0397 42.5212 26.0376C42.4996 26.0355 42.4787 26.0291 42.4595 26.0189C42.4404 26.0087 42.4234 25.9948 42.4097 25.978C42.3959 25.9612 42.3856 25.9419 42.3793 25.9212L40.7024 20.4055ZM43.5246 22.3236C43.638 22.289 43.7433 22.2323 43.8346 22.1568C43.926 22.0813 44.0014 21.9884 44.0567 21.8836C44.1119 21.7788 44.1459 21.6641 44.1566 21.5461C44.1673 21.428 44.1545 21.3091 44.119 21.196C44.0827 21.0875 44.0254 20.9871 43.9502 20.9008C43.875 20.8145 43.7835 20.7439 43.6809 20.693C43.5784 20.6422 43.4668 20.6121 43.3525 20.6045C43.2383 20.597 43.1237 20.612 43.0153 20.6489L42.0488 20.9426L42.5581 22.6173L43.5246 22.3236Z" fill="#344E62"/>
<path d="M46.4676 24.5878L48.2343 18.3792C48.242 18.3487 48.2585 18.3212 48.2819 18.3002C48.3053 18.2792 48.3345 18.2657 48.3656 18.2614L48.4518 18.248C48.4828 18.2411 48.5152 18.2444 48.5442 18.2573C48.5732 18.2702 48.5973 18.2921 48.6129 18.3198L52.1709 23.6932C52.1876 23.7152 52.1982 23.7414 52.2013 23.7689C52.2044 23.7964 52.2001 23.8243 52.1887 23.8496C52.1773 23.8748 52.1592 23.8965 52.1365 23.9124C52.1138 23.9282 52.0872 23.9377 52.0596 23.9396L51.311 24.057C51.2567 24.0686 51.2001 24.0619 51.15 24.0378C51.1 24.0138 51.0594 23.9737 51.0346 23.9241L50.4674 23.0613L47.8954 23.4647L47.6198 24.46C47.6096 24.5141 47.5826 24.5636 47.5427 24.6015C47.5028 24.6393 47.452 24.6637 47.3975 24.6711L46.649 24.7888C46.622 24.7952 46.5939 24.7943 46.5674 24.7861C46.5409 24.7779 46.5171 24.7627 46.4986 24.7422C46.48 24.7216 46.4673 24.6964 46.4619 24.6692C46.4564 24.6421 46.4584 24.6139 46.4676 24.5878ZM49.8961 22.1727L48.739 20.4152L48.7132 20.4195L48.167 22.4439L49.8961 22.1727Z" fill="#344E62"/>
<path d="M53.2144 17.9693C53.2144 17.9475 53.2186 17.926 53.2268 17.9059C53.2351 17.8858 53.2473 17.8675 53.2626 17.8521C53.278 17.8367 53.2962 17.8244 53.3163 17.8161C53.3363 17.8078 53.3579 17.8034 53.3796 17.8034L55.8699 17.8035C56.3698 17.8002 56.8505 17.9955 57.2065 18.3465C57.5624 18.6975 57.7644 19.1754 57.7681 19.6753C57.7567 20.0645 57.6274 20.4411 57.3973 20.7552C57.1672 21.0693 56.8471 21.3061 56.4794 21.4343L57.6725 23.6458C57.6887 23.6714 57.6975 23.7009 57.698 23.7311C57.6985 23.7613 57.6906 23.791 57.6754 23.8171C57.6601 23.8432 57.6379 23.8645 57.6113 23.8789C57.5847 23.8932 57.5547 23.8999 57.5245 23.8983L56.6099 23.8982C56.5817 23.8998 56.5537 23.8933 56.5291 23.8794C56.5045 23.8656 56.4843 23.845 56.4711 23.82L55.3129 21.5125L54.3463 21.5127L54.3462 23.733C54.3448 23.7764 54.327 23.8177 54.2964 23.8484C54.2658 23.8792 54.2246 23.8971 54.1812 23.8986L53.3797 23.8983C53.3579 23.8984 53.3364 23.8941 53.3163 23.8858C53.2963 23.8775 53.278 23.8653 53.2627 23.8499C53.2473 23.8345 53.2351 23.8163 53.2268 23.7962C53.2185 23.7761 53.2143 23.7546 53.2143 23.7329L53.2144 17.9693ZM55.7741 20.5808C56.0052 20.5744 56.2247 20.4779 56.3857 20.312C56.5466 20.1461 56.6364 19.9238 56.6359 19.6926C56.6303 19.4674 56.5372 19.2532 56.3762 19.0955C56.2153 18.9378 55.9992 18.8491 55.7739 18.8482L54.355 18.8485L54.3548 20.581L55.7741 20.5808Z" fill="#344E62"/>
<path d="M60.104 18.1904C60.1072 18.1688 60.1145 18.1482 60.1256 18.1295C60.1368 18.1108 60.1515 18.0945 60.1689 18.0815C60.1863 18.0685 60.2061 18.0591 60.2272 18.0538C60.2483 18.0485 60.2702 18.0474 60.2917 18.0505L63.7973 18.57C63.8188 18.5732 63.8395 18.5806 63.8581 18.5918C63.8768 18.6029 63.8931 18.6177 63.906 18.6352C63.919 18.6526 63.9283 18.6725 63.9336 18.6936C63.9389 18.7147 63.94 18.7366 63.9368 18.7581L63.832 19.4642C63.8289 19.4857 63.8216 19.5063 63.8105 19.525C63.7994 19.5436 63.7847 19.5599 63.7672 19.5729C63.7498 19.5859 63.73 19.5953 63.709 19.6006C63.6879 19.6059 63.666 19.607 63.6445 19.6038L61.0948 19.226L60.8857 20.6386L63.0128 20.9537C63.0555 20.9615 63.0937 20.9851 63.1196 21.02C63.1455 21.0548 63.1572 21.0982 63.1523 21.1413L63.0464 21.8565C63.0432 21.878 63.0358 21.8986 63.0247 21.9173C63.0136 21.9359 62.9988 21.9522 62.9814 21.9651C62.964 21.978 62.9442 21.9874 62.9231 21.9927C62.902 21.998 62.8801 21.9991 62.8586 21.9959L60.7311 21.6807L60.5077 23.1878L63.057 23.5656C63.0786 23.5688 63.0992 23.5761 63.1179 23.5873C63.1366 23.5984 63.1529 23.6132 63.1658 23.6306C63.1788 23.6481 63.1882 23.6679 63.1935 23.689C63.1988 23.7101 63.1999 23.732 63.1967 23.7535L63.0921 24.4599C63.0889 24.4814 63.0815 24.502 63.0703 24.5207C63.0592 24.5393 63.0444 24.5555 63.0269 24.5685C63.0095 24.5814 62.9896 24.5908 62.9685 24.596C62.9474 24.6013 62.9255 24.6023 62.904 24.5991L59.3987 24.0798C59.3772 24.0767 59.3565 24.0693 59.3379 24.0582C59.3192 24.047 59.3029 24.0323 59.2899 24.0148C59.277 23.9974 59.2676 23.9775 59.2623 23.9564C59.257 23.9353 59.2559 23.9134 59.2591 23.8919L60.104 18.1904Z" fill="#344E62"/>
<path d="M66.3141 19.1709C66.3286 19.1309 66.3581 19.0981 66.3963 19.0796C66.4346 19.061 66.4786 19.0581 66.5189 19.0715L66.7262 19.1372L69.015 23.9024L69.0232 23.905L70.1114 20.4768C70.1247 20.435 70.1541 20.4002 70.1931 20.38C70.2321 20.3598 70.2775 20.3559 70.3194 20.3692L71.0831 20.6116C71.1241 20.6261 71.158 20.6556 71.178 20.6942C71.198 20.7328 71.2025 20.7775 71.1907 20.8193L69.4173 26.4059C69.4028 26.4459 69.3732 26.4787 69.3349 26.4973C69.2967 26.5159 69.2526 26.5189 69.2122 26.5055L69.013 26.442L66.7525 21.5302L66.7444 21.5276L65.6111 25.0972C65.6046 25.1179 65.594 25.1372 65.5801 25.1539C65.5661 25.1705 65.549 25.1842 65.5297 25.1943C65.5104 25.2043 65.4893 25.2104 65.4677 25.2122C65.446 25.214 65.4242 25.2116 65.4035 25.205L64.648 24.9654C64.6071 24.9508 64.5732 24.9212 64.5532 24.8826C64.5332 24.844 64.5286 24.7992 64.5402 24.7574L66.3141 19.1709Z" fill="#344E62"/>
<path d="M74.009 23.068L72.8145 22.4781C72.7752 22.4586 72.7451 22.4243 72.731 22.3828C72.7169 22.3412 72.7199 22.2957 72.7393 22.2563L73.0559 21.6164C73.0654 21.5969 73.0788 21.5795 73.0951 21.5651C73.1114 21.5508 73.1304 21.5398 73.151 21.5329C73.1716 21.5259 73.1934 21.5231 73.2151 21.5245C73.2367 21.526 73.2579 21.5317 73.2774 21.5414L76.6885 23.2268C76.708 23.2364 76.7253 23.2498 76.7396 23.2661C76.7539 23.2824 76.7648 23.3014 76.7718 23.322C76.7787 23.3425 76.7815 23.3642 76.7801 23.3859C76.7786 23.4075 76.7729 23.4287 76.7633 23.4481L76.4471 24.0881C76.4375 24.1076 76.4241 24.1251 76.4078 24.1394C76.3915 24.1537 76.3725 24.1647 76.3519 24.1717C76.3313 24.1786 76.3095 24.1815 76.2879 24.18C76.2662 24.1785 76.245 24.1728 76.2255 24.1631L75.0314 23.5734L72.868 27.9522C72.8475 27.9904 72.8131 28.0194 72.772 28.0333C72.7309 28.0473 72.686 28.0451 72.6465 28.0272L71.9206 27.6688C71.8822 27.6483 71.8531 27.614 71.8391 27.5728C71.8251 27.5316 71.8274 27.4867 71.8454 27.4471L74.009 23.068Z" fill="#344E62"/>
<path d="M75.2978 28.4605L75.8572 28.1834C75.8828 28.1706 75.9107 28.1633 75.9393 28.1622C75.9678 28.161 75.9963 28.1658 76.0228 28.1765C76.0493 28.1871 76.0733 28.2032 76.0931 28.2238C76.1129 28.2444 76.1282 28.269 76.1378 28.2959C76.1597 28.3418 76.4643 29.1596 76.9363 29.4719C77.0116 29.5324 77.0983 29.5773 77.1912 29.604C77.2841 29.6306 77.3814 29.6385 77.4774 29.6271C77.5734 29.6158 77.6661 29.5854 77.7502 29.5377C77.8343 29.4901 77.9081 29.4262 77.9672 29.3497C78.2122 28.9794 78.0682 28.5186 77.6214 27.8681C77.1217 27.1404 76.7271 26.2529 77.2942 25.3958C77.7221 24.7495 78.6962 24.3187 79.851 25.0827C80.3669 25.4385 80.7615 25.9438 80.9816 26.5305C80.9996 26.5815 80.9977 26.6375 80.9764 26.6872C80.9551 26.7369 80.9159 26.7768 80.8666 26.799L80.3166 27.0303C80.2644 27.0605 80.2024 27.069 80.1441 27.0538C80.0857 27.0387 80.0357 27.0011 80.0048 26.9493C79.8415 26.541 79.5864 26.1758 79.2594 25.8818C79.1187 25.764 78.937 25.7069 78.7541 25.7229C78.5713 25.739 78.4023 25.8269 78.2842 25.9673C78.058 26.3085 78.1731 26.7191 78.6028 27.3478C79.1198 28.097 79.6547 29.0569 79.0345 29.9934C78.5396 30.7416 77.4366 31.0037 76.4129 30.3262C75.8163 29.9573 75.3798 29.3779 75.1898 28.7027C75.1676 28.5937 75.1556 28.5338 75.2978 28.4605Z" fill="#344E62"/>
</svg>
