<svg xmlns="http://www.w3.org/2000/svg" width="195.614" height="187.611" viewBox="0 0 195.614 187.611">
  <path id="Trazado_152" data-name="Trazado 152" d="M260.695,237c-5.936-5.936-5.936-14.842,0-19.787a13.759,13.759,0,0,1,18.8,0c5.936,4.948,5.936,13.851,0,19.787A13.759,13.759,0,0,1,260.695,237Zm105.864,41.553c6.926.99,8.906-.991,6.926-7.915a24.9,24.9,0,0,0-6.926-11.872v-111.8a24.893,24.893,0,0,0,6.926-11.872c1.979-6.926,0-9.893-6.926-7.915a46.738,46.738,0,0,0-11.872,6.926h-120.7a73.681,73.681,0,0,0-11.872-6.926c-6.926-1.979-8.906.99-6.926,7.915a24.9,24.9,0,0,0,6.926,11.872v6.926H328.964a28.94,28.94,0,0,1,11.872-6.926c10.884-2.969,16.82,2.969,13.851,13.851-1.979,3.957-3.957,8.906-6.926,11.872v98.939h6.926a46.749,46.749,0,0,0,11.872,6.926ZM217.165,153.891v-4.948c-2.969-3.957-5.936-8.905-6.926-12.863-2.969-10.884,1.979-16.82,12.863-13.851a53.254,53.254,0,0,1,12.863,6.926H352.711c2.969-2.969,7.915-4.948,12.863-6.926,10.884-2.969,15.83,2.969,12.863,13.851-.991,3.957-3.957,8.906-6.926,12.863v107.84c2.969,3.957,5.936,7.915,6.926,12.863,2.969,10.884-1.979,15.83-12.863,12.863-4.948-.991-9.893-2.969-12.863-5.936h-4.948v4.948c2.969,2.969,4.948,7.915,6.926,11.872,2.969,10.884-2.969,16.82-13.851,13.851a28.935,28.935,0,0,1-11.872-6.926H211.23a28.941,28.941,0,0,1-11.872,6.926c-10.884,2.969-16.82-2.969-13.851-13.851,1.979-3.957,3.957-8.905,6.926-11.872V172.692c-2.969-2.969-4.948-7.915-6.926-11.872-2.969-10.884,2.969-16.82,13.851-13.851a28.934,28.934,0,0,1,11.872,6.926h5.936Zm46.5,79.154c3.957,3.957,8.906,3.957,12.863,0,2.969-2.969,2.969-8.906,0-11.872-3.957-3.957-8.905-3.957-12.863,0C260.7,224.142,260.7,230.078,263.665,233.045ZM341.825,302.3c7.915,1.979,9.893,0,7.915-6.926-1.979-4.948-3.957-8.905-6.926-11.872V170.716c2.969-2.969,4.948-6.926,6.926-11.872,1.979-6.926,0-8.906-7.915-6.926a18.825,18.825,0,0,0-10.884,6.926h-121.7c-2.969-3.957-6.926-5.936-11.872-6.926-6.926-1.979-8.905,0-6.926,6.926.99,4.948,3.957,8.905,6.926,11.872V283.5c-2.969,2.969-5.936,6.926-6.926,11.872-1.979,6.926,0,8.906,6.926,6.926,4.948-.99,8.906-2.969,11.872-6.926h121.7A18.821,18.821,0,0,0,341.825,302.3Z" transform="translate(-184.204 -120.937)" fill="#fff" stroke="#96bae9" stroke-width="1"/>
</svg>
