<svg xmlns="http://www.w3.org/2000/svg" width="206.011" height="207.6" viewBox="0 0 206.011 207.6">
  <g id="Grupo_3" data-name="Grupo 3" transform="translate(-552.832 768.368)">
    <path id="Trazado_154" data-name="Trazado 154" d="M157.428,34.273a2.919,2.919,0,0,1,1.378.229,6.373,6.373,0,0,1,5.054,5.054,6.552,6.552,0,0,1-.46,3.676,7.3,7.3,0,0,0,6.892,10.108h19.3v17a17.788,17.788,0,0,0-3.445-.46,11.208,11.208,0,0,0-2.756.229,15.4,15.4,0,0,0-12.4,12.4A15.861,15.861,0,0,0,174.2,95.607a15.474,15.474,0,0,0,12.175,5.743,17.632,17.632,0,0,0,3.445-.46v17h-17a17.787,17.787,0,0,0,.46-3.445,15.635,15.635,0,0,0-15.62-15.62,13.142,13.142,0,0,0-2.987.229,15.691,15.691,0,0,0-12.4,12.4,15.22,15.22,0,0,0,.229,6.432h-17V98.363a7.258,7.258,0,0,0-7.352-7.352,6.109,6.109,0,0,0-2.756.689,8.279,8.279,0,0,1-2.527.46,7.372,7.372,0,0,1-5.054-2.3,6.751,6.751,0,0,1-1.378-5.514,6.373,6.373,0,0,1,5.054-5.054h1.149a9.728,9.728,0,0,1,2.527.46,6.109,6.109,0,0,0,2.756.689,7.258,7.258,0,0,0,7.352-7.352V53.565H144.8a7.3,7.3,0,0,0,6.892-10.108,8.278,8.278,0,0,1-.46-2.527,6.412,6.412,0,0,1,1.838-4.594,5.047,5.047,0,0,1,4.363-2.064m0-4.594A11.028,11.028,0,0,0,146.4,40.7a9.323,9.323,0,0,0,.918,4.365,2.9,2.9,0,0,1-2.527,3.905H123.431a2.653,2.653,0,0,0-2.756,2.756V73.094a2.792,2.792,0,0,1-2.756,2.756,2.076,2.076,0,0,1-1.149-.229A13.417,13.417,0,0,0,112.4,74.7a6.373,6.373,0,0,0-2.067.229,10.748,10.748,0,0,0-8.73,8.73,11.031,11.031,0,0,0,10.8,13.324,9.323,9.323,0,0,0,4.365-.918,2.076,2.076,0,0,1,1.149-.229,2.793,2.793,0,0,1,2.756,2.756v21.363a2.653,2.653,0,0,0,2.756,2.756h21.363a2.715,2.715,0,0,0,2.527-3.905,10.083,10.083,0,0,1-.689-6.432,10.748,10.748,0,0,1,8.73-8.73,7.1,7.1,0,0,1,2.3-.229,11.028,11.028,0,0,1,11.026,11.026,9.323,9.323,0,0,1-.918,4.365,2.9,2.9,0,0,0,2.527,3.9h21.363a2.653,2.653,0,0,0,2.756-2.756V98.594a2.792,2.792,0,0,0-2.756-2.756,2.076,2.076,0,0,0-1.149.229,13.417,13.417,0,0,1-4.365.918,11.031,11.031,0,0,1-10.8-13.324,11.339,11.339,0,0,1,8.73-8.73,6.373,6.373,0,0,1,2.067-.229,9.323,9.323,0,0,1,4.365.918,2.076,2.076,0,0,0,1.149.229,2.793,2.793,0,0,0,2.756-2.756V51.731a2.653,2.653,0,0,0-2.756-2.756H170.294a2.715,2.715,0,0,1-2.527-3.905,10.083,10.083,0,0,0,.689-6.432,10.748,10.748,0,0,0-8.73-8.73c-.92,0-1.609-.229-2.3-.229Z" transform="translate(452.469 -797.047)" fill="#fff" stroke="#96bae9" stroke-width="2"/>
    <path id="Trazado_155" data-name="Trazado 155" d="M183.475,261.076a2.919,2.919,0,0,1,1.378.229,6.373,6.373,0,0,1,5.054,5.054,6.552,6.552,0,0,1-.46,3.676,7.3,7.3,0,0,0,6.892,10.108h19.527v19.527a7.258,7.258,0,0,0,7.352,7.352,6.108,6.108,0,0,0,2.756-.689,8.28,8.28,0,0,1,2.527-.46,7.372,7.372,0,0,1,5.054,2.3,6.752,6.752,0,0,1,1.378,5.514,6.373,6.373,0,0,1-5.054,5.054H228.73a9.728,9.728,0,0,1-2.527-.46,6.108,6.108,0,0,0-2.756-.689,7.258,7.258,0,0,0-7.352,7.352v19.527h-17a19.89,19.89,0,0,0,.229-6.432,15.4,15.4,0,0,0-12.4-12.4,13.126,13.126,0,0,0-2.987-.229,15.635,15.635,0,0,0-15.62,15.62,17.632,17.632,0,0,0,.46,3.445h-17v-17a17.787,17.787,0,0,0,3.445.46,15.771,15.771,0,0,0,2.987-31.242,11.207,11.207,0,0,0-2.756-.229,17.634,17.634,0,0,0-3.445.46v-17h19.527a7.3,7.3,0,0,0,6.892-10.108,8.28,8.28,0,0,1-.46-2.527,6.412,6.412,0,0,1,1.838-4.594c.458-.923,2.065-1.612,3.674-1.612m0-4.594a11.028,11.028,0,0,0-11.026,11.026,9.323,9.323,0,0,0,.918,4.365,2.9,2.9,0,0,1-2.527,3.9H149.478a2.653,2.653,0,0,0-2.756,2.756V299.9a2.792,2.792,0,0,0,2.756,2.756,2.077,2.077,0,0,0,1.149-.229,13.416,13.416,0,0,1,4.365-.918,6.373,6.373,0,0,1,2.067.229,10.748,10.748,0,0,1,8.73,8.73,11.031,11.031,0,0,1-10.8,13.324,9.323,9.323,0,0,1-4.365-.918,2.077,2.077,0,0,0-1.149-.229,2.793,2.793,0,0,0-2.756,2.756l0,21.134a2.653,2.653,0,0,0,2.756,2.756H170.84a2.715,2.715,0,0,0,2.527-3.9,13.417,13.417,0,0,1-.918-4.365,11.028,11.028,0,0,1,11.026-11.026,8.647,8.647,0,0,1,2.3.229,11.339,11.339,0,0,1,8.73,8.73,10.261,10.261,0,0,1-.689,6.432,2.9,2.9,0,0,0,2.527,3.9H217.7a2.653,2.653,0,0,0,2.756-2.756V325.168a2.792,2.792,0,0,1,2.756-2.756,2.076,2.076,0,0,1,1.149.229,13.416,13.416,0,0,0,4.365.918,6.373,6.373,0,0,0,2.067-.229,10.748,10.748,0,0,0,8.73-8.73,11.031,11.031,0,0,0-10.8-13.324,9.323,9.323,0,0,0-4.365.918,2.076,2.076,0,0,1-1.149.229,2.793,2.793,0,0,1-2.756-2.756V278.305a2.653,2.653,0,0,0-2.756-2.756H196.34a2.715,2.715,0,0,1-2.527-3.9,10.082,10.082,0,0,0,.689-6.432,10.748,10.748,0,0,0-8.73-8.73h-2.3Z" transform="translate(425.732 -930.813)" fill="#fff" stroke="#96bae9" stroke-width="2"/>
    <path id="Trazado_156" data-name="Trazado 156" d="M417.483,79.633v21.134a6.575,6.575,0,0,0,6.432,6.432,6.778,6.778,0,0,0,2.3-.46,8.279,8.279,0,0,1,2.527-.46,6.706,6.706,0,0,1,6.432,6.2,6.412,6.412,0,0,1-1.838,4.594,6.123,6.123,0,0,1-4.594,2.067,6.778,6.778,0,0,1-2.3-.46,8.188,8.188,0,0,0-2.3-.46,6.575,6.575,0,0,0-6.432,6.432v19.527h-17a17.789,17.789,0,0,0,.46-3.445,15.635,15.635,0,0,0-15.62-15.62h-.46a15.748,15.748,0,0,0-15.162,15.851,17.63,17.63,0,0,0,.46,3.445h-17V123.279a6.574,6.574,0,0,0-6.432-6.432,5.272,5.272,0,0,0-3.216.918,7.063,7.063,0,0,1-2.987.689,5.783,5.783,0,0,1-4.594-2.067,7.413,7.413,0,0,1-1.838-4.825,6.51,6.51,0,0,1,9.419-5.514,7.467,7.467,0,0,0,3.216.918,6.574,6.574,0,0,0,6.432-6.432V79.4l16.54,0a17.789,17.789,0,0,0-.46,3.445,15.635,15.635,0,0,0,15.62,15.62h.46a15.748,15.748,0,0,0,15.162-15.851,17.63,17.63,0,0,0-.46-3.445l17.231,0m2.756-4.136h-23.89a1.879,1.879,0,0,0-1.609,2.756,10.678,10.678,0,0,1,1.378,5.283,11.342,11.342,0,0,1-10.8,11.257h-.229a11.028,11.028,0,0,1-11.026-11.026,10.674,10.674,0,0,1,1.378-5.283,1.878,1.878,0,0,0-1.609-2.756H350.175a1.976,1.976,0,0,0-1.838,1.838v23.661a1.811,1.811,0,0,1-1.838,1.838,1.382,1.382,0,0,1-.918-.229A10.678,10.678,0,0,0,340.3,101a11.142,11.142,0,0,0,0,22.283,10.674,10.674,0,0,0,5.283-1.378,1.382,1.382,0,0,1,.918-.229,1.812,1.812,0,0,1,1.838,1.838V147.4a1.977,1.977,0,0,0,1.838,1.838h23.661a1.879,1.879,0,0,0,1.609-2.756,10.678,10.678,0,0,1-1.378-5.283,11.342,11.342,0,0,1,10.8-11.257h.229a11.028,11.028,0,0,1,11.026,11.026,10.674,10.674,0,0,1-1.378,5.283,1.878,1.878,0,0,0,1.609,2.756h23.89a1.977,1.977,0,0,0,1.838-1.838V124.658a1.812,1.812,0,0,1,1.838-1.838.845.845,0,0,1,.689.229,12.99,12.99,0,0,0,4.134.689,11,11,0,0,0,11.026-11.486,11.3,11.3,0,0,0-11.026-10.8h-.229a9.007,9.007,0,0,0-4.134.918c-.229,0-.46.229-.689.229a1.812,1.812,0,0,1-1.838-1.838V76.876a1.629,1.629,0,0,0-1.609-1.838Z" transform="translate(318.07 -823.8)" fill="#fff" stroke="#96bae9" stroke-width="2"/>
    <path id="Trazado_157" data-name="Trazado 157" d="M412.875,264.435a6.421,6.421,0,0,1,6.432,6.432,6.777,6.777,0,0,1-.46,2.3,6.852,6.852,0,0,0,.689,5.972,6.147,6.147,0,0,0,5.283,2.756h19.527v17a17.789,17.789,0,0,0-3.445-.46,15.7,15.7,0,0,0-15.622,16.311,15.748,15.748,0,0,0,15.851,15.162,17.634,17.634,0,0,0,3.445-.46v17H423.441a6.187,6.187,0,0,0-5.514,3.216,6.432,6.432,0,0,0,0,6.432,7.064,7.064,0,0,1,.689,2.987,6.421,6.421,0,0,1-6.432,6.432h-.229a6.51,6.51,0,0,1-5.514-9.419,6.429,6.429,0,0,0,0-6.432,6.187,6.187,0,0,0-5.514-3.216H379.794v-17a17.789,17.789,0,0,0,3.445.46A15.7,15.7,0,0,0,398.861,313.6a15.748,15.748,0,0,0-15.851-15.162,17.63,17.63,0,0,0-3.445.46v-17H400.7a6.745,6.745,0,0,0,5.283-2.756,6.852,6.852,0,0,0,.689-5.972,8.28,8.28,0,0,1-.46-2.527,7.133,7.133,0,0,1,6.664-6.2m0-4.594h-.229a11.3,11.3,0,0,0-10.8,11.026,9.323,9.323,0,0,0,.918,4.365,1.909,1.909,0,0,1-1.838,2.527H377.04A1.977,1.977,0,0,0,375.2,279.6v23.661a1.812,1.812,0,0,0,1.838,1.838,1.382,1.382,0,0,0,.918-.229,10.678,10.678,0,0,1,5.283-1.378,11.142,11.142,0,0,1,0,22.283,10.674,10.674,0,0,1-5.283-1.378,1.382,1.382,0,0,0-.918-.229A1.812,1.812,0,0,0,375.2,326v23.89a1.977,1.977,0,0,0,1.838,1.838H400.7a1.879,1.879,0,0,1,1.609,2.756,10.678,10.678,0,0,0-1.378,5.283,11.342,11.342,0,0,0,10.8,11.257h.229A11.028,11.028,0,0,0,422.983,360a10.674,10.674,0,0,0-1.378-5.283,1.878,1.878,0,0,1,1.609-2.756H447.1a1.976,1.976,0,0,0,1.838-1.838V325.77a1.811,1.811,0,0,0-1.838-1.838,1.382,1.382,0,0,0-.918.229,9.261,9.261,0,0,1-5.054,1.38,11.142,11.142,0,0,1,0-22.283,10.674,10.674,0,0,1,5.283,1.378,1.382,1.382,0,0,0,.918.229,1.812,1.812,0,0,0,1.838-1.838V279.368a1.976,1.976,0,0,0-1.838-1.838H425.051A1.709,1.709,0,0,1,423.442,275a12.991,12.991,0,0,0,.689-4.134,11.38,11.38,0,0,0-11.255-11.028Z" transform="translate(290.976 -932.794)" fill="#fff" stroke="#96bae9" stroke-width="2"/>
  </g>
</svg>
